<?xml version="1.0" encoding="UTF-8" standalone="no"?>
<!-- Generator: Adobe Illustrator 27.4.1, SVG Export Plug-In . SVG Version: 6.00 Build 0)  -->

<svg
   version="1.1"
   id="Layer_1"
   x="0px"
   y="0px"
   viewBox="0 0 283.46 107.95"
   style="enable-background:new 0 0 283.46 107.95;"
   xml:space="preserve"
   sodipodi:docname="logo_svg.svg"
   xmlns:inkscape="http://www.inkscape.org/namespaces/inkscape"
   xmlns:sodipodi="http://sodipodi.sourceforge.net/DTD/sodipodi-0.dtd"
   xmlns="http://www.w3.org/2000/svg"
   xmlns:svg="http://www.w3.org/2000/svg"><defs
   id="defs35" /><sodipodi:namedview
   id="namedview33"
   pagecolor="#ffffff"
   bordercolor="#000000"
   borderopacity="0.25"
   inkscape:showpageshadow="2"
   inkscape:pageopacity="0.0"
   inkscape:pagecheckerboard="0"
   inkscape:deskcolor="#d1d1d1" />
<style
   type="text/css"
   id="style2">
	.st0{fill:#5AC8DC;}
</style>
    <g
   id="g30">
	<polygon
   class="st0"
   points="106.81,71.63 106.81,77.03 114.59,77.03 114.59,78.94 106.81,78.94 106.81,85.21 104.6,85.21    104.6,69.7 115.54,69.7 115.54,71.63  "
   id="polygon4" />
        <rect
   x="119.77"
   y="69.7"
   class="st0"
   width="2.22"
   height="15.51"
   id="rect6" />
        <polygon
   class="st0"
   points="130.83,71.63 125.51,71.63 125.51,69.7 138.34,69.7 138.34,71.63 133.02,71.63 133.02,85.21   130.83,85.21  "
   id="polygon8" />
        <polygon
   class="st0"
   points="155.2,69.7 155.2,85.21 153.39,85.21 144.08,73.64 144.08,85.21 141.86,85.21 141.86,69.7   143.68,69.7 152.99,81.26 152.99,69.7  "
   id="polygon10" />
        <polygon
   class="st0"
   points="172.22,83.28 172.22,85.21 160.96,85.21 160.96,69.7 171.91,69.7 171.91,71.63 163.18,71.63   163.18,76.39 170.96,76.39 170.96,78.27 163.18,78.27 163.18,83.28  "
   id="polygon12" />
        <path
   class="st0"
   d="M178.06,84.68c-1.09-0.35-1.94-0.81-2.56-1.38l0.82-1.69c0.59,0.52,1.35,0.94,2.27,1.27   c0.92,0.33,1.87,0.49,2.85,0.49c1.29,0,2.24-0.21,2.88-0.64c0.63-0.43,0.95-0.99,0.95-1.7c0-0.52-0.17-0.94-0.52-1.27   c-0.35-0.33-0.78-0.57-1.29-0.75c-0.51-0.17-1.23-0.37-2.16-0.58c-1.17-0.27-2.11-0.55-2.83-0.82c-0.72-0.27-1.33-0.7-1.84-1.27   c-0.51-0.57-0.77-1.34-0.77-2.31c0-0.81,0.22-1.54,0.65-2.19c0.43-0.65,1.1-1.17,1.98-1.56c0.89-0.39,1.99-0.59,3.3-0.59   c0.91,0,1.82,0.12,2.7,0.35c0.89,0.23,1.65,0.56,2.28,1l-0.73,1.73c-0.65-0.41-1.35-0.71-2.08-0.92c-0.74-0.21-1.46-0.31-2.17-0.31   c-1.26,0-2.2,0.22-2.83,0.67c-0.63,0.45-0.94,1.03-0.94,1.73c0,0.52,0.18,0.94,0.53,1.27c0.35,0.33,0.79,0.58,1.32,0.76   c0.52,0.18,1.24,0.37,2.14,0.57c1.17,0.27,2.11,0.55,2.81,0.82c0.71,0.27,1.32,0.69,1.83,1.26c0.51,0.56,0.76,1.32,0.76,2.27   c0,0.79-0.22,1.52-0.66,2.18c-0.44,0.66-1.11,1.18-2.02,1.56c-0.9,0.38-2.01,0.57-3.32,0.57   C180.27,85.21,179.14,85.03,178.06,84.68"
   id="path14" />
        <path
   class="st0"
   d="M192.93,84.68c-1.09-0.35-1.94-0.81-2.56-1.38l0.82-1.69c0.59,0.52,1.35,0.94,2.27,1.27   c0.92,0.33,1.87,0.49,2.85,0.49c1.29,0,2.24-0.21,2.88-0.64c0.63-0.43,0.95-0.99,0.95-1.7c0-0.52-0.17-0.94-0.52-1.27   c-0.35-0.33-0.78-0.57-1.29-0.75c-0.51-0.17-1.23-0.37-2.16-0.58c-1.17-0.27-2.11-0.55-2.83-0.82c-0.72-0.27-1.33-0.7-1.84-1.27   c-0.51-0.57-0.77-1.34-0.77-2.31c0-0.81,0.22-1.54,0.65-2.19c0.43-0.65,1.1-1.17,1.98-1.56c0.89-0.39,1.99-0.59,3.3-0.59   c0.91,0,1.82,0.12,2.7,0.35c0.89,0.23,1.65,0.56,2.28,1l-0.73,1.73c-0.65-0.41-1.35-0.71-2.08-0.92c-0.74-0.21-1.46-0.31-2.17-0.31   c-1.26,0-2.2,0.22-2.83,0.67c-0.63,0.45-0.94,1.03-0.94,1.73c0,0.52,0.18,0.94,0.53,1.27c0.35,0.33,0.79,0.58,1.32,0.76   c0.52,0.18,1.24,0.37,2.14,0.57c1.17,0.27,2.11,0.55,2.81,0.82c0.71,0.27,1.32,0.69,1.83,1.26c0.51,0.56,0.76,1.32,0.76,2.27   c0,0.79-0.22,1.52-0.66,2.18c-0.44,0.66-1.11,1.18-2.02,1.56c-0.9,0.38-2.01,0.57-3.32,0.57   C195.14,85.21,194.01,85.03,192.93,84.68"
   id="path16" />
        <path
   class="st0"
   d="M122,22.74h-18.36v31.45h10.48v-5.24H122c7.23,0,13.1-5.86,13.1-13.1C135.1,28.6,129.24,22.74,122,22.74    M122,38.46h-7.87v-5.24H122c1.44,0,2.61,1.17,2.61,2.63C124.61,37.29,123.44,38.46,122,38.46"
   id="path18" />
        <polygon
   class="st0"
   points="166.55,54.19 155.5,54.19 150.82,40.16 146.15,54.19 135.1,54.19 145.58,22.74 156.06,22.74  "
   id="polygon20" />
        <path
   class="st0"
   d="M198.93,45.57c5.37-4.86,5.79-13.15,0.93-18.52c-2.48-2.74-6.01-4.31-9.72-4.31h-18.36v31.45h10.48v-5.24h6.63   l2.63,5.24h11.71L198.93,45.57z M190.15,38.46h-7.87v-5.24h7.87c1.44,0,2.61,1.17,2.61,2.63   C192.76,37.29,191.59,38.46,190.15,38.46"
   id="path22" />
        <polygon
   class="st0"
   points="228.5,37.04 239.93,54.19 227.33,54.19 221.63,45.62 218.97,48.95 218.97,54.19 208.48,54.19   208.48,22.74 218.97,22.74 218.97,32.16 226.51,22.74 239.93,22.74  "
   id="polygon24" />
        <polygon
   class="st0"
   points="95.93,22.74 85.45,33.23 74.97,33.23 64.49,43.7 54.01,33.23 64.49,22.74  "
   id="polygon26" />
        <polygon
   class="st0"
   points="85.45,43.7 74.97,54.19 43.53,54.19 54.01,43.7  "
   id="polygon28" />
</g>
</svg>
