<svg width="12" height="12" viewBox="0 0 12 12" fill="none" xmlns="http://www.w3.org/2000/svg">
    <path
        d="M11 2.5V3.5C11 4.415 10.585 4.91 9.75 4.985C9.67 4.995 9.585 5 9.5 5H2.5C2.415 5 2.33 4.995 2.25 4.985C1.415 4.91 1 4.415 1 3.5V2.5C1 1.5 1.5 1 2.5 1H9.5C10.5 1 11 1.5 11 2.5Z"
        fill="#2869FE" />
    <path
        d="M2.75 5.625C2.475 5.625 2.25 5.85 2.25 6.125V9.5C2.25 10.5 2.5 11 3.75 11H8.25C9.5 11 9.75 10.5 9.75 9.5V6.125C9.75 5.85 9.525 5.625 9.25 5.625H2.75ZM6.91 7.875H5.09C4.885 7.875 4.715 7.705 4.715 7.5C4.715 7.295 4.885 7.125 5.09 7.125H6.91C7.115 7.125 7.285 7.295 7.285 7.5C7.285 7.705 7.115 7.875 6.91 7.875Z"
        fill="#2869FE" />
</svg>
