<svg width="32" height="32" viewBox="0 0 32 32" fill="none" xmlns="http://www.w3.org/2000/svg">
    <path
        d="M15.9374 2.6665C8.62002 2.6665 2.66669 8.64784 2.66669 15.9998C2.66669 23.3518 8.64802 29.3332 16 29.3332C23.352 29.3332 29.3334 23.3518 29.3334 15.9998C29.3334 8.64784 23.324 2.6665 15.9374 2.6665ZM16 26.6665C10.1187 26.6665 5.33335 21.8812 5.33335 15.9998C5.33335 10.1185 10.0894 5.33317 15.9374 5.33317C21.8547 5.33317 26.6667 10.1185 26.6667 15.9998C26.6667 21.8812 21.8814 26.6665 16 26.6665Z"
        fill="white" />
    <path
        d="M14.6667 9.3335H17.3334V18.6668H14.6667V9.3335ZM14.6667 20.0002H17.3334V22.6668H14.6667V20.0002Z"
        fill="white" />
</svg>
