<svg width="327" height="169" viewBox="0 0 327 169" fill="none" xmlns="http://www.w3.org/2000/svg">
<rect width="327" height="169" rx="18" fill="#7C66FF"/>
<mask id="mask0_21_3998" style="mask-type:alpha" maskUnits="userSpaceOnUse" x="0" y="0" width="327" height="169">
<rect width="327" height="169" rx="18" fill="#7C66FF"/>
</mask>
<g mask="url(#mask0_21_3998)">
<circle cx="324" cy="19" r="24" stroke="white" stroke-opacity="0.12" stroke-width="8"/>
<circle cx="324" cy="19" r="42.5" stroke="white" stroke-opacity="0.16" stroke-width="7"/>
</g>
<g filter="url(#filter0_b_21_3998)">
<rect x="34" y="109" width="66" height="36" rx="10" fill="white" fill-opacity="0.16"/>
<path opacity="0.9" d="M47.0177 132V122.2H50.2587C50.9354 122.2 51.5701 122.328 52.1627 122.585C52.7554 122.837 53.2757 123.189 53.7237 123.642C54.1717 124.09 54.5217 124.61 54.7737 125.203C55.0304 125.791 55.1587 126.423 55.1587 127.1C55.1587 127.777 55.0304 128.411 54.7737 129.004C54.5217 129.592 54.1717 130.112 53.7237 130.565C53.2757 131.013 52.7554 131.365 52.1627 131.622C51.5701 131.874 50.9354 132 50.2587 132H47.0177ZM48.1937 130.824H50.2587C50.7721 130.824 51.2527 130.728 51.7007 130.537C52.1534 130.341 52.5501 130.073 52.8907 129.732C53.2314 129.391 53.4974 128.997 53.6887 128.549C53.8847 128.096 53.9827 127.613 53.9827 127.1C53.9827 126.587 53.8847 126.106 53.6887 125.658C53.4974 125.205 53.2291 124.809 52.8837 124.468C52.5431 124.127 52.1487 123.861 51.7007 123.67C51.2527 123.474 50.7721 123.376 50.2587 123.376H48.1937V130.824ZM59.3809 132.182C58.7369 132.182 58.1489 132.016 57.6169 131.685C57.0896 131.354 56.6673 130.91 56.3499 130.355C56.0373 129.795 55.8809 129.177 55.8809 128.5C55.8809 127.987 55.9719 127.508 56.1539 127.065C56.3359 126.617 56.5856 126.225 56.9029 125.889C57.2249 125.548 57.5983 125.282 58.0229 125.091C58.4476 124.9 58.9003 124.804 59.3809 124.804C59.9083 124.804 60.3913 124.911 60.8299 125.126C61.2733 125.336 61.6513 125.63 61.9639 126.008C62.2813 126.386 62.5169 126.825 62.6709 127.324C62.8296 127.823 62.8879 128.358 62.8459 128.927H57.1339C57.1899 129.324 57.3206 129.678 57.5259 129.991C57.7313 130.299 57.9926 130.544 58.3099 130.726C58.6319 130.908 58.9889 131.001 59.3809 131.006C59.8009 131.006 60.1813 130.899 60.5219 130.684C60.8626 130.465 61.1379 130.166 61.3479 129.788L62.5449 130.068C62.2649 130.689 61.8426 131.197 61.2779 131.594C60.7133 131.986 60.0809 132.182 59.3809 132.182ZM57.0989 128.003H61.6629C61.6256 127.611 61.4996 127.254 61.2849 126.932C61.0703 126.605 60.7973 126.344 60.4659 126.148C60.1346 125.952 59.7729 125.854 59.3809 125.854C58.9889 125.854 58.6296 125.95 58.3029 126.141C57.9763 126.332 57.7056 126.591 57.4909 126.918C57.2809 127.24 57.1503 127.602 57.0989 128.003ZM66.1879 132.133C65.8099 132.119 65.4412 132.049 65.0819 131.923C64.7272 131.792 64.4146 131.617 64.1439 131.398C63.8779 131.174 63.6842 130.917 63.5629 130.628L64.5709 130.194C64.6409 130.353 64.7669 130.502 64.9489 130.642C65.1309 130.782 65.3409 130.894 65.5789 130.978C65.8169 131.062 66.0572 131.104 66.2999 131.104C66.5566 131.104 66.7969 131.064 67.0209 130.985C67.2449 130.906 67.4269 130.789 67.5669 130.635C67.7116 130.476 67.7839 130.287 67.7839 130.068C67.7839 129.835 67.7046 129.653 67.5459 129.522C67.3919 129.387 67.1959 129.282 66.9579 129.207C66.7246 129.128 66.4866 129.053 66.2439 128.983C65.7632 128.862 65.3339 128.717 64.9559 128.549C64.5779 128.376 64.2792 128.159 64.0599 127.898C63.8452 127.632 63.7379 127.294 63.7379 126.883C63.7379 126.449 63.8569 126.073 64.0949 125.756C64.3376 125.439 64.6549 125.194 65.0469 125.021C65.4389 124.848 65.8589 124.762 66.3069 124.762C66.8716 124.762 67.3872 124.883 67.8539 125.126C68.3206 125.369 68.6682 125.698 68.8969 126.113L67.9519 126.666C67.8726 126.498 67.7512 126.351 67.5879 126.225C67.4246 126.094 67.2379 125.992 67.0279 125.917C66.8179 125.842 66.6032 125.803 66.3839 125.798C66.1132 125.789 65.8589 125.824 65.6209 125.903C65.3876 125.982 65.1986 126.104 65.0539 126.267C64.9139 126.426 64.8439 126.624 64.8439 126.862C64.8439 127.095 64.9186 127.273 65.0679 127.394C65.2219 127.515 65.4202 127.613 65.6629 127.688C65.9102 127.758 66.1786 127.84 66.4679 127.933C66.8926 128.068 67.2892 128.225 67.6579 128.402C68.0266 128.579 68.3229 128.801 68.5469 129.067C68.7756 129.333 68.8876 129.662 68.8829 130.054C68.8829 130.483 68.7546 130.859 68.4979 131.181C68.2412 131.498 67.9076 131.741 67.4969 131.909C67.0909 132.077 66.6546 132.152 66.1879 132.133ZM69.9865 125H71.1625V132H69.9865V125ZM70.5885 123.859C70.4018 123.859 70.2455 123.798 70.1195 123.677C69.9935 123.556 69.9305 123.404 69.9305 123.222C69.9305 123.04 69.9935 122.888 70.1195 122.767C70.2455 122.646 70.3995 122.585 70.5815 122.585C70.7635 122.585 70.9175 122.646 71.0435 122.767C71.1695 122.888 71.2325 123.04 71.2325 123.222C71.2325 123.404 71.1695 123.556 71.0435 123.677C70.9222 123.798 70.7705 123.859 70.5885 123.859ZM78.2152 125H79.3912V132.224C79.3912 132.686 79.2909 133.115 79.0902 133.512C78.8942 133.913 78.6282 134.261 78.2922 134.555C77.9562 134.854 77.5735 135.085 77.1442 135.248C76.7149 135.416 76.2669 135.5 75.8002 135.5C75.3149 135.5 74.8459 135.39 74.3932 135.171C73.9405 134.956 73.5439 134.667 73.2032 134.303C72.8672 133.944 72.6245 133.54 72.4752 133.092L73.5532 132.602C73.6419 132.924 73.8005 133.213 74.0292 133.47C74.2625 133.731 74.5332 133.937 74.8412 134.086C75.1539 134.24 75.4735 134.317 75.8002 134.317C76.1082 134.317 76.4045 134.263 76.6892 134.156C76.9785 134.049 77.2375 133.899 77.4662 133.708C77.6995 133.521 77.8815 133.3 78.0122 133.043C78.1475 132.791 78.2152 132.518 78.2152 132.224V130.831C77.9772 131.232 77.6622 131.559 77.2702 131.811C76.8829 132.058 76.4302 132.182 75.9122 132.182C75.4175 132.182 74.9532 132.086 74.5192 131.895C74.0852 131.704 73.7049 131.44 73.3782 131.104C73.0515 130.763 72.7949 130.371 72.6082 129.928C72.4215 129.485 72.3282 129.009 72.3282 128.5C72.3282 127.991 72.4215 127.515 72.6082 127.072C72.7949 126.624 73.0515 126.232 73.3782 125.896C73.7049 125.555 74.0852 125.289 74.5192 125.098C74.9532 124.907 75.4175 124.811 75.9122 124.811C76.4302 124.811 76.8829 124.935 77.2702 125.182C77.6622 125.429 77.9772 125.756 78.2152 126.162V125ZM75.9192 131.041C76.3719 131.041 76.7639 130.924 77.0952 130.691C77.4312 130.458 77.6902 130.147 77.8722 129.76C78.0542 129.373 78.1452 128.953 78.1452 128.5C78.1452 128.033 78.0519 127.609 77.8652 127.226C77.6832 126.839 77.4242 126.531 77.0882 126.302C76.7569 126.069 76.3672 125.952 75.9192 125.952C75.4805 125.952 75.0792 126.066 74.7152 126.295C74.3512 126.524 74.0619 126.832 73.8472 127.219C73.6372 127.602 73.5322 128.029 73.5322 128.5C73.5322 128.971 73.6395 129.401 73.8542 129.788C74.0735 130.171 74.3629 130.476 74.7222 130.705C75.0862 130.929 75.4852 131.041 75.9192 131.041ZM87.2624 127.646V132H86.0864V127.905C86.0864 127.55 86 127.228 85.8274 126.939C85.6547 126.65 85.4237 126.421 85.1344 126.253C84.845 126.08 84.523 125.994 84.1684 125.994C83.8184 125.994 83.4964 126.08 83.2024 126.253C82.913 126.421 82.682 126.65 82.5094 126.939C82.3367 127.228 82.2504 127.55 82.2504 127.905V132H81.0744V125H82.2504V125.875C82.4977 125.548 82.8104 125.289 83.1884 125.098C83.5664 124.902 83.977 124.804 84.4204 124.804C84.943 124.804 85.419 124.932 85.8484 125.189C86.2824 125.441 86.6254 125.782 86.8774 126.211C87.134 126.64 87.2624 127.119 87.2624 127.646Z" fill="white"/>
</g>
<g filter="url(#filter1_b_21_3998)">
<rect x="120" y="109" width="78" height="36" rx="10" fill="white" fill-opacity="0.16"/>
<path opacity="0.9" d="M132.872 132V122.2H138.619V123.376H134.048V126.162H137.947V127.338H134.048V132H132.872ZM139.086 129.34V125H140.262V129.081C140.262 129.436 140.349 129.758 140.521 130.047C140.694 130.336 140.925 130.567 141.214 130.74C141.508 130.908 141.83 130.992 142.18 130.992C142.535 130.992 142.855 130.908 143.139 130.74C143.429 130.567 143.66 130.336 143.832 130.047C144.005 129.758 144.091 129.436 144.091 129.081V125H145.267L145.274 132H144.098L144.091 131.111C143.844 131.438 143.531 131.699 143.153 131.895C142.775 132.086 142.367 132.182 141.928 132.182C141.406 132.182 140.927 132.056 140.493 131.804C140.064 131.547 139.721 131.204 139.464 130.775C139.212 130.346 139.086 129.867 139.086 129.34ZM146.763 132V121.5H147.939V132H146.763ZM149.62 132V121.5H150.796V132H149.62ZM163.254 122.2V123.376H159.992V132H158.816V123.376H155.561V122.2H163.254ZM163.866 125H165.042V132H163.866V125ZM164.468 123.859C164.282 123.859 164.125 123.798 163.999 123.677C163.873 123.556 163.81 123.404 163.81 123.222C163.81 123.04 163.873 122.888 163.999 122.767C164.125 122.646 164.279 122.585 164.461 122.585C164.643 122.585 164.797 122.646 164.923 122.767C165.049 122.888 165.112 123.04 165.112 123.222C165.112 123.404 165.049 123.556 164.923 123.677C164.802 123.798 164.65 123.859 164.468 123.859ZM166.683 132V125H167.859V125.875C168.106 125.548 168.416 125.289 168.79 125.098C169.168 124.902 169.578 124.804 170.022 124.804C170.54 124.804 171.013 124.93 171.443 125.182C171.872 125.434 172.21 125.768 172.458 126.183C172.705 125.768 173.041 125.434 173.466 125.182C173.895 124.93 174.366 124.804 174.88 124.804C175.407 124.804 175.885 124.932 176.315 125.189C176.744 125.441 177.085 125.782 177.337 126.211C177.593 126.64 177.722 127.119 177.722 127.646V132H176.546V127.926C176.546 127.581 176.462 127.261 176.294 126.967C176.126 126.673 175.899 126.437 175.615 126.26C175.33 126.083 175.015 125.994 174.67 125.994C174.324 125.994 174.009 126.078 173.725 126.246C173.44 126.409 173.214 126.638 173.046 126.932C172.878 127.221 172.794 127.553 172.794 127.926V132H171.618V127.926C171.618 127.553 171.534 127.221 171.366 126.932C171.198 126.638 170.969 126.409 170.68 126.246C170.395 126.078 170.08 125.994 169.735 125.994C169.394 125.994 169.079 126.083 168.79 126.26C168.505 126.437 168.279 126.673 168.111 126.967C167.943 127.261 167.859 127.581 167.859 127.926V132H166.683ZM182.067 132.182C181.423 132.182 180.835 132.016 180.303 131.685C179.776 131.354 179.354 130.91 179.036 130.355C178.724 129.795 178.567 129.177 178.567 128.5C178.567 127.987 178.658 127.508 178.84 127.065C179.022 126.617 179.272 126.225 179.589 125.889C179.911 125.548 180.285 125.282 180.709 125.091C181.134 124.9 181.587 124.804 182.067 124.804C182.595 124.804 183.078 124.911 183.516 125.126C183.96 125.336 184.338 125.63 184.65 126.008C184.968 126.386 185.203 126.825 185.357 127.324C185.516 127.823 185.574 128.358 185.532 128.927H179.82C179.876 129.324 180.007 129.678 180.212 129.991C180.418 130.299 180.679 130.544 180.996 130.726C181.318 130.908 181.675 131.001 182.067 131.006C182.487 131.006 182.868 130.899 183.208 130.684C183.549 130.465 183.824 130.166 184.034 129.788L185.231 130.068C184.951 130.689 184.529 131.197 183.964 131.594C183.4 131.986 182.767 132.182 182.067 132.182ZM179.785 128.003H184.349C184.312 127.611 184.186 127.254 183.971 126.932C183.757 126.605 183.484 126.344 183.152 126.148C182.821 125.952 182.459 125.854 182.067 125.854C181.675 125.854 181.316 125.95 180.989 126.141C180.663 126.332 180.392 126.591 180.177 126.918C179.967 127.24 179.837 127.602 179.785 128.003Z" fill="white"/>
</g>
<g filter="url(#filter2_b_21_3998)">
<rect x="218" y="109" width="76" height="36" rx="10" fill="white" fill-opacity="0.16"/>
<path opacity="0.9" d="M231.155 132V122.2H232.331V132H231.155ZM240.415 127.646V132H239.239V127.905C239.239 127.55 239.152 127.228 238.98 126.939C238.807 126.65 238.576 126.421 238.287 126.253C237.997 126.08 237.675 125.994 237.321 125.994C236.971 125.994 236.649 126.08 236.355 126.253C236.065 126.421 235.834 126.65 235.662 126.939C235.489 127.228 235.403 127.55 235.403 127.905V132H234.227V125H235.403V125.875C235.65 125.548 235.963 125.289 236.341 125.098C236.719 124.902 237.129 124.804 237.573 124.804C238.095 124.804 238.571 124.932 239.001 125.189C239.435 125.441 239.778 125.782 240.03 126.211C240.286 126.64 240.415 127.119 240.415 127.646ZM251.205 122.2H252.381V132H251.205V127.338H246.354V132H245.178V122.2H246.354V126.162H251.205V122.2ZM257.076 132.182C256.432 132.182 255.844 132.016 255.312 131.685C254.785 131.354 254.363 130.91 254.045 130.355C253.733 129.795 253.576 129.177 253.576 128.5C253.576 127.987 253.667 127.508 253.849 127.065C254.031 126.617 254.281 126.225 254.598 125.889C254.92 125.548 255.294 125.282 255.718 125.091C256.143 124.9 256.596 124.804 257.076 124.804C257.72 124.804 258.306 124.97 258.833 125.301C259.365 125.632 259.788 126.078 260.1 126.638C260.418 127.198 260.576 127.819 260.576 128.5C260.576 129.009 260.485 129.485 260.303 129.928C260.121 130.371 259.869 130.763 259.547 131.104C259.23 131.44 258.859 131.704 258.434 131.895C258.014 132.086 257.562 132.182 257.076 132.182ZM257.076 131.006C257.515 131.006 257.909 130.892 258.259 130.663C258.614 130.43 258.892 130.124 259.092 129.746C259.298 129.363 259.4 128.948 259.4 128.5C259.4 128.043 259.295 127.623 259.085 127.24C258.88 126.857 258.602 126.552 258.252 126.323C257.902 126.094 257.51 125.98 257.076 125.98C256.638 125.98 256.243 126.097 255.893 126.33C255.543 126.559 255.266 126.864 255.06 127.247C254.855 127.63 254.752 128.047 254.752 128.5C254.752 128.967 254.857 129.391 255.067 129.774C255.277 130.152 255.56 130.453 255.914 130.677C256.269 130.896 256.656 131.006 257.076 131.006ZM261.359 129.34V125H262.535V129.081C262.535 129.436 262.621 129.758 262.794 130.047C262.966 130.336 263.197 130.567 263.487 130.74C263.781 130.908 264.103 130.992 264.453 130.992C264.807 130.992 265.127 130.908 265.412 130.74C265.701 130.567 265.932 130.336 266.105 130.047C266.277 129.758 266.364 129.436 266.364 129.081V125H267.54L267.547 132H266.371L266.364 131.111C266.116 131.438 265.804 131.699 265.426 131.895C265.048 132.086 264.639 132.182 264.201 132.182C263.678 132.182 263.2 132.056 262.766 131.804C262.336 131.547 261.993 131.204 261.737 130.775C261.485 130.346 261.359 129.867 261.359 129.34ZM271.088 132.133C270.71 132.119 270.342 132.049 269.982 131.923C269.628 131.792 269.315 131.617 269.044 131.398C268.778 131.174 268.585 130.917 268.463 130.628L269.471 130.194C269.541 130.353 269.667 130.502 269.849 130.642C270.031 130.782 270.241 130.894 270.479 130.978C270.717 131.062 270.958 131.104 271.2 131.104C271.457 131.104 271.697 131.064 271.921 130.985C272.145 130.906 272.327 130.789 272.467 130.635C272.612 130.476 272.684 130.287 272.684 130.068C272.684 129.835 272.605 129.653 272.446 129.522C272.292 129.387 272.096 129.282 271.858 129.207C271.625 129.128 271.387 129.053 271.144 128.983C270.664 128.862 270.234 128.717 269.856 128.549C269.478 128.376 269.18 128.159 268.96 127.898C268.746 127.632 268.638 127.294 268.638 126.883C268.638 126.449 268.757 126.073 268.995 125.756C269.238 125.439 269.555 125.194 269.947 125.021C270.339 124.848 270.759 124.762 271.207 124.762C271.772 124.762 272.288 124.883 272.754 125.126C273.221 125.369 273.569 125.698 273.797 126.113L272.852 126.666C272.773 126.498 272.652 126.351 272.488 126.225C272.325 126.094 272.138 125.992 271.928 125.917C271.718 125.842 271.504 125.803 271.284 125.798C271.014 125.789 270.759 125.824 270.521 125.903C270.288 125.982 270.099 126.104 269.954 126.267C269.814 126.426 269.744 126.624 269.744 126.862C269.744 127.095 269.819 127.273 269.968 127.394C270.122 127.515 270.321 127.613 270.563 127.688C270.811 127.758 271.079 127.84 271.368 127.933C271.793 128.068 272.19 128.225 272.558 128.402C272.927 128.579 273.223 128.801 273.447 129.067C273.676 129.333 273.788 129.662 273.783 130.054C273.783 130.483 273.655 130.859 273.398 131.181C273.142 131.498 272.808 131.741 272.397 131.909C271.991 132.077 271.555 132.152 271.088 132.133ZM277.994 132.182C277.35 132.182 276.762 132.016 276.23 131.685C275.703 131.354 275.281 130.91 274.963 130.355C274.651 129.795 274.494 129.177 274.494 128.5C274.494 127.987 274.585 127.508 274.767 127.065C274.949 126.617 275.199 126.225 275.516 125.889C275.838 125.548 276.212 125.282 276.636 125.091C277.061 124.9 277.514 124.804 277.994 124.804C278.522 124.804 279.005 124.911 279.443 125.126C279.887 125.336 280.265 125.63 280.577 126.008C280.895 126.386 281.13 126.825 281.284 127.324C281.443 127.823 281.501 128.358 281.459 128.927H275.747C275.803 129.324 275.934 129.678 276.139 129.991C276.345 130.299 276.606 130.544 276.923 130.726C277.245 130.908 277.602 131.001 277.994 131.006C278.414 131.006 278.795 130.899 279.135 130.684C279.476 130.465 279.751 130.166 279.961 129.788L281.158 130.068C280.878 130.689 280.456 131.197 279.891 131.594C279.327 131.986 278.694 132.182 277.994 132.182ZM275.712 128.003H280.276C280.239 127.611 280.113 127.254 279.898 126.932C279.684 126.605 279.411 126.344 279.079 126.148C278.748 125.952 278.386 125.854 277.994 125.854C277.602 125.854 277.243 125.95 276.916 126.141C276.59 126.332 276.319 126.591 276.104 126.918C275.894 127.24 275.764 127.602 275.712 128.003Z" fill="white"/>
</g>
<path d="M108.028 66.9293C107.416 64.2343 105.065 63.021 103 63.021C103 63.021 103 63.021 102.994 63.021C100.935 63.021 98.5781 64.2285 97.9656 66.9235C97.2831 69.9335 99.1265 72.4827 100.795 74.0868C101.413 74.6818 102.206 74.9793 103 74.9793C103.793 74.9793 104.586 74.6818 105.199 74.0868C106.867 72.4827 108.711 69.9393 108.028 66.9293ZM103 69.8518C101.985 69.8518 101.162 69.0293 101.162 68.0143C101.162 66.9993 101.985 66.1768 103 66.1768C104.015 66.1768 104.837 66.9993 104.837 68.0143C104.837 69.0293 104.015 69.8518 103 69.8518Z" fill="white"/>
<path opacity="0.6" d="M114.84 74V64.2H118.221C118.706 64.2 119.147 64.3003 119.544 64.501C119.945 64.697 120.263 64.984 120.496 65.362C120.729 65.74 120.846 66.1927 120.846 66.72C120.846 67.0047 120.797 67.28 120.699 67.546C120.606 67.8073 120.475 68.0337 120.307 68.225C120.144 68.4117 119.957 68.5377 119.747 68.603C120.041 68.6777 120.291 68.8107 120.496 69.002C120.701 69.1887 120.867 69.408 120.993 69.66C121.124 69.912 121.217 70.1757 121.273 70.451C121.329 70.7263 121.357 70.9923 121.357 71.249C121.357 71.7903 121.233 72.2687 120.986 72.684C120.743 73.0947 120.417 73.4167 120.006 73.65C119.595 73.8833 119.143 74 118.648 74H114.84ZM116.016 72.964H118.543C118.865 72.964 119.157 72.8823 119.418 72.719C119.684 72.551 119.896 72.3223 120.055 72.033C120.214 71.7437 120.293 71.417 120.293 71.053C120.293 70.731 120.214 70.4277 120.055 70.143C119.896 69.8537 119.684 69.6203 119.418 69.443C119.157 69.2657 118.865 69.177 118.543 69.177H116.016V72.964ZM116.016 68.162H118.109C118.538 68.162 118.905 68.036 119.208 67.784C119.516 67.5273 119.67 67.1703 119.67 66.713C119.67 66.2183 119.516 65.8497 119.208 65.607C118.905 65.3597 118.538 65.236 118.109 65.236H116.016V68.162ZM125.535 74.182C124.891 74.182 124.303 74.0163 123.771 73.685C123.244 73.3537 122.822 72.9103 122.504 72.355C122.192 71.795 122.035 71.1767 122.035 70.5C122.035 69.9867 122.126 69.5083 122.308 69.065C122.49 68.617 122.74 68.225 123.057 67.889C123.379 67.5483 123.753 67.2823 124.177 67.091C124.602 66.8997 125.055 66.804 125.535 66.804C126.063 66.804 126.546 66.9113 126.984 67.126C127.428 67.336 127.806 67.63 128.118 68.008C128.436 68.386 128.671 68.8247 128.825 69.324C128.984 69.8233 129.042 70.3577 129 70.927H123.288C123.344 71.3237 123.475 71.6783 123.68 71.991C123.886 72.299 124.147 72.544 124.464 72.726C124.786 72.908 125.143 73.0013 125.535 73.006C125.955 73.006 126.336 72.8987 126.676 72.684C127.017 72.4647 127.292 72.166 127.502 71.788L128.699 72.068C128.419 72.6887 127.997 73.1973 127.432 73.594C126.868 73.986 126.235 74.182 125.535 74.182ZM123.253 70.003H127.817C127.78 69.611 127.654 69.254 127.439 68.932C127.225 68.6053 126.952 68.344 126.62 68.148C126.289 67.952 125.927 67.854 125.535 67.854C125.143 67.854 124.784 67.9497 124.457 68.141C124.131 68.3323 123.86 68.5913 123.645 68.918C123.435 69.24 123.305 69.6017 123.253 70.003ZM130.18 74V67H131.356V67.875C131.603 67.5483 131.916 67.2893 132.294 67.098C132.672 66.902 133.083 66.804 133.526 66.804C133.797 66.804 134.058 66.839 134.31 66.909L133.834 68.085C133.643 68.0243 133.456 67.994 133.274 67.994C132.924 67.994 132.602 68.0803 132.308 68.253C132.019 68.421 131.788 68.6497 131.615 68.939C131.442 69.2283 131.356 69.5503 131.356 69.905V74H130.18ZM135.115 74V63.5H136.291V74H135.115ZM137.973 67H139.149V74H137.973V67ZM138.575 65.859C138.388 65.859 138.232 65.7983 138.106 65.677C137.98 65.5557 137.917 65.404 137.917 65.222C137.917 65.04 137.98 64.8883 138.106 64.767C138.232 64.6457 138.386 64.585 138.568 64.585C138.75 64.585 138.904 64.6457 139.03 64.767C139.156 64.8883 139.219 65.04 139.219 65.222C139.219 65.404 139.156 65.5557 139.03 65.677C138.908 65.7983 138.757 65.859 138.575 65.859ZM146.977 69.646V74H145.801V69.905C145.801 69.5503 145.715 69.2283 145.542 68.939C145.37 68.6497 145.139 68.421 144.849 68.253C144.56 68.0803 144.238 67.994 143.883 67.994C143.533 67.994 143.211 68.0803 142.917 68.253C142.628 68.421 142.397 68.6497 142.224 68.939C142.052 69.2283 141.965 69.5503 141.965 69.905V74H140.789V67H141.965V67.875C142.213 67.5483 142.525 67.2893 142.903 67.098C143.281 66.902 143.692 66.804 144.135 66.804C144.658 66.804 145.134 66.9323 145.563 67.189C145.997 67.441 146.34 67.7817 146.592 68.211C146.849 68.6403 146.977 69.1187 146.977 69.646ZM148.097 74.784L148.531 72.418H149.707L148.881 74.784H148.097ZM159.291 74.182C158.615 74.182 157.982 74.0513 157.394 73.79C156.811 73.524 156.3 73.1577 155.861 72.691C155.427 72.2197 155.087 71.6783 154.839 71.067C154.592 70.451 154.468 69.793 154.468 69.093C154.468 68.3697 154.597 67.7 154.853 67.084C155.115 66.468 155.469 65.9313 155.917 65.474C156.37 65.0167 156.886 64.662 157.464 64.41C158.048 64.1533 158.664 64.025 159.312 64.025C160.05 64.025 160.752 64.1977 161.419 64.543C162.087 64.8883 162.661 65.3877 163.141 66.041L162.091 66.608C161.732 66.1507 161.305 65.8007 160.81 65.558C160.32 65.3153 159.816 65.194 159.298 65.194C158.804 65.194 158.335 65.2943 157.891 65.495C157.453 65.6957 157.063 65.9757 156.722 66.335C156.386 66.6943 156.123 67.1097 155.931 67.581C155.74 68.0523 155.644 68.5633 155.644 69.114C155.644 69.6507 155.74 70.1547 155.931 70.626C156.123 71.0973 156.384 71.5127 156.715 71.872C157.051 72.2267 157.441 72.5043 157.884 72.705C158.328 72.9057 158.801 73.006 159.305 73.006C159.707 73.006 160.087 72.9383 160.446 72.803C160.81 72.6677 161.144 72.4763 161.447 72.229C161.755 71.9817 162.017 71.69 162.231 71.354C162.451 71.018 162.616 70.6493 162.728 70.248H160.313V69.198H164.1C164.096 69.884 163.965 70.528 163.708 71.13C163.456 71.732 163.109 72.2617 162.665 72.719C162.227 73.1763 161.718 73.5357 161.139 73.797C160.565 74.0537 159.949 74.182 159.291 74.182ZM168.451 74.182C167.807 74.182 167.219 74.0163 166.687 73.685C166.16 73.3537 165.738 72.9103 165.42 72.355C165.108 71.795 164.951 71.1767 164.951 70.5C164.951 69.9867 165.042 69.5083 165.224 69.065C165.406 68.617 165.656 68.225 165.973 67.889C166.295 67.5483 166.669 67.2823 167.093 67.091C167.518 66.8997 167.971 66.804 168.451 66.804C168.979 66.804 169.462 66.9113 169.9 67.126C170.344 67.336 170.722 67.63 171.034 68.008C171.352 68.386 171.587 68.8247 171.741 69.324C171.9 69.8233 171.958 70.3577 171.916 70.927H166.204C166.26 71.3237 166.391 71.6783 166.596 71.991C166.802 72.299 167.063 72.544 167.38 72.726C167.702 72.908 168.059 73.0013 168.451 73.006C168.871 73.006 169.252 72.8987 169.592 72.684C169.933 72.4647 170.208 72.166 170.418 71.788L171.615 72.068C171.335 72.6887 170.913 73.1973 170.348 73.594C169.784 73.986 169.151 74.182 168.451 74.182ZM166.169 70.003H170.733C170.696 69.611 170.57 69.254 170.355 68.932C170.141 68.6053 169.868 68.344 169.536 68.148C169.205 67.952 168.843 67.854 168.451 67.854C168.059 67.854 167.7 67.9497 167.373 68.141C167.047 68.3323 166.776 68.5913 166.561 68.918C166.351 69.24 166.221 69.6017 166.169 70.003ZM173.096 74V67H174.272V67.875C174.519 67.5483 174.832 67.2893 175.21 67.098C175.588 66.902 175.999 66.804 176.442 66.804C176.713 66.804 176.974 66.839 177.226 66.909L176.75 68.085C176.559 68.0243 176.372 67.994 176.19 67.994C175.84 67.994 175.518 68.0803 175.224 68.253C174.935 68.421 174.704 68.6497 174.531 68.939C174.358 69.2283 174.272 69.5503 174.272 69.905V74H173.096ZM178.113 74V67H179.289V67.875C179.537 67.5483 179.847 67.2893 180.22 67.098C180.598 66.902 181.009 66.804 181.452 66.804C181.97 66.804 182.444 66.93 182.873 67.182C183.303 67.434 183.641 67.7677 183.888 68.183C184.136 67.7677 184.472 67.434 184.896 67.182C185.326 66.93 185.797 66.804 186.31 66.804C186.838 66.804 187.316 66.9323 187.745 67.189C188.175 67.441 188.515 67.7817 188.767 68.211C189.024 68.6403 189.152 69.1187 189.152 69.646V74H187.976V69.926C187.976 69.5807 187.892 69.261 187.724 68.967C187.556 68.673 187.33 68.4373 187.045 68.26C186.761 68.0827 186.446 67.994 186.1 67.994C185.755 67.994 185.44 68.078 185.155 68.246C184.871 68.4093 184.644 68.638 184.476 68.932C184.308 69.2213 184.224 69.5527 184.224 69.926V74H183.048V69.926C183.048 69.5527 182.964 69.2213 182.796 68.932C182.628 68.638 182.4 68.4093 182.11 68.246C181.826 68.078 181.511 67.994 181.165 67.994C180.825 67.994 180.51 68.0827 180.22 68.26C179.936 68.4373 179.709 68.673 179.541 68.967C179.373 69.261 179.289 69.5807 179.289 69.926V74H178.113ZM196.046 67H197.222V74H196.046L195.997 72.817C195.778 73.223 195.474 73.552 195.087 73.804C194.704 74.056 194.247 74.182 193.715 74.182C193.202 74.182 192.721 74.0863 192.273 73.895C191.825 73.699 191.428 73.4307 191.083 73.09C190.742 72.7447 190.476 72.348 190.285 71.9C190.094 71.452 189.998 70.969 189.998 70.451C189.998 69.9517 190.091 69.4803 190.278 69.037C190.465 68.5937 190.724 68.2063 191.055 67.875C191.391 67.539 191.778 67.2777 192.217 67.091C192.656 66.8997 193.127 66.804 193.631 66.804C194.182 66.804 194.665 66.9347 195.08 67.196C195.495 67.4527 195.831 67.7863 196.088 68.197L196.046 67ZM193.694 73.041C194.156 73.041 194.555 72.929 194.891 72.705C195.232 72.4763 195.493 72.1683 195.675 71.781C195.862 71.3937 195.955 70.9667 195.955 70.5C195.955 70.024 195.862 69.5947 195.675 69.212C195.488 68.8247 195.225 68.519 194.884 68.295C194.548 68.0663 194.151 67.952 193.694 67.952C193.232 67.952 192.812 68.0663 192.434 68.295C192.056 68.5237 191.755 68.8317 191.531 69.219C191.312 69.6017 191.202 70.0287 191.202 70.5C191.202 70.9713 191.316 71.4007 191.545 71.788C191.774 72.1707 192.077 72.4763 192.455 72.705C192.833 72.929 193.246 73.041 193.694 73.041ZM204.809 69.646V74H203.633V69.905C203.633 69.5503 203.547 69.2283 203.374 68.939C203.202 68.6497 202.971 68.421 202.681 68.253C202.392 68.0803 202.07 67.994 201.715 67.994C201.365 67.994 201.043 68.0803 200.749 68.253C200.46 68.421 200.229 68.6497 200.056 68.939C199.884 69.2283 199.797 69.5503 199.797 69.905V74H198.621V67H199.797V67.875C200.045 67.5483 200.357 67.2893 200.735 67.098C201.113 66.902 201.524 66.804 201.967 66.804C202.49 66.804 202.966 66.9323 203.395 67.189C203.829 67.441 204.172 67.7817 204.424 68.211C204.681 68.6403 204.809 69.1187 204.809 69.646ZM210.785 67H212.031L208.202 77.5H206.956L208.223 74L205.71 67H206.998L208.811 72.383L210.785 67Z" fill="white"/>
<path d="M101.674 44.234C100.978 44.234 100.309 44.126 99.6666 43.91C99.0306 43.688 98.4726 43.373 97.9926 42.965C97.5126 42.551 97.1676 42.056 96.9576 41.48L99.0186 40.724C99.1026 40.964 99.2736 41.183 99.5316 41.381C99.7896 41.579 100.105 41.738 100.477 41.858C100.849 41.978 101.248 42.038 101.674 42.038C102.112 42.038 102.52 41.972 102.898 41.84C103.282 41.702 103.591 41.513 103.825 41.273C104.059 41.027 104.176 40.742 104.176 40.418C104.176 40.088 104.053 39.818 103.807 39.608C103.561 39.392 103.246 39.221 102.862 39.095C102.478 38.969 102.082 38.873 101.674 38.807C100.78 38.669 99.9786 38.456 99.2706 38.168C98.5626 37.88 98.0016 37.481 97.5876 36.971C97.1796 36.461 96.9756 35.801 96.9756 34.991C96.9756 34.229 97.1946 33.563 97.6326 32.993C98.0706 32.423 98.6466 31.979 99.3606 31.661C100.075 31.343 100.846 31.184 101.674 31.184C102.364 31.184 103.03 31.292 103.672 31.508C104.314 31.724 104.875 32.039 105.355 32.453C105.841 32.867 106.189 33.365 106.399 33.947L104.329 34.694C104.245 34.454 104.074 34.235 103.816 34.037C103.558 33.839 103.243 33.683 102.871 33.569C102.499 33.449 102.1 33.389 101.674 33.389C101.248 33.383 100.843 33.452 100.459 33.596C100.081 33.734 99.7716 33.923 99.5316 34.163C99.2916 34.403 99.1716 34.679 99.1716 34.991C99.1716 35.393 99.2826 35.696 99.5046 35.9C99.7326 36.104 100.036 36.254 100.414 36.35C100.792 36.44 101.212 36.524 101.674 36.602C102.514 36.734 103.291 36.956 104.005 37.268C104.719 37.58 105.292 37.997 105.724 38.519C106.156 39.035 106.372 39.668 106.372 40.418C106.372 41.18 106.156 41.849 105.724 42.425C105.292 42.995 104.719 43.439 104.005 43.757C103.291 44.075 102.514 44.234 101.674 44.234ZM112.049 44.234C111.221 44.234 110.465 44.021 109.781 43.595C109.103 43.169 108.56 42.596 108.152 41.876C107.75 41.156 107.549 40.361 107.549 39.491C107.549 38.837 107.666 38.225 107.9 37.655C108.134 37.079 108.455 36.575 108.863 36.143C109.277 35.705 109.757 35.363 110.303 35.117C110.849 34.871 111.431 34.748 112.049 34.748C112.751 34.748 113.393 34.898 113.975 35.198C114.563 35.492 115.061 35.897 115.469 36.413C115.877 36.929 116.174 37.517 116.36 38.177C116.546 38.837 116.588 39.527 116.486 40.247H109.907C109.991 40.583 110.129 40.886 110.321 41.156C110.513 41.42 110.756 41.633 111.05 41.795C111.344 41.951 111.677 42.032 112.049 42.038C112.433 42.044 112.781 41.954 113.093 41.768C113.411 41.576 113.675 41.318 113.885 40.994L116.126 41.516C115.76 42.314 115.214 42.968 114.488 43.478C113.762 43.982 112.949 44.234 112.049 44.234ZM109.835 38.6H114.263C114.197 38.24 114.056 37.916 113.84 37.628C113.63 37.334 113.369 37.1 113.057 36.926C112.745 36.752 112.409 36.665 112.049 36.665C111.689 36.665 111.356 36.752 111.05 36.926C110.744 37.094 110.483 37.325 110.267 37.619C110.057 37.907 109.913 38.234 109.835 38.6ZM126.194 38.312V44H123.998V38.888C123.998 38.534 123.911 38.213 123.737 37.925C123.563 37.631 123.329 37.4 123.035 37.232C122.747 37.058 122.426 36.971 122.072 36.971C121.718 36.971 121.394 37.058 121.1 37.232C120.812 37.4 120.581 37.631 120.407 37.925C120.239 38.213 120.155 38.534 120.155 38.888V44H117.959L117.95 35H120.146L120.155 35.801C120.461 35.477 120.827 35.222 121.253 35.036C121.679 34.844 122.138 34.748 122.63 34.748C123.284 34.748 123.881 34.91 124.421 35.234C124.961 35.552 125.39 35.981 125.708 36.521C126.032 37.055 126.194 37.652 126.194 38.312ZM127.987 35H130.183V44H127.987V35ZM129.103 33.839C128.779 33.839 128.506 33.734 128.284 33.524C128.062 33.308 127.951 33.038 127.951 32.714C127.951 32.396 128.062 32.129 128.284 31.913C128.506 31.697 128.776 31.589 129.094 31.589C129.412 31.589 129.679 31.697 129.895 31.913C130.117 32.129 130.228 32.396 130.228 32.714C130.228 33.038 130.12 33.308 129.904 33.524C129.688 33.734 129.421 33.839 129.103 33.839ZM136.096 44.234C135.268 44.234 134.512 44.021 133.828 43.595C133.15 43.169 132.607 42.599 132.199 41.885C131.797 41.165 131.596 40.37 131.596 39.5C131.596 38.84 131.713 38.225 131.947 37.655C132.181 37.079 132.502 36.575 132.91 36.143C133.324 35.705 133.804 35.363 134.35 35.117C134.896 34.871 135.478 34.748 136.096 34.748C136.924 34.748 137.677 34.961 138.355 35.387C139.039 35.813 139.582 36.386 139.984 37.106C140.392 37.826 140.596 38.624 140.596 39.5C140.596 40.154 140.479 40.766 140.245 41.336C140.011 41.906 139.687 42.41 139.273 42.848C138.865 43.28 138.388 43.619 137.842 43.865C137.302 44.111 136.72 44.234 136.096 44.234ZM136.096 42.038C136.534 42.038 136.927 41.921 137.275 41.687C137.623 41.453 137.896 41.144 138.094 40.76C138.298 40.376 138.4 39.956 138.4 39.5C138.4 39.032 138.295 38.606 138.085 38.222C137.881 37.832 137.602 37.523 137.248 37.295C136.9 37.061 136.516 36.944 136.096 36.944C135.664 36.944 135.274 37.061 134.926 37.295C134.578 37.529 134.302 37.841 134.098 38.231C133.894 38.621 133.792 39.044 133.792 39.5C133.792 39.974 133.897 40.403 134.107 40.787C134.317 41.171 134.596 41.477 134.944 41.705C135.298 41.927 135.682 42.038 136.096 42.038ZM142.006 44L141.997 35H144.193L144.202 35.801C144.508 35.477 144.874 35.222 145.3 35.036C145.726 34.844 146.185 34.748 146.677 34.748C147.007 34.748 147.337 34.796 147.667 34.892L146.803 37.106C146.575 37.016 146.347 36.971 146.119 36.971C145.765 36.971 145.441 37.058 145.147 37.232C144.859 37.4 144.628 37.631 144.454 37.925C144.286 38.213 144.202 38.534 144.202 38.888V44H142.006ZM158.296 44.234C157.288 44.234 156.403 43.988 155.641 43.496C154.885 43.004 154.297 42.344 153.877 41.516C153.457 40.682 153.247 39.758 153.247 38.744V31.4H155.443V38.744C155.443 39.344 155.554 39.896 155.776 40.4C156.004 40.898 156.328 41.297 156.748 41.597C157.174 41.891 157.69 42.038 158.296 42.038C158.908 42.038 159.424 41.891 159.844 41.597C160.264 41.297 160.582 40.898 160.798 40.4C161.02 39.896 161.131 39.344 161.131 38.744V31.4H163.327V38.744C163.327 39.506 163.207 40.22 162.967 40.886C162.727 41.546 162.385 42.128 161.941 42.632C161.497 43.136 160.966 43.529 160.348 43.811C159.736 44.093 159.052 44.234 158.296 44.234ZM164.941 44L169.549 37.664L164.995 31.4H167.704L170.908 35.81L174.121 31.4H176.83L172.276 37.664L176.884 44H174.157L170.908 39.536L167.668 44H164.941ZM182.831 44V31.4H187.007C187.877 31.4 188.69 31.565 189.446 31.895C190.208 32.219 190.877 32.672 191.453 33.254C192.035 33.83 192.488 34.499 192.812 35.261C193.142 36.017 193.307 36.83 193.307 37.7C193.307 38.57 193.142 39.386 192.812 40.148C192.488 40.904 192.035 41.573 191.453 42.155C190.877 42.731 190.208 43.184 189.446 43.514C188.69 43.838 187.877 44 187.007 44H182.831ZM185.027 41.804H187.007C187.565 41.804 188.09 41.699 188.582 41.489C189.08 41.273 189.518 40.979 189.896 40.607C190.274 40.229 190.571 39.794 190.787 39.302C191.003 38.804 191.111 38.27 191.111 37.7C191.111 37.13 191.003 36.599 190.787 36.107C190.571 35.615 190.274 35.18 189.896 34.802C189.518 34.424 189.083 34.13 188.591 33.92C188.099 33.704 187.571 33.596 187.007 33.596H185.027V41.804ZM198.603 44.234C197.775 44.234 197.019 44.021 196.335 43.595C195.657 43.169 195.114 42.596 194.706 41.876C194.304 41.156 194.103 40.361 194.103 39.491C194.103 38.837 194.22 38.225 194.454 37.655C194.688 37.079 195.009 36.575 195.417 36.143C195.831 35.705 196.311 35.363 196.857 35.117C197.403 34.871 197.985 34.748 198.603 34.748C199.305 34.748 199.947 34.898 200.529 35.198C201.117 35.492 201.615 35.897 202.023 36.413C202.431 36.929 202.728 37.517 202.914 38.177C203.1 38.837 203.142 39.527 203.04 40.247H196.461C196.545 40.583 196.683 40.886 196.875 41.156C197.067 41.42 197.31 41.633 197.604 41.795C197.898 41.951 198.231 42.032 198.603 42.038C198.987 42.044 199.335 41.954 199.647 41.768C199.965 41.576 200.229 41.318 200.439 40.994L202.68 41.516C202.314 42.314 201.768 42.968 201.042 43.478C200.316 43.982 199.503 44.234 198.603 44.234ZM196.389 38.6H200.817C200.751 38.24 200.61 37.916 200.394 37.628C200.184 37.334 199.923 37.1 199.611 36.926C199.299 36.752 198.963 36.665 198.603 36.665C198.243 36.665 197.91 36.752 197.604 36.926C197.298 37.094 197.037 37.325 196.821 37.619C196.611 37.907 196.467 38.234 196.389 38.6ZM207.23 44.162C206.762 44.132 206.309 44.039 205.871 43.883C205.439 43.721 205.055 43.502 204.719 43.226C204.383 42.95 204.125 42.62 203.945 42.236L205.799 41.444C205.871 41.564 205.988 41.693 206.15 41.831C206.312 41.963 206.504 42.074 206.726 42.164C206.954 42.254 207.203 42.299 207.473 42.299C207.701 42.299 207.917 42.269 208.121 42.209C208.331 42.143 208.499 42.044 208.625 41.912C208.757 41.78 208.823 41.609 208.823 41.399C208.823 41.177 208.745 41.006 208.589 40.886C208.439 40.76 208.247 40.667 208.013 40.607C207.785 40.541 207.563 40.481 207.347 40.427C206.777 40.313 206.246 40.136 205.754 39.896C205.268 39.656 204.875 39.347 204.575 38.969C204.281 38.585 204.134 38.123 204.134 37.583C204.134 36.989 204.29 36.476 204.602 36.044C204.92 35.612 205.331 35.279 205.835 35.045C206.345 34.811 206.894 34.694 207.482 34.694C208.196 34.694 208.85 34.844 209.444 35.144C210.044 35.438 210.518 35.855 210.866 36.395L209.129 37.421C209.045 37.277 208.928 37.145 208.778 37.025C208.628 36.899 208.457 36.797 208.265 36.719C208.073 36.635 207.872 36.587 207.662 36.575C207.392 36.563 207.146 36.587 206.924 36.647C206.702 36.707 206.522 36.809 206.384 36.953C206.252 37.097 206.186 37.289 206.186 37.529C206.186 37.757 206.276 37.928 206.456 38.042C206.636 38.15 206.852 38.234 207.104 38.294C207.362 38.354 207.608 38.42 207.842 38.492C208.37 38.666 208.865 38.879 209.327 39.131C209.795 39.383 210.17 39.692 210.452 40.058C210.734 40.424 210.869 40.862 210.857 41.372C210.857 41.954 210.683 42.464 210.335 42.902C209.987 43.334 209.537 43.664 208.985 43.892C208.439 44.12 207.854 44.21 207.23 44.162ZM212.186 35H214.382V44H212.186V35ZM213.302 33.839C212.978 33.839 212.705 33.734 212.483 33.524C212.261 33.308 212.15 33.038 212.15 32.714C212.15 32.396 212.261 32.129 212.483 31.913C212.705 31.697 212.975 31.589 213.293 31.589C213.611 31.589 213.878 31.697 214.094 31.913C214.316 32.129 214.427 32.396 214.427 32.714C214.427 33.038 214.319 33.308 214.103 33.524C213.887 33.734 213.62 33.839 213.302 33.839ZM223.013 35H225.209V44.171C225.209 44.819 225.077 45.407 224.813 45.935C224.549 46.469 224.189 46.925 223.733 47.303C223.277 47.687 222.755 47.981 222.167 48.185C221.579 48.395 220.961 48.5 220.313 48.5C219.683 48.5 219.077 48.371 218.495 48.113C217.913 47.855 217.397 47.501 216.947 47.051C216.503 46.607 216.164 46.1 215.93 45.53L217.937 44.621C218.057 44.951 218.237 45.239 218.477 45.485C218.723 45.737 219.005 45.932 219.323 46.07C219.641 46.214 219.971 46.286 220.313 46.286C220.661 46.286 220.994 46.238 221.312 46.142C221.636 46.046 221.927 45.905 222.185 45.719C222.443 45.539 222.644 45.317 222.788 45.053C222.938 44.795 223.013 44.501 223.013 44.171V42.902C222.731 43.298 222.377 43.619 221.951 43.865C221.525 44.111 221.033 44.234 220.475 44.234C219.827 44.234 219.221 44.111 218.657 43.865C218.093 43.619 217.595 43.28 217.163 42.848C216.737 42.41 216.401 41.906 216.155 41.336C215.915 40.766 215.795 40.154 215.795 39.5C215.795 38.846 215.915 38.234 216.155 37.664C216.401 37.094 216.737 36.593 217.163 36.161C217.595 35.723 218.093 35.381 218.657 35.135C219.221 34.889 219.827 34.766 220.475 34.766C221.033 34.766 221.525 34.889 221.951 35.135C222.377 35.375 222.731 35.693 223.013 36.089V35ZM220.502 42.119C220.964 42.119 221.372 42.002 221.726 41.768C222.086 41.528 222.368 41.21 222.572 40.814C222.776 40.412 222.878 39.974 222.878 39.5C222.878 39.02 222.773 38.582 222.563 38.186C222.359 37.79 222.077 37.472 221.717 37.232C221.363 36.992 220.958 36.872 220.502 36.872C220.052 36.872 219.641 36.992 219.269 37.232C218.897 37.466 218.6 37.781 218.378 38.177C218.156 38.573 218.045 39.014 218.045 39.5C218.045 39.986 218.156 40.427 218.378 40.823C218.6 41.219 218.897 41.534 219.269 41.768C219.641 42.002 220.052 42.119 220.502 42.119ZM235.618 38.312V44H233.422V38.888C233.422 38.534 233.335 38.213 233.161 37.925C232.987 37.631 232.753 37.4 232.459 37.232C232.171 37.058 231.85 36.971 231.496 36.971C231.142 36.971 230.818 37.058 230.524 37.232C230.236 37.4 230.005 37.631 229.831 37.925C229.663 38.213 229.579 38.534 229.579 38.888V44H227.383L227.374 35H229.57L229.579 35.801C229.885 35.477 230.251 35.222 230.677 35.036C231.103 34.844 231.562 34.748 232.054 34.748C232.708 34.748 233.305 34.91 233.845 35.234C234.385 35.552 234.814 35.981 235.132 36.521C235.456 37.055 235.618 37.652 235.618 38.312ZM241.195 44.234C240.367 44.234 239.611 44.021 238.927 43.595C238.249 43.169 237.706 42.596 237.298 41.876C236.896 41.156 236.695 40.361 236.695 39.491C236.695 38.837 236.812 38.225 237.046 37.655C237.28 37.079 237.601 36.575 238.009 36.143C238.423 35.705 238.903 35.363 239.449 35.117C239.995 34.871 240.577 34.748 241.195 34.748C241.897 34.748 242.539 34.898 243.121 35.198C243.709 35.492 244.207 35.897 244.615 36.413C245.023 36.929 245.32 37.517 245.506 38.177C245.692 38.837 245.734 39.527 245.632 40.247H239.053C239.137 40.583 239.275 40.886 239.467 41.156C239.659 41.42 239.902 41.633 240.196 41.795C240.49 41.951 240.823 42.032 241.195 42.038C241.579 42.044 241.927 41.954 242.239 41.768C242.557 41.576 242.821 41.318 243.031 40.994L245.272 41.516C244.906 42.314 244.36 42.968 243.634 43.478C242.908 43.982 242.095 44.234 241.195 44.234ZM238.981 38.6H243.409C243.343 38.24 243.202 37.916 242.986 37.628C242.776 37.334 242.515 37.1 242.203 36.926C241.891 36.752 241.555 36.665 241.195 36.665C240.835 36.665 240.502 36.752 240.196 36.926C239.89 37.094 239.629 37.325 239.413 37.619C239.203 37.907 239.059 38.234 238.981 38.6ZM247.106 44L247.097 35H249.293L249.302 35.801C249.608 35.477 249.974 35.222 250.4 35.036C250.826 34.844 251.285 34.748 251.777 34.748C252.107 34.748 252.437 34.796 252.767 34.892L251.903 37.106C251.675 37.016 251.447 36.971 251.219 36.971C250.865 36.971 250.541 37.058 250.247 37.232C249.959 37.4 249.728 37.631 249.554 37.925C249.386 38.213 249.302 38.534 249.302 38.888V44H247.106Z" fill="white"/>
<g filter="url(#filter3_b_21_3998)">
<rect x="24" y="24" width="60" height="60" rx="12" fill="#1A1528" fill-opacity="0.32"/>
<rect x="23.5" y="23.5" width="61" height="61" rx="12.5" stroke="url(#paint0_linear_21_3998)"/>
</g>
<path d="M69.7513 54.3499C69.7513 53.0549 69.6441 52.1099 69.412 51.1299H54.3228V56.9748H63.1798C63.0013 58.4274 62.037 60.6149 59.8941 62.0848L59.8641 62.2805L64.635 65.9025L64.9656 65.9349C68.0012 63.1873 69.7513 59.1448 69.7513 54.3499Z" fill="#4285F4"/>
<path d="M54.322 69.7499C58.6612 69.7499 62.304 68.3498 64.9648 65.9348L59.8933 62.0847C58.5362 63.0122 56.7148 63.6597 54.322 63.6597C50.072 63.6597 46.4649 60.9123 45.1791 57.1147L44.9906 57.1304L40.0297 60.893L39.9648 61.0697C42.6077 66.2147 48.0362 69.7499 54.322 69.7499Z" fill="#34A853"/>
<path d="M45.18 57.1152C44.8407 56.1352 44.6443 55.0851 44.6443 54.0002C44.6443 52.9151 44.8407 51.8652 45.1621 50.8852L45.1531 50.6765L40.1301 46.8535L39.9657 46.9301C38.8765 49.0652 38.2515 51.4627 38.2515 54.0002C38.2515 56.5377 38.8765 58.9351 39.9657 61.0701L45.18 57.1152Z" fill="#FBBC05"/>
<path d="M54.3221 44.34C57.3399 44.34 59.3755 45.6175 60.5363 46.685L65.072 42.345C62.2864 39.8075 58.6613 38.25 54.3221 38.25C48.0363 38.25 42.6077 41.785 39.9648 46.9299L45.1613 50.885C46.465 47.0875 50.0721 44.34 54.3221 44.34Z" fill="#EB4335"/>
<defs>
<filter id="filter0_b_21_3998" x="8" y="83" width="118" height="88" filterUnits="userSpaceOnUse" color-interpolation-filters="sRGB">
<feFlood flood-opacity="0" result="BackgroundImageFix"/>
<feGaussianBlur in="BackgroundImageFix" stdDeviation="13"/>
<feComposite in2="SourceAlpha" operator="in" result="effect1_backgroundBlur_21_3998"/>
<feBlend mode="normal" in="SourceGraphic" in2="effect1_backgroundBlur_21_3998" result="shape"/>
</filter>
<filter id="filter1_b_21_3998" x="94" y="83" width="130" height="88" filterUnits="userSpaceOnUse" color-interpolation-filters="sRGB">
<feFlood flood-opacity="0" result="BackgroundImageFix"/>
<feGaussianBlur in="BackgroundImageFix" stdDeviation="13"/>
<feComposite in2="SourceAlpha" operator="in" result="effect1_backgroundBlur_21_3998"/>
<feBlend mode="normal" in="SourceGraphic" in2="effect1_backgroundBlur_21_3998" result="shape"/>
</filter>
<filter id="filter2_b_21_3998" x="192" y="83" width="128" height="88" filterUnits="userSpaceOnUse" color-interpolation-filters="sRGB">
<feFlood flood-opacity="0" result="BackgroundImageFix"/>
<feGaussianBlur in="BackgroundImageFix" stdDeviation="13"/>
<feComposite in2="SourceAlpha" operator="in" result="effect1_backgroundBlur_21_3998"/>
<feBlend mode="normal" in="SourceGraphic" in2="effect1_backgroundBlur_21_3998" result="shape"/>
</filter>
<filter id="filter3_b_21_3998" x="-3.77419" y="-3.77419" width="115.548" height="115.548" filterUnits="userSpaceOnUse" color-interpolation-filters="sRGB">
<feFlood flood-opacity="0" result="BackgroundImageFix"/>
<feGaussianBlur in="BackgroundImageFix" stdDeviation="13.3871"/>
<feComposite in2="SourceAlpha" operator="in" result="effect1_backgroundBlur_21_3998"/>
<feBlend mode="normal" in="SourceGraphic" in2="effect1_backgroundBlur_21_3998" result="shape"/>
</filter>
<linearGradient id="paint0_linear_21_3998" x1="54" y1="24" x2="54" y2="84" gradientUnits="userSpaceOnUse">
<stop stop-color="white"/>
<stop offset="1" stop-color="white" stop-opacity="0"/>
</linearGradient>
</defs>
</svg>
