<svg width="311" height="311" viewBox="0 0 311 311" fill="none" xmlns="http://www.w3.org/2000/svg">
    <rect width="311" height="311" rx="30" fill="#7C66FF" />
    <g clip-path="url(#clip0_83_12106)">
        <rect x="20" y="20" width="271" height="271" fill="white" />
        <path
            d="M255.564 66.8132C256.818 66.6363 258.12 66.6323 259.374 66.8368C259.921 67.348 259.976 68.1266 259.343 68.5946C258.203 68.9328 256.976 68.8227 255.808 68.7244C254.884 68.6221 254.738 67.1868 255.564 66.8132Z"
            fill="#7A92C8" />
        <path
            d="M201.502 66.8916C202.013 66.7815 202.532 66.7264 203.059 66.7225C218.411 66.7579 233.759 66.7304 249.111 66.7382C250.538 66.7658 251.986 66.6045 253.401 66.8719C253.967 67.2927 253.857 68.1185 253.472 68.6258C251.82 68.9246 250.126 68.728 248.458 68.7595C249.378 70.7925 249.268 73.0536 249.19 75.2243C249.158 77.5877 247.157 79.7466 244.785 79.8921C242.497 80.0926 240.2 79.9511 237.908 79.955C238.529 81.1622 238.977 82.4756 238.922 83.852C238.891 85.653 239.091 87.6585 237.998 89.2158C237.003 90.7376 235.123 91.4376 233.358 91.3746C229.433 91.3746 225.513 91.4022 221.588 91.3628C219.838 91.4022 218.084 90.5488 217.16 89.0427C216.103 87.3911 216.433 85.3306 216.394 83.4705C216.35 82.2279 216.826 81.0718 217.341 79.9668C215.194 79.9393 213.043 80.0651 210.904 79.9039C208.513 79.7938 206.441 77.6467 206.386 75.2597C206.315 73.0812 206.146 70.8004 207.129 68.7791C205.206 68.7831 203.279 68.7949 201.36 68.6926C201.317 68.091 201.049 67.4107 201.502 66.8916ZM208.556 70.879C208.32 72.3065 208.368 73.7693 208.45 75.2125C208.489 76.6754 209.838 77.977 211.329 77.8C215.674 77.7882 220.023 77.8551 224.372 77.7135C226.016 77.6978 226.854 75.8732 226.799 74.4339C226.763 72.9357 227.046 71.1189 226.095 69.8841C225.54 69.546 225.013 69.0819 224.329 69.0662C220.271 68.6061 216.181 68.8971 212.111 68.7988C210.648 68.673 208.95 69.3297 208.556 70.879ZM229.512 69.833C228.376 71.2251 228.879 73.1834 228.812 74.835C228.722 75.9164 229.37 76.8169 230.165 77.4776L230.184 77.6703C234.53 77.9888 238.895 77.7332 243.248 77.8158C244.258 77.7135 245.47 77.8905 246.244 77.0804C247.109 76.3293 247.078 75.0867 247.188 74.0407C247.247 72.511 247.452 70.6667 246.126 69.5774C245.686 69.3651 245.253 69.1055 244.762 69.0859C240.975 68.6415 237.16 68.8892 233.358 68.8027C232.04 68.8224 230.42 68.6612 229.512 69.833ZM218.533 82.6919C218.427 84.1154 218.419 85.5508 218.545 86.9743C218.631 87.9849 219.583 88.559 220.235 89.2079C222.902 89.4242 225.58 89.2669 228.254 89.3219C230.302 89.2944 232.367 89.4438 234.412 89.1843C235.796 88.9837 236.917 87.6585 236.767 86.2429C236.645 84.493 237.302 82.3144 235.851 80.9695C234.113 80.1241 232.099 80.3286 230.224 80.1988C227.329 80.2342 224.435 80.1634 221.545 80.2185C220.114 80.1555 218.662 81.2291 218.533 82.6919Z"
            fill="#7A8FC8" />
        <path
            d="M208.556 70.879C208.949 69.3297 210.648 68.673 212.111 68.7988C216.181 68.8971 220.271 68.6061 224.329 69.0662C225.013 69.0819 225.54 69.546 226.094 69.8842C225.28 69.9038 224.474 69.9628 223.664 69.9982C220.212 70.1555 216.751 69.9549 213.298 70.1083C212.099 70.0965 210.797 70.71 210.459 71.9408C210.074 73.6868 210.266 75.4996 210.223 77.2731C214.38 77.9337 218.607 77.2652 222.787 77.6506C223.314 77.6781 223.841 77.6978 224.372 77.7135C220.023 77.8551 215.674 77.7883 211.328 77.8001C209.838 77.977 208.489 76.6754 208.45 75.2125C208.367 73.7694 208.32 72.3065 208.556 70.879Z"
            fill="#E3D8D8" />
        <path
            d="M229.512 69.833C230.42 68.6612 232.041 68.8224 233.358 68.8027C237.161 68.8892 240.975 68.6415 244.762 69.0859C245.253 69.1055 245.686 69.3651 246.126 69.5774C245.415 69.5656 244.707 69.5735 244.003 69.5853C240.452 69.7111 236.897 69.5735 233.35 69.6325C232.1 69.5813 230.782 70.1869 230.299 71.3981C229.547 73.3368 229.976 75.4681 230.165 77.4776C229.37 76.8169 228.722 75.9164 228.812 74.835C228.879 73.1834 228.376 71.2251 229.512 69.833Z"
            fill="#E4DCE2" />
        <path
            d="M226.094 69.8843C227.046 71.119 226.763 72.9358 226.798 74.434C226.853 75.8733 226.016 77.6979 224.372 77.7137C223.841 77.6979 223.314 77.6783 222.787 77.6507C224.745 75.5902 223.99 72.5229 223.664 69.9983C224.474 69.9629 225.28 69.9039 226.094 69.8843Z"
            fill="#C4AFBB" />
        <path
            d="M233.468 81.0169C234.258 80.9893 235.053 80.9657 235.851 80.9697C237.302 82.3145 236.645 84.4931 236.767 86.243C236.917 87.6587 235.796 88.9839 234.412 89.1844C232.367 89.444 230.302 89.2945 228.253 89.3221C225.579 89.267 222.902 89.4243 220.235 89.208C224.089 88.9328 227.959 89.2395 231.816 89.0153C233.008 89.1176 233.782 87.9968 233.999 86.9548C234.325 84.9689 234.14 82.9123 233.468 81.0169Z"
            fill="#C4AFBB" />
        <path
            d="M80.0497 97.9537C80.8598 97.9341 81.6738 97.9301 82.4878 97.9616C83.3136 98.811 83.1759 100.101 83.2506 101.19C83.2428 102.708 83.3725 104.521 82.0945 105.61C80.9895 106.404 79.5385 106.137 78.2683 106.121L78.6576 105.995C79.2986 105.539 80.0418 105.032 80.1795 104.191C80.6041 102.134 80.3367 100.014 80.0497 97.9537Z"
            fill="#C4AFBB" />
        <path
            d="M230.298 71.3983C230.782 70.1871 232.099 69.5815 233.35 69.6326C236.897 69.5737 240.451 69.7113 244.002 69.5854C244.529 72.3145 244.938 75.3857 243.247 77.8159C238.894 77.7334 234.529 77.989 230.184 77.6704L230.164 77.4778C229.976 75.4683 229.547 73.3369 230.298 71.3983Z"
            fill="#E2BCB9" />
        <path
            d="M210.46 71.9411C210.798 70.7103 212.099 70.0968 213.299 70.1086C216.752 69.9553 220.212 70.1558 223.665 69.9985C223.991 72.5231 224.746 75.5904 222.788 77.651C218.608 77.2656 214.38 77.9341 210.224 77.2735C210.267 75.4999 210.074 73.6871 210.46 71.9411Z"
            fill="#E2BCB9" />
        <path
            d="M220.216 82.94C220.558 81.8586 221.663 81.2294 222.756 81.2019C226.319 80.9306 229.901 81.2452 233.468 81.0171C234.14 82.9125 234.325 84.9691 233.999 86.955C233.782 87.9971 233.008 89.1178 231.816 89.0156C227.958 89.2397 224.089 88.933 220.235 89.2083C219.917 87.1437 219.602 84.9809 220.216 82.94Z"
            fill="#E2BCB9" />
        <path
            d="M66.2508 100.384C66.4828 98.9566 67.985 98.0561 69.3574 98.0915C72.9201 98.06 76.4868 98.1544 80.0496 97.9539C80.3366 100.014 80.604 102.134 80.1793 104.191C80.0417 105.032 79.2985 105.539 78.6575 105.996C74.5914 105.602 70.4821 106.204 66.4356 105.677C65.9048 103.974 65.9913 102.126 66.2508 100.384Z"
            fill="#E2BCB9" />
        <path
            d="M76.6204 111.847C76.7816 110.238 78.3743 108.949 79.9905 109.165C83.4077 109.188 86.8289 109.228 90.2461 109.165C90.6118 111.123 91.0798 113.137 90.7652 115.138C90.5371 116.306 89.5816 117.12 88.6142 117.71C84.6189 117.793 80.6118 117.812 76.6165 117.659L76.6126 117.627C76.6243 115.7 76.4317 113.77 76.6204 111.847Z"
            fill="#E2BCB9" />
        <path
            d="M244.003 69.5855C244.706 69.5737 245.414 69.5658 246.126 69.5776C247.451 70.6669 247.247 72.5112 247.188 74.0409C247.078 75.0869 247.109 76.3295 246.244 77.0806C245.469 77.8907 244.258 77.7137 243.248 77.816C244.938 75.3857 244.53 72.3146 244.003 69.5855Z"
            fill="#C4AFBD" />
        <path
            d="M218.532 82.6918C218.662 81.229 220.113 80.1555 221.544 80.2184C224.435 80.1633 227.329 80.2341 230.223 80.1987C232.099 80.3285 234.112 80.124 235.851 80.9695C235.052 80.9655 234.258 80.9891 233.467 81.0166C229.901 81.2447 226.318 80.9301 222.756 81.2015C221.662 81.229 220.557 81.8582 220.215 82.9396C219.602 84.9805 219.916 87.1433 220.235 89.2078C219.582 88.559 218.631 87.9848 218.544 86.9742C218.418 85.5507 218.426 84.1154 218.532 82.6918Z"
            fill="#E2D9DF" />
        <path
            d="M57.0454 94.7091C57.6235 94.6462 58.2015 94.6147 58.7835 94.6147C68.8111 94.6383 78.8426 94.5833 88.8742 94.6344C88.9056 95.1378 88.9331 95.6372 88.9646 96.1405C88.8663 95.6883 88.764 95.2321 88.6657 94.7799C78.1269 94.6737 67.5842 94.831 57.0454 94.7091Z"
            fill="#0F056B" />
        <path
            d="M155.693 147.1C155.662 146.334 155.732 145.567 155.819 144.808C156.617 145.669 157.164 146.715 157.577 147.808C157.219 148.551 156.857 149.299 156.44 150.014L156.263 150.14C156.299 149.094 156.208 148.036 155.693 147.1Z"
            fill="#0F056B" />
        <path
            d="M110.089 221.34C111.257 222.413 112.244 223.687 112.909 225.139C113.294 226.149 113.487 227.223 113.613 228.3C112.394 227.368 112.98 225.386 111.595 224.545C111.509 225.984 112.17 227.525 111.466 228.878L111.391 228.418C111.206 227.223 111.112 226.015 110.923 224.828C110.671 223.656 110.357 222.504 110.089 221.34Z"
            fill="#0F056B" />
        <path
            d="M93.0229 94.5008C94.824 94.2649 96.6643 94.32 98.4732 94.4497C99.472 94.5834 99.472 96.3569 98.4575 96.4277C96.7626 96.6086 95.0481 96.5732 93.3532 96.4552C92.3072 96.471 92.1145 94.8666 93.0229 94.5008Z"
            fill="#7B91CC" />
        <path
            d="M57.1001 96.5302C56.9664 95.9757 56.4159 95.1224 57.0451 94.7095C67.5839 94.8314 78.1266 94.6741 88.6654 94.7803C88.7637 95.2325 88.8659 95.6886 88.9642 96.1409L89.0272 96.4279C87.4306 96.5459 85.8301 96.5656 84.2297 96.5066C85.5942 98.6222 85.2993 101.178 85.2599 103.565C85.2521 104.544 84.7802 105.425 84.383 106.294C86.593 106.353 88.807 106.243 91.017 106.341C93.5809 106.436 95.7791 108.85 95.6532 111.414C95.606 113.455 96.0583 115.744 94.8432 117.541C93.9623 118.964 92.3028 119.81 90.6434 119.778C86.306 119.782 81.9725 119.79 77.639 119.775C75.8655 119.849 74.1549 118.85 73.2701 117.332C72.3027 115.795 72.6291 113.896 72.5662 112.173C72.4993 110.82 72.8533 109.515 73.392 108.288C71.1348 108.268 68.8698 108.41 66.6126 108.253C64.2453 108.04 62.224 105.885 62.2122 103.498C62.1218 101.143 61.9448 98.6261 63.2189 96.5262C61.178 96.5262 59.1371 96.4908 57.1001 96.5302ZM64.3003 99.5856C64.1863 100.895 64.1587 102.22 64.2728 103.53C64.3711 104.894 65.5744 106.216 67.0019 106.137C70.7534 106.153 74.5127 106.2 78.2682 106.121C79.5383 106.137 80.9894 106.404 82.0944 105.61C83.3724 104.521 83.2426 102.708 83.2505 101.19C83.1758 100.101 83.3134 98.8109 82.4876 97.9616C81.8545 97.529 81.2253 96.9627 80.4034 97.006C76.0817 96.8133 71.7483 96.8959 67.4226 96.9037C65.8851 96.7661 64.3318 98.0127 64.3003 99.5856ZM75.7003 109.078C74.0644 110.419 74.7369 112.739 74.6268 114.568C74.4773 115.952 75.484 117.01 76.6126 117.627L76.6165 117.659C80.6119 117.812 84.619 117.793 88.6143 117.71C89.9473 117.694 91.5321 117.962 92.586 116.939C93.7814 115.984 93.5101 114.312 93.573 112.968C93.4944 111.737 93.7893 110.199 92.7118 109.318C92.1652 108.992 91.6579 108.485 90.9855 108.481C86.9391 108.3 82.8848 108.441 78.8344 108.371C77.7687 108.402 76.5222 108.237 75.7003 109.078Z"
            fill="#7A90CA" />
        <path
            d="M64.3007 99.5856C64.3322 98.0126 65.8855 96.766 67.423 96.9037C71.7487 96.8958 76.0822 96.8132 80.4038 97.0059C81.2257 96.9627 81.8549 97.5289 82.488 97.9615C81.674 97.93 80.86 97.934 80.0499 97.9536C76.4872 98.1542 72.9205 98.0598 69.3578 98.0912C67.9854 98.0559 66.4832 98.9564 66.2512 100.384C65.9916 102.126 65.9051 103.974 66.436 105.677C70.4824 106.204 74.5918 105.602 78.6579 105.995L78.2686 106.121C74.5131 106.2 70.7538 106.153 67.0023 106.137C65.5748 106.216 64.3715 104.894 64.2732 103.53C64.1592 102.22 64.1867 100.895 64.3007 99.5856Z"
            fill="#E0D9DD" />
        <path
            d="M157.569 99.6403C162.642 97.5758 168.552 97.6191 173.538 99.9156C177.4 101.567 180.412 104.568 183.806 106.947C187.018 109.224 190.345 111.445 194.053 112.833C195.052 113.266 196.145 113.294 197.215 113.376C196.613 113.75 195.929 113.915 195.253 114.088C195.937 114.053 196.629 114.037 197.317 114.037C197.899 118.492 198.257 123.203 196.503 127.466C195.587 129.456 195.866 131.674 195.674 133.793C195.438 135.964 195.166 138.131 194.726 140.27C196.842 141.308 198.808 142.849 199.838 145.02C201.615 148.457 201.081 152.96 198.462 155.822C196.845 157.726 194.462 158.815 192.02 159.149C191.332 163.321 189.051 167.246 185.626 169.755C181.438 172.948 176.208 174.438 171.049 175.067C171.041 175.712 171.037 176.361 171.037 177.01C173.471 177.03 175.905 176.986 178.34 177.108C180.723 177.226 183.129 177.049 185.489 177.466L185.548 177.588C185.607 177.718 185.729 177.973 185.788 178.103C186.566 178.394 187.368 178.626 188.167 178.874C187.129 179.173 186.027 179.428 184.981 179.012C182.956 178.312 180.797 178.697 178.705 178.65C176.11 178.697 173.503 178.394 170.923 178.732C170.829 179.373 170.801 180.018 170.746 180.667C170.656 181.072 170.557 181.477 170.447 181.882C169.075 185.327 165.508 187.777 161.772 187.612C158.166 187.663 154.824 185.264 153.408 182C153.113 181.084 152.905 180.148 152.697 179.216C148.477 179.366 144.179 179.078 140.05 180.132C133.79 181.654 128.044 185.37 124.258 190.604C122.614 192.775 121.466 195.252 120.266 197.683C117.104 204.01 113.986 210.353 110.809 216.672C110.974 216.668 111.3 216.656 111.465 216.652C116.751 216.357 122.232 219.739 123.538 225.021C121.737 222.811 119.664 220.73 116.916 219.763C118.347 221.371 119.48 223.267 119.661 225.461C121.501 226.287 122.854 227.895 123.267 229.881C123.573 232.095 122.571 234.152 121.092 235.728C123.168 235.74 125.245 235.748 127.321 235.744C127.455 234.773 127.6 233.802 127.761 232.838C127.384 231.552 127.105 230.243 126.979 228.91C125.913 219.212 124.757 209.523 123.664 199.826C123.518 198.28 123.133 196.731 123.341 195.178C123.561 193.931 124.643 193.113 125.771 192.712L126.169 193.31L125.893 193.294C125.964 193.628 126.031 193.966 126.098 194.305L126.027 194.513C125.689 195.331 125.366 196.184 125.539 197.089C126.77 207.211 127.871 217.352 129.055 227.478C129.201 228.741 129.35 230.007 129.523 231.269C151.131 231.297 172.74 231.301 194.348 231.265C195.748 219.885 196.967 208.481 198.304 197.093C198.285 196.369 198.241 195.65 198.123 194.938L197.758 194.324L197.671 194.195C192.009 194.014 186.334 194.171 180.668 194.124C167.82 194.132 154.973 194.12 142.126 194.124C137.057 194.167 131.985 194.022 126.916 194.206C126.648 193.955 126.385 193.707 126.121 193.455C150.215 193.333 174.309 193.479 198.403 193.381L198.32 193.329L197.766 192.747C199.519 192.885 200.86 194.588 200.585 196.33C199.873 203.424 198.937 210.498 198.198 217.596C199.523 217.6 200.868 217.486 202.19 217.71C203.243 218.28 202.74 219.645 201.702 219.838C200.428 219.806 199.158 219.775 197.888 219.787C197.777 220.915 197.683 222.044 197.565 223.172C197.254 225.469 197.038 227.777 196.779 230.085C196.22 231.942 196.094 233.872 196.535 235.776C200.137 235.689 203.79 236.094 207.357 235.437C211.171 234.564 214.498 231.831 216.098 228.257C217.243 225.905 217.361 223.204 217.105 220.644C217.616 220.435 218.135 220.239 218.651 220.038C218.749 222.056 218.666 224.1 219.115 226.086C218.277 230.416 215.347 234.104 211.572 236.291C217.722 236.342 223.877 236.334 230.031 236.295C229.233 227.105 228.627 217.899 227.844 208.709C226.57 208.611 225.111 207.942 224.875 206.554C224.695 205.178 224.529 203.644 225.186 202.366C225.666 201.438 226.755 201.249 227.679 201.06C228.108 199.684 228.737 198.198 230.125 197.545C230.389 197.572 230.912 197.624 231.171 197.651C233.7 198.202 236.295 197.985 238.859 198.017C242.072 197.903 245.348 198.367 248.505 197.572L249.052 197.462C250.456 198.206 251.171 199.645 251.608 201.104C252.953 201.147 254.345 201.969 254.431 203.436C254.42 204.918 254.891 206.825 253.586 207.911C252.988 208.497 252.103 208.532 251.337 208.721C250.727 217.911 249.98 227.089 249.237 236.267C253.802 236.267 258.438 236.224 262.902 237.333C262.792 237.498 262.575 237.824 262.469 237.986C257.408 238.89 252.257 238.957 247.137 238.87C192.992 238.811 138.847 238.866 84.7056 238.843C73.455 238.737 62.173 239.315 50.9539 238.261C49.959 238.104 48.7675 238.229 48.0833 237.337C50.7337 236.771 53.4549 236.609 56.1564 236.519C58.1541 236.837 60.1753 236.94 62.1927 236.774C62.3224 230.498 62.2674 224.222 62.2674 217.946C62.2438 217.034 62.3028 216.035 61.7208 215.272C60.3012 213.746 60.4978 211.56 60.6669 209.645C60.8753 208.288 61.941 207.356 63.0539 206.692C61.9292 201.941 61.0326 197.14 59.9551 192.382C59.727 191.501 59.786 190.585 59.8765 189.688C60.4978 189.232 61.1388 188.768 61.9213 188.654C63.7656 188.257 65.6099 187.84 67.466 187.498C68.5395 187.211 69.735 187.879 70.0653 188.933C71.0287 192.563 71.4141 196.346 72.5977 199.912C72.5506 196.385 72.3736 192.842 72.6056 189.318C72.7629 187.451 74.5954 185.98 76.4515 186.212C77.6351 186.216 78.5592 187.002 79.2985 187.844C79.2514 188.056 79.153 188.477 79.1059 188.689C78.9132 189.523 78.7795 190.372 78.7716 191.23C78.7598 195.154 78.6851 199.075 78.7008 202.999C78.7205 203.735 78.9014 204.458 79.0901 205.174C79.1452 205.374 79.2474 205.775 79.3025 205.976C79.8451 205.575 80.6906 205.351 80.7889 204.568C81.0642 203.282 80.8518 201.957 80.8322 200.659C81.3827 197.116 81.9254 193.565 82.6411 190.054C83.2899 187.281 87.411 186.715 88.9486 189.023C89.9907 190.345 89.5621 192.103 89.2711 193.605C90.7379 194.088 92.1063 195.056 92.704 196.53C93.4394 198.072 92.9164 199.794 92.6883 201.387C92.5271 202.228 92.4563 203.329 91.426 203.546C91.0367 203.345 90.4586 203.109 90.4351 202.598C90.4115 200.99 91.1193 199.44 90.9148 197.828C90.7496 196.766 89.7469 196.176 88.9408 195.618C88.3666 197.942 88.4256 200.479 87.5172 202.677C87.0021 203.188 87.0217 203.923 87.2577 204.564C87.3521 205.217 87.179 205.878 87.1908 206.538C88.3352 207.081 89.5857 207.742 89.9868 209.051C90.557 211.21 90.5412 213.809 88.9172 215.536C88.9132 222.453 88.9329 229.374 88.9054 236.291C91.6462 236.354 94.3871 236.31 97.128 236.326C97.0297 235.874 96.9314 235.422 96.837 234.973C95.5432 234.722 94.1433 234.47 93.1799 233.491C91.5755 232.107 91.4024 229.791 91.6659 227.828C92.2833 223.923 94.9809 220.53 98.4571 218.729C101.469 217.116 104.946 216.593 108.331 216.7C112.197 208.949 116.019 201.178 119.896 193.432C123.471 186.342 130.003 180.836 137.604 178.528C142.472 176.916 147.651 177.12 152.708 177.026C152.708 176.054 152.708 175.083 152.7 174.116C147.891 172.893 143.137 170.561 140.054 166.554C138.355 164.411 137.364 161.803 136.865 159.137C134.305 158.807 131.816 157.608 130.195 155.563C127.474 152.323 127.309 147.269 129.767 143.836C130.612 142.484 131.949 141.575 133.247 140.706C132.681 138.539 131.969 136.377 131.749 134.139C131.855 132.845 131.808 131.544 131.576 130.266C131.08 127.533 131.422 124.725 130.848 122.004C130.99 118.917 131.694 115.429 134.273 113.423C136.373 111.697 139.354 111.673 141.855 112.397C145.976 106.998 151.187 102.185 157.569 99.6403ZM150.778 106.31C147.777 108.854 145.001 111.713 142.826 115C140.962 114.32 138.894 113.844 136.939 114.426C134.969 115.118 133.849 117.092 133.459 119.043L133.369 119.137C132.205 125.138 133.212 131.261 134.576 137.136C135.024 139.157 135.799 141.096 136.122 143.148C136.184 142.963 136.251 142.783 136.318 142.606C136.53 144.092 136.998 145.531 137.726 146.849C138.159 145.311 138.324 143.718 138.457 142.134C138.552 142.334 138.65 142.535 138.748 142.735C138.788 141.512 138.906 140.293 138.937 139.074C139.602 137.336 139.787 135.472 140.345 133.707C140.829 131.957 141.623 130.317 142.366 128.665C141.517 127.993 140.652 127.34 139.739 126.766C138.957 126.019 138.422 124.713 139.72 124.159C140.86 124.265 141.607 125.331 142.52 125.932C147.073 129.326 152.685 130.985 158.241 131.827C162.457 132.342 166.719 132.228 170.959 132.141C170.235 130.683 168.642 129.279 169.185 127.501C169.72 126.487 171.033 126.821 171.8 127.348C176.051 129.912 180.613 132.767 185.772 132.566C189.307 132.668 192.654 130.399 194.156 127.25C195.913 123.797 195.615 119.794 195.335 116.054L195.312 115.582C188.159 113.482 182.3 108.645 176.495 104.182C173.153 101.791 169.11 100.207 164.954 100.352C159.665 100.411 154.789 103.042 150.778 106.31ZM143.259 132.035C141.395 137.092 140.848 142.499 139.853 147.765C140.486 147.749 141.124 147.737 141.765 147.722C142.492 144.265 144.965 141.214 148.277 139.935C151.489 138.626 155.319 138.992 158.206 140.926C160.616 142.405 162.158 144.977 162.838 147.674C163.998 147.348 165.213 147.34 166.362 147.726C167.309 143.801 170.487 140.396 174.553 139.739L174.093 139.947C175.717 140.097 177.36 140.081 178.981 139.865L178.524 139.715C182.61 140.341 185.913 143.762 186.81 147.737C187.51 147.745 188.214 147.757 188.918 147.769C188.646 144.678 187.974 141.622 187.361 138.587C187.239 137.289 186.893 136.031 186.523 134.784C182.154 135.087 178.001 133.384 174.203 131.418C174.427 132.315 174.289 133.223 173.774 134.002C172.878 134.206 171.977 134.383 171.073 134.54C162.004 135.107 152.516 134.092 144.38 129.79C143.994 130.533 143.621 131.28 143.259 132.035ZM188.76 134.521C189.232 136.046 189.512 137.623 189.574 139.224C189.637 139.07 189.767 138.768 189.834 138.618C190.011 140.993 190.381 143.372 191.151 145.637C191.883 142.94 192.72 140.203 192.697 137.379C192.799 137.879 192.909 138.382 193.019 138.886C192.937 136.561 193.499 134.285 193.507 131.965C192.048 133.026 190.451 133.887 188.76 134.521ZM147.168 142.374C144.124 144.399 142.496 148.394 143.416 151.953C144.297 155.968 148.218 159.169 152.374 158.96C156.456 159.11 160.203 155.948 161.183 152.055L161.627 152.193C161.918 150.683 161.969 149.137 161.698 147.623L161.187 147.765C160.369 144.501 157.663 141.772 154.38 141.013C151.926 140.396 149.232 140.934 147.168 142.374ZM173.794 141.516C170.266 142.676 167.671 146.215 167.773 149.951C167.71 154.127 171.037 157.997 175.162 158.61C180.251 159.645 185.65 155.162 185.363 149.932C185.733 144.143 179.197 139.412 173.794 141.516ZM194.282 142.472C193.617 145.134 192.862 147.777 191.965 150.368C191.6 151.312 191.973 152.319 192.075 153.274C192.201 154.493 192.237 155.724 192.296 156.951C193.806 156.479 195.371 155.909 196.468 154.706C198.352 152.897 199.059 150.109 198.525 147.58C197.899 145.354 196.275 143.581 194.282 142.472ZM130.113 149.212L130.247 149.342C130.077 152.999 133.011 156.247 136.534 156.884C136.377 154.808 137.486 152.645 136.676 150.655C135.638 148.107 134.674 145.527 133.915 142.881C131.749 144.297 130.325 146.624 130.113 149.212ZM167.502 151.595C167.655 150.474 167.667 149.334 167.533 148.213C167.132 149.314 167.187 150.482 167.502 151.595ZM138.898 149.562C138.768 150.148 138.91 150.655 139.319 151.092C138.776 154.709 138.28 158.728 140.156 162.055C140.424 163.353 141.19 164.462 142 165.484C145.418 169.637 150.738 171.623 155.886 172.566C163.247 173.774 170.982 173.616 178.1 171.245C182.728 169.641 187.439 166.522 188.961 161.634C190.821 157.757 189.897 153.294 189.264 149.228C188.528 149.224 187.797 149.22 187.07 149.216C187.026 151.855 186.338 154.591 184.541 156.597C182.634 158.886 179.716 160.266 176.743 160.293C172.893 160.38 169.055 158.135 167.356 154.654C166.436 153.015 166.33 151.111 165.996 149.302C165.076 149.011 164.057 148.823 163.208 149.413C162.877 151.017 162.866 152.72 162.13 154.222C161.336 156.18 159.795 157.667 158.21 158.996C160.266 159.153 162.04 160.62 164.152 160.305C166.13 160.478 167.872 159.35 169.72 158.85C170.215 159.208 171.025 159.444 171.021 160.191C171.769 164.674 167.333 169.31 162.783 168.304C158.796 167.765 156.102 163.121 157.392 159.385C154.085 161.088 149.936 161.072 146.759 159.086C143.322 157.128 141.34 153.121 141.564 149.212C140.907 149.216 140.254 149.224 139.598 149.232C139.562 149.511 139.484 150.073 139.444 150.356C139.649 150.022 139.264 148.779 138.898 149.562ZM158.988 160.502C159.205 161.717 160.062 162.908 161.32 163.168C163.157 163.51 165.068 163.518 166.892 163.117C168.06 162.787 168.8 161.693 168.945 160.525C167.372 161.037 165.823 161.748 164.144 161.796C162.339 161.796 160.695 160.966 158.988 160.502ZM163.153 160.962C163.094 161.729 164.82 161.78 164.899 161.076C165.815 160.341 163.078 160.168 163.153 160.962ZM159.838 165.024C161.674 167.875 166.33 167.726 168.241 164.985C166.959 164.584 165.563 164.419 164.313 165.008C164.238 165.24 164.093 165.708 164.022 165.944C163.463 164.116 161.218 164.466 159.838 165.024ZM154.958 174.67C154.938 175.516 154.922 176.365 154.903 177.211C154.907 178.713 154.958 180.294 155.717 181.638C157.077 184.383 160.412 185.996 163.4 185.252C166.727 184.603 169.165 181.249 168.847 177.887C168.835 177.03 168.831 176.168 168.839 175.315C164.203 175.72 159.539 175.402 154.958 174.67ZM75.0201 188.654C74.9572 188.646 74.8313 188.634 74.7684 188.63C74.6858 189.676 74.6033 190.726 74.5207 191.776C75.5588 191.686 76.6009 191.662 77.643 191.705L77.5879 191.674C77.7138 190.691 77.8632 189.609 77.3913 188.693C76.7228 188.025 75.7633 188.261 75.0201 188.654ZM85.6022 189.712C84.9454 189.932 84.5011 190.589 84.4736 191.277L84.2297 190.777C84.1314 191.548 84.0764 192.323 84.0331 193.105C85.0555 193.329 86.1291 193.558 87.1594 193.211L87.238 193.239C87.3403 192.539 87.4464 191.843 87.5841 191.151C87.4268 190.73 87.2774 190.305 87.1279 189.885C86.9628 189.865 86.6246 189.83 86.4555 189.814C86.8605 189.086 85.3623 188.905 85.6022 189.712ZM61.7994 190.797C62.0275 191.977 62.2674 193.156 62.5112 194.336C63.4274 194.289 65.2953 193.204 65.3897 194.706C64.6229 195.233 63.6437 195.229 62.7668 195.429C63.042 196.774 63.3016 198.123 63.6516 199.452C64.497 199.342 65.3622 198.839 66.2234 199.067C66.3295 199.362 66.416 199.661 66.4908 199.967C65.6296 200.172 64.7605 200.357 63.8914 200.53C64.0959 201.882 64.383 203.219 64.7133 204.549C65.6099 204.387 66.5026 204.029 67.4267 204.151C67.9103 205.657 65.6768 205.315 64.788 205.716C64.8981 205.901 65.1184 206.275 65.2285 206.46C67.3795 206.629 69.5462 206.491 71.7051 206.515C70.4074 200.848 69.3889 195.119 67.989 189.476C65.9284 189.94 63.8679 190.392 61.7994 190.797ZM74.5325 193.734L74.5521 194.167L74.0842 193.577C73.1994 195.834 73.7814 198.32 73.7067 200.679C73.8797 202.755 73.3174 204.926 74.0803 206.924L74.5561 206.389L74.5364 206.778C75.6021 206.814 76.6796 206.88 77.7374 206.711C78.1031 204.576 77.8514 202.405 77.9104 200.254C77.8554 198.095 78.1267 195.913 77.7374 193.77C76.6717 193.64 75.5982 193.699 74.5325 193.734ZM83.8365 194.918C83.3371 198.807 82.5034 202.645 81.9647 206.53C82.9635 206.527 83.9663 206.519 84.9651 206.511C85.5786 202.806 86.2077 199.102 86.8448 195.402C85.842 195.233 84.8393 195.064 83.8365 194.918ZM231.627 199.086C231.395 199.24 230.924 199.55 230.691 199.704L230.597 199.7C230.353 200.089 230.109 200.482 229.866 200.88C230.629 201.045 231.403 201.186 232.19 201.171C236.374 201.135 240.558 201.159 244.742 201.155C246.291 201.127 247.884 201.332 249.398 200.856C249.146 200.467 248.898 200.081 248.655 199.696L248.6 199.7C248.36 199.547 247.88 199.248 247.64 199.094C246.877 198.701 246.016 198.587 245.171 198.618C241.494 198.666 237.817 198.622 234.144 198.618C233.279 198.599 232.418 198.729 231.627 199.086ZM226.975 203.31C226.696 204.246 226.889 205.248 226.96 206.204C234.852 206.357 242.756 206.216 250.652 206.271C251.026 206.318 251.777 206.409 252.151 206.456C252.296 206.279 252.442 206.102 252.591 205.929C252.556 205.04 252.473 204.155 252.347 203.278C244.844 203.117 237.333 203.274 229.826 203.2C228.875 203.2 227.915 203.149 226.975 203.31ZM230.271 208.158L230.377 208.654L230.031 208.678C230.094 209.055 230.224 209.81 230.286 210.188C230.306 211.053 230.341 211.922 230.377 212.791C236.228 212.838 242.076 212.795 247.927 212.818C248.198 212.791 248.737 212.744 249.009 212.716C248.989 212.578 248.953 212.303 248.934 212.169C249.044 210.954 249.079 209.735 249.154 208.524C248.301 208.025 247.294 208.111 246.35 208.107C240.99 208.202 235.631 208.068 230.271 208.158ZM62.5505 210.486C62.5623 211.422 62.2202 212.665 63.1364 213.29C63.9701 214.092 65.2009 213.805 66.2469 213.876C73.2545 213.786 80.2777 214.006 87.2813 213.754C87.9537 212.248 88.3194 209.995 86.7897 208.902L87.2341 208.776C85.7477 208.54 84.2416 208.607 82.7472 208.611C76.711 208.599 70.6748 208.611 64.6386 208.603C63.5257 208.418 62.4876 209.362 62.5505 210.486ZM230.436 213.424C231.073 214.151 232.115 213.88 232.968 213.959C238.191 213.86 243.413 213.935 248.639 213.915C248.635 213.774 248.627 213.499 248.623 213.361C242.563 213.416 236.496 213.31 230.436 213.424ZM230.452 214.639C230.538 214.663 230.707 214.706 230.794 214.726C230.75 218.273 231.081 221.827 231.462 225.351C231.494 225.854 231.529 226.358 231.564 226.869C236.94 226.94 242.312 226.892 247.687 226.884C248.061 222.799 248.474 218.709 248.556 214.608C244.813 214.262 241.053 214.383 237.302 214.352C235.017 214.387 232.709 214.191 230.452 214.639ZM64.4027 216.621C63.8167 217.482 63.9701 218.556 63.9504 219.543C63.9819 223.998 63.9976 228.457 63.974 232.917C63.9583 233.625 64.0605 234.34 64.324 235.009V235.154C66.3924 235.622 68.4805 234.93 70.5686 235.182C75.8734 235.17 81.1821 235.166 86.4909 235.083C86.4319 228.965 86.5499 222.842 86.4476 216.727C86.3218 216.617 86.074 216.397 85.9521 216.287C78.7795 216.177 71.6029 216.299 64.4302 216.22C64.4223 216.318 64.4105 216.519 64.4027 216.621ZM99.2593 220.821C96.7662 222.225 94.8 224.572 93.9703 227.325C93.113 227.27 92.9282 229.126 93.7894 229.181L93.8484 230.026C93.7854 231.167 94.7174 232.158 95.7556 232.508C97.3561 233.102 99.0116 232.362 100.533 231.875C100.942 230.821 100.258 229.842 99.8492 228.91C100.132 228.752 100.699 228.434 100.986 228.273C101.599 229.071 102.13 229.932 102.665 230.789C103.703 230.349 104.761 229.96 105.819 229.574C105.465 228.469 105.166 227.352 104.902 226.228C104.619 225.024 104.45 223.798 104.32 222.571C105.229 223.585 105.956 224.741 106.684 225.89C107.195 226.892 107.667 227.919 108.08 228.973C109.193 228.847 110.298 228.658 111.391 228.418L111.465 228.878C112.169 227.525 111.509 225.984 111.595 224.545C112.979 225.386 112.394 227.368 113.613 228.3C114.914 228.045 116.605 227.848 117.195 226.456C117.683 224.647 116.798 222.72 115.366 221.599C114.069 220.447 112.437 219.716 110.762 219.319C106.924 218.45 102.712 218.874 99.2593 220.821ZM116.609 229.897C116.916 230.522 117.23 231.151 117.537 231.784C117.683 232.543 117.84 233.306 117.985 234.073C119.322 234.242 120.541 233.361 120.88 232.075C121.391 230.88 120.872 229.653 120.388 228.556C120.007 228.284 119.621 228.029 119.224 227.793C118.402 228.556 117.612 229.362 116.609 229.897ZM231.545 228.107L231.62 228.674C231.808 229.964 231.899 231.261 231.938 232.567C232.025 233.774 232.143 234.981 232.264 236.192C237.184 236.22 242.103 236.224 247.027 236.189C247.239 233.695 247.396 231.202 247.624 228.713C247.487 228.709 247.215 228.705 247.078 228.701L247.038 228.123C247.184 228.096 247.479 228.045 247.628 228.021C244.081 227.435 240.463 227.84 236.885 227.738C235.108 227.828 233.228 227.364 231.545 228.107ZM108.288 231.265C108.261 232.759 108.257 234.258 108.284 235.756C110.758 235.662 113.27 235.98 115.72 235.603C116.125 233.754 115.229 231.902 114.285 230.353C112.276 230.577 110.258 230.801 108.288 231.265ZM98.8818 234.848C99.1571 235.481 99.7234 235.882 100.435 235.764C102.319 235.787 104.206 235.752 106.094 235.76C106.106 234.45 106.106 233.141 106.106 231.831C103.597 232.59 101.324 233.92 98.8818 234.848ZM129.602 235.099C148.843 234.946 168.088 235.084 187.329 235.028C189.724 234.966 192.178 235.304 194.514 234.612C194.282 234.356 193.818 233.849 193.585 233.593C190.856 233.345 188.1 233.562 185.363 233.491C167.286 233.491 149.209 233.491 131.135 233.491C130.156 233.294 129.578 234.226 129.602 235.099ZM129.786 235.272C130.294 235.662 130.868 235.842 131.505 235.823C151.694 235.827 171.883 235.811 192.072 235.831C192.882 235.799 193.924 235.866 194.317 234.942C191.081 235.28 187.828 235.084 184.584 235.127C172.535 235.131 160.483 235.154 148.434 235.123C142.221 235.209 135.996 234.977 129.786 235.272ZM88.9958 237.046C91.6856 237.345 94.4304 237.345 97.1123 237.01C94.4107 236.885 91.6934 236.806 88.9958 237.046ZM50.7612 237.321C52.6566 238.155 54.7722 238.084 56.7856 237.836C54.8627 237.113 52.7746 237.034 50.7612 237.321Z"
            fill="#040374" />
        <path
            d="M150.778 106.31C154.789 103.042 159.665 100.411 164.954 100.352C169.11 100.207 173.153 101.792 176.496 104.182C182.3 108.646 188.159 113.483 195.312 115.582L195.336 116.054C195.355 116.459 195.395 117.262 195.414 117.663C191.289 116.562 187.66 114.21 184.168 111.835C180.617 109.428 177.51 106.381 173.672 104.407C173.503 105.386 173.448 106.558 172.488 107.128C169.618 109.078 165.878 109.173 162.559 108.626C161.018 108.323 159.405 107.812 158.312 106.62C157.553 105.854 158.001 104.741 158.116 103.817C152.095 106.326 147.054 110.765 143.125 115.909C142.889 116.2 142.634 116.475 142.355 116.727C140.593 116.656 138.819 115.964 137.062 116.483C135.548 116.794 134.458 117.954 133.459 119.043C133.849 117.092 134.969 115.118 136.94 114.426C138.894 113.844 140.962 114.32 142.826 115C145.001 111.713 147.777 108.854 150.778 106.31Z"
            fill="#CBA399" />
        <path
            d="M143.125 115.909C147.054 110.765 152.095 106.326 158.115 103.817C158.001 104.741 157.553 105.854 158.312 106.62C159.405 107.812 161.018 108.323 162.559 108.626C165.878 109.173 169.618 109.078 172.488 107.128C173.448 106.558 173.503 105.386 173.672 104.407C177.51 106.381 180.617 109.428 184.167 111.835C187.659 114.21 191.289 116.562 195.414 117.663C195.394 117.261 195.355 116.459 195.335 116.054C195.615 119.794 195.913 123.797 194.156 127.25C192.654 130.4 189.307 132.669 185.772 132.566C180.613 132.767 176.051 129.912 171.8 127.348C171.033 126.821 169.72 126.487 169.185 127.501C168.642 129.279 170.235 130.683 170.959 132.142C166.719 132.228 162.457 132.342 158.241 131.827C152.685 130.986 147.073 129.326 142.52 125.932C141.607 125.331 140.86 124.265 139.72 124.159C138.422 124.713 138.957 126.019 139.739 126.766C138.78 130.801 138.827 134.957 138.937 139.074C138.906 140.293 138.788 141.513 138.748 142.735C138.65 142.535 138.552 142.334 138.457 142.134C138.324 143.719 138.159 145.311 137.726 146.849C136.998 145.531 136.531 144.092 136.318 142.606C136.251 142.783 136.184 142.964 136.122 143.148C135.799 141.096 135.024 139.157 134.576 137.136C133.212 131.261 132.205 125.138 133.369 119.137L133.459 119.043C134.458 117.954 135.547 116.794 137.061 116.483C138.819 115.964 140.593 116.656 142.354 116.727C142.634 116.475 142.889 116.2 143.125 115.909Z"
            fill="#964530" />
        <path
            d="M188.761 134.521C190.452 133.888 192.048 133.027 193.507 131.965C193.499 134.285 192.937 136.562 193.02 138.886C192.909 138.383 192.799 137.879 192.697 137.38C192.721 140.203 191.883 142.94 191.152 145.638C190.381 143.373 190.011 140.994 189.834 138.618C189.767 138.768 189.638 139.071 189.575 139.224C189.512 137.624 189.233 136.047 188.761 134.521Z"
            fill="#964530" />
        <path
            d="M75.7003 109.078C76.5221 108.237 77.7687 108.402 78.8344 108.37C82.8847 108.441 86.939 108.3 90.9855 108.48C91.6579 108.484 92.1652 108.992 92.7118 109.318C91.8938 109.224 91.068 109.173 90.2462 109.165C86.8289 109.228 83.4077 109.188 79.9905 109.165C78.3743 108.948 76.7817 110.238 76.6204 111.847C76.4317 113.77 76.6244 115.7 76.6126 117.627C75.484 117.01 74.4773 115.952 74.6267 114.568C74.7368 112.739 74.0644 110.419 75.7003 109.078Z"
            fill="#E2D8DA" />
        <path
            d="M90.2464 109.165C91.0683 109.172 91.8941 109.224 92.712 109.318C93.7895 110.199 93.4946 111.736 93.5732 112.967C93.5103 114.312 93.7817 115.983 92.5862 116.939C91.5323 117.961 89.9476 117.694 88.6145 117.71C89.5819 117.12 90.5374 116.306 90.7655 115.138C91.0801 113.136 90.6122 111.123 90.2464 109.165Z"
            fill="#C4B0BB" />
        <path
            d="M130.848 122.004C131.422 124.725 131.08 127.533 131.576 130.266C131.808 131.544 131.855 132.845 131.749 134.139C130.876 130.179 130.372 126.046 130.848 122.004Z"
            fill="#020A4F" />
        <path
            d="M139.74 126.766C140.652 127.34 141.517 127.993 142.366 128.666C141.623 130.317 140.829 131.957 140.345 133.707C139.787 135.473 139.602 137.337 138.937 139.075C138.827 134.958 138.78 130.801 139.74 126.766Z"
            fill="#673243" />
        <path
            d="M143.259 132.035C143.621 131.28 143.994 130.533 144.38 129.79C152.516 134.092 162.004 135.107 171.073 134.54C171.603 134.855 172.134 135.181 172.681 135.476C172.193 136.046 171.847 136.719 171.544 137.407C166.751 138.009 161.91 137.541 157.128 137.057C157.179 136.817 157.282 136.341 157.333 136.102C155.3 134.009 151.969 134.025 149.468 135.201C147.415 134.108 145.284 133.176 143.259 132.035Z"
            fill="#B3919E" />
        <path
            d="M154.958 174.67C159.539 175.402 164.203 175.72 168.839 175.315C168.831 176.169 168.835 177.03 168.847 177.887C164.187 178.155 159.515 177.93 154.903 177.211C154.922 176.365 154.938 175.516 154.958 174.67Z"
            fill="#B3919E" />
        <path
            d="M174.203 131.418C178.001 133.384 182.154 135.087 186.523 134.784C186.893 136.031 187.239 137.289 187.361 138.587C187.254 138.398 187.038 138.024 186.932 137.84C185.135 137.859 183.342 137.726 181.56 137.533L181.824 138.256C180.365 135.956 177.754 134.576 175.013 134.843C174.6 134.56 174.187 134.281 173.774 134.002C174.289 133.223 174.427 132.315 174.203 131.418Z"
            fill="#B2919E" />
        <path
            d="M143.259 132.036C145.284 133.176 147.416 134.108 149.468 135.201C148.304 135.96 147.128 136.888 146.582 138.209C146.696 138.567 146.841 138.917 147.01 139.259C148.399 138.681 149.791 138.095 151.254 137.738C153.169 137.651 155.178 138.127 157.026 137.478L157.129 137.057C161.91 137.541 166.751 138.009 171.545 137.407C171.726 137.565 172.091 137.883 172.272 138.044C174.156 138.119 176.067 137.793 177.931 138.198C179.107 138.43 180.18 138.984 181.258 139.491C181.494 139.204 181.73 138.917 181.958 138.622L181.824 138.257L181.56 137.533C183.342 137.726 185.135 137.86 186.932 137.84C187.038 138.025 187.255 138.398 187.361 138.587C187.974 141.623 188.647 144.678 188.918 147.769C188.214 147.757 187.51 147.746 186.81 147.738C185.914 143.762 182.61 140.341 178.525 139.716C177.219 139.44 175.855 139.452 174.553 139.739C170.487 140.396 167.309 143.801 166.362 147.726C165.213 147.341 163.998 147.348 162.838 147.675C162.158 144.977 160.617 142.405 158.206 140.927C155.32 138.992 151.489 138.626 148.277 139.936C144.966 141.214 142.492 144.265 141.765 147.722C141.124 147.738 140.487 147.749 139.854 147.765C140.848 142.5 141.395 137.093 143.259 132.036Z"
            fill="#FFD0AF" />
        <path
            d="M147.167 142.374C149.232 140.934 151.926 140.396 154.379 141.013C157.663 141.772 160.369 144.501 161.186 147.765C161.43 149.181 161.442 150.64 161.183 152.055C160.203 155.948 156.456 159.11 152.374 158.961C148.217 159.169 144.297 155.968 143.416 151.953C142.496 148.394 144.124 144.399 147.167 142.374ZM147.985 146.829C146.853 149.853 147.549 153.671 150.074 155.799C151.749 157.238 154.466 157.175 156.015 155.579C157.958 153.546 158.328 150.439 157.577 147.808C157.164 146.715 156.617 145.669 155.819 144.808L155.823 144.765C154.847 143.974 153.699 143.274 152.39 143.345C150.317 143.306 148.654 144.989 147.985 146.829Z"
            fill="#FFD0AF" />
        <path
            d="M194.282 142.472C196.275 143.581 197.899 145.355 198.525 147.58C198.855 149.366 197.479 150.714 196.177 151.678C194.989 152.59 193.499 152.921 192.076 153.274C191.973 152.319 191.6 151.312 191.965 150.368C192.862 147.777 193.617 145.134 194.282 142.472Z"
            fill="#FFD0AF" />
        <path
            d="M102.547 221.206C106.931 219.897 111.922 219.972 115.921 222.39C116.058 222.598 116.33 223.007 116.467 223.212C115.378 224.018 114.175 224.659 112.909 225.139C112.244 223.688 111.257 222.414 110.089 221.34C110.356 222.504 110.671 223.656 110.923 224.828C109.531 225.265 108.115 225.611 106.684 225.89C105.956 224.742 105.229 223.586 104.32 222.571C104.45 223.798 104.619 225.025 104.902 226.228C103.459 226.696 102.039 227.235 100.659 227.86C100.046 227.129 99.3537 226.476 98.6458 225.847C98.7638 226.472 98.8857 227.101 99.0194 227.726C99.0312 227.966 99.0587 228.442 99.0705 228.678C97.5094 229.409 95.7673 229.449 94.0764 229.386C95.2325 225.418 98.6891 222.441 102.547 221.206Z"
            fill="#FFD0AF" />
        <path
            d="M171.073 134.54C171.977 134.383 172.877 134.206 173.774 134.002C174.187 134.281 174.6 134.56 175.013 134.843C174.226 135.012 173.452 135.244 172.681 135.476C172.134 135.181 171.603 134.855 171.073 134.54Z"
            fill="#FDD6BD" />
        <path
            d="M149.468 135.201C151.969 134.025 155.3 134.01 157.333 136.102C157.282 136.342 157.18 136.817 157.128 137.057L157.026 137.478C154.907 137.144 152.732 137.081 150.62 137.514L151.253 137.738C149.791 138.095 148.399 138.681 147.01 139.259C146.841 138.917 146.696 138.567 146.582 138.21C147.128 136.888 148.304 135.96 149.468 135.201Z"
            fill="#050273" />
        <path
            d="M172.681 135.476C173.452 135.244 174.226 135.012 175.013 134.843C177.754 134.576 180.365 135.956 181.824 138.257L181.957 138.622C181.729 138.917 181.493 139.204 181.257 139.491C180.18 138.984 179.106 138.43 177.931 138.198C176.067 137.793 174.156 138.119 172.272 138.044C172.091 137.883 171.725 137.564 171.544 137.407C171.847 136.719 172.193 136.047 172.681 135.476Z"
            fill="#050473" />
        <path
            d="M150.62 137.513C152.732 137.081 154.906 137.144 157.026 137.478C155.178 138.127 153.168 137.651 151.253 137.737L150.62 137.513Z"
            fill="#200B3F" />
        <path
            d="M174.553 139.739C175.855 139.452 177.219 139.44 178.525 139.715L178.981 139.865C177.361 140.081 175.717 140.097 174.093 139.947L174.553 139.739Z"
            fill="#0A0551" />
        <path
            d="M173.794 141.517C179.197 139.413 185.732 144.144 185.363 149.932C185.65 155.162 180.251 159.645 175.162 158.611C171.037 157.997 167.71 154.128 167.773 149.952C167.671 146.216 170.266 142.677 173.794 141.517ZM175.728 143.506C170.868 145.249 169.979 152.783 173.849 155.98C175.603 157.415 178.312 156.947 179.818 155.374C182.323 152.626 182.704 148.052 180.408 145.064C179.342 143.656 177.435 143.003 175.728 143.506Z"
            fill="#FED0AF" />
        <path
            d="M130.113 149.212C130.325 146.624 131.749 144.297 133.915 142.881C134.674 145.527 135.638 148.107 136.676 150.655C136.743 151.54 136.751 152.425 136.766 153.313C134.132 152.908 131.965 151.296 130.246 149.342L130.113 149.212Z"
            fill="#FFCFB1" />
        <path
            d="M175.729 143.506C177.435 143.003 179.342 143.656 180.408 145.064C182.705 148.052 182.323 152.626 179.818 155.374C178.312 156.947 175.603 157.415 173.849 155.98C169.979 152.783 170.868 145.248 175.729 143.506ZM174.915 146.153C173.232 146.967 172.909 149.932 174.569 150.966C175.929 151.104 176.425 149.405 176.527 148.335C176.527 147.423 176.106 145.921 174.915 146.153ZM178.135 152.252C178.249 152.547 178.481 153.145 178.595 153.44C180.141 153.463 180.011 151.414 179.095 150.659C178.658 151.116 178.351 151.662 178.135 152.252Z"
            fill="#030273" />
        <path
            d="M147.986 146.829C148.654 144.989 150.317 143.306 152.39 143.345C153.699 143.274 154.848 143.974 155.823 144.765L155.819 144.808C155.732 145.567 155.662 146.334 155.693 147.101C155.091 146.613 154.36 145.732 153.538 146.342C152.5 147.573 152.673 149.665 153.892 150.711C154.419 151.324 155.123 150.667 155.685 150.451L156.263 150.14L156.44 150.015C156.857 149.299 157.219 148.552 157.577 147.809C158.328 150.439 157.958 153.546 156.015 155.579C154.466 157.175 151.749 157.238 150.074 155.799C147.549 153.672 146.853 149.853 147.986 146.829ZM150.29 153.577C150.506 153.396 150.939 153.031 151.155 152.846C151.981 152.932 151.812 151.147 151.002 151.348C150.844 151.218 150.53 150.962 150.376 150.836C149.209 151.281 149.555 152.87 150.29 153.577Z"
            fill="#010173" />
        <path
            d="M157.6 213.987C157.18 211.36 159.535 208.78 162.194 209.005C164.148 208.981 165.685 210.479 166.405 212.19C166.676 213.841 166.354 215.709 164.989 216.818C163.888 217.88 162.3 218.014 160.856 217.864C159.228 217.192 157.691 215.863 157.6 213.987Z"
            fill="#010173" />
        <path
            d="M153.538 146.342C154.36 145.732 155.092 146.613 155.693 147.101C155.855 148.21 155.878 149.342 155.685 150.451C155.123 150.667 154.419 151.324 153.892 150.711C152.673 149.665 152.5 147.572 153.538 146.342Z"
            fill="#FEFEFC" />
        <path
            d="M174.915 146.152C176.106 145.92 176.527 147.423 176.527 148.335C176.425 149.405 175.929 151.103 174.569 150.966C172.909 149.931 173.232 146.966 174.915 146.152Z"
            fill="#FFFEFE" />
        <path
            d="M155.693 147.101C156.208 148.036 156.299 149.094 156.263 150.14L155.685 150.451C155.878 149.342 155.854 148.21 155.693 147.101Z"
            fill="#060747" />
        <path
            d="M161.187 147.765L161.698 147.623C161.969 149.137 161.918 150.683 161.627 152.193L161.183 152.055C161.442 150.639 161.431 149.181 161.187 147.765Z"
            fill="#130546" />
        <path
            d="M198.525 147.58C199.06 150.109 198.352 152.897 196.468 154.706C195.371 155.909 193.806 156.479 192.296 156.951C192.237 155.724 192.202 154.493 192.076 153.274C193.499 152.921 194.99 152.59 196.177 151.678C197.479 150.714 198.855 149.366 198.525 147.58Z"
            fill="#B4919F" />
        <path
            d="M180.554 168.331C183.924 166.935 186.736 164.493 188.961 161.635C187.44 166.522 182.729 169.641 178.1 171.245C170.982 173.617 163.247 173.774 155.886 172.567C150.739 171.623 145.418 169.637 142.001 165.484C141.191 164.462 140.424 163.353 140.156 162.055C141.041 163.015 141.95 163.951 142.901 164.847C147.101 168.646 152.807 170.223 158.308 170.923C165.76 171.642 173.586 171.324 180.554 168.331Z"
            fill="#B4919F" />
        <path
            d="M167.502 151.595C167.187 150.482 167.132 149.314 167.533 148.213C167.667 149.334 167.655 150.474 167.502 151.595Z"
            fill="#110748" />
        <path
            d="M138.898 149.562C139.264 148.78 139.649 150.022 139.445 150.356C139.413 150.541 139.35 150.907 139.319 151.092C138.91 150.655 138.768 150.148 138.898 149.562Z"
            fill="#100441" />
        <path
            d="M163.208 149.413C164.057 148.823 165.076 149.012 165.996 149.303C166.33 151.112 166.436 153.015 167.356 154.655C169.055 158.135 172.893 160.38 176.743 160.294C179.716 160.266 182.634 158.886 184.541 156.597C186.338 154.592 187.026 151.855 187.069 149.216C187.797 149.22 188.528 149.224 189.264 149.228C189.897 153.294 190.821 157.757 188.961 161.635C186.735 164.494 183.923 166.936 180.553 168.332C173.585 171.324 165.76 171.643 158.308 170.923C152.807 170.223 147.101 168.646 142.901 164.847C141.949 163.951 141.041 163.015 140.156 162.056C138.28 158.729 138.776 154.71 139.318 151.092C139.35 150.907 139.413 150.541 139.444 150.357C139.484 150.074 139.562 149.511 139.598 149.232C140.254 149.224 140.907 149.216 141.564 149.212C141.34 153.121 143.322 157.128 146.759 159.087C149.936 161.072 154.085 161.088 157.392 159.385C156.102 163.121 158.796 167.765 162.783 168.304C167.333 169.311 171.768 164.674 171.021 160.192C171.025 159.444 170.215 159.208 169.72 158.851C167.871 159.35 166.129 160.479 164.151 160.306C162.04 160.62 160.266 159.153 158.21 158.996C159.794 157.667 161.336 156.181 162.13 154.222C162.866 152.72 162.877 151.017 163.208 149.413Z"
            fill="#FFD0B1" />
        <path
            d="M154.903 177.211C159.515 177.931 164.187 178.155 168.847 177.888C169.165 181.25 166.727 184.604 163.4 185.253C160.412 185.996 157.077 184.384 155.717 181.639C154.958 180.294 154.907 178.713 154.903 177.211Z"
            fill="#FFD0B1" />
        <path
            d="M130.247 149.342C131.965 151.296 134.132 152.909 136.767 153.314C136.751 152.425 136.743 151.54 136.676 150.655C137.486 152.645 136.377 154.808 136.535 156.884C133.011 156.247 130.078 152.999 130.247 149.342Z"
            fill="#B5919E" />
        <path
            d="M150.29 153.577C149.554 152.869 149.208 151.281 150.376 150.836C150.53 150.962 150.844 151.218 151.001 151.348C151.041 151.847 151.068 152.35 151.155 152.846C150.939 153.031 150.506 153.396 150.29 153.577Z"
            fill="#FBFFFF" />
        <path
            d="M178.135 152.252C178.351 151.662 178.658 151.115 179.094 150.659C180.011 151.414 180.14 153.463 178.595 153.439C178.481 153.144 178.249 152.547 178.135 152.252Z"
            fill="#FBFFFF" />
        <path
            d="M151.002 151.348C151.812 151.147 151.981 152.932 151.155 152.846C151.069 152.35 151.041 151.847 151.002 151.348Z"
            fill="#030645" />
        <path
            d="M158.989 160.502C160.695 160.966 162.339 161.796 164.144 161.796C165.823 161.749 167.372 161.037 168.945 160.526C168.8 161.693 168.061 162.787 166.893 163.117C165.068 163.518 163.157 163.51 161.32 163.168C160.062 162.909 159.205 161.717 158.989 160.502Z"
            fill="#FFFFFB" />
        <path
            d="M163.153 160.962C163.078 160.168 165.815 160.341 164.899 161.076C164.317 161.013 163.735 160.982 163.153 160.962Z"
            fill="#110446" />
        <path
            d="M163.153 160.962C163.735 160.982 164.317 161.014 164.899 161.076C164.82 161.78 163.094 161.729 163.153 160.962Z"
            fill="#2A2381" />
        <path
            d="M159.838 165.024C161.218 164.466 163.464 164.116 164.022 165.944C164.093 165.708 164.238 165.24 164.313 165.008C165.563 164.419 166.959 164.584 168.241 164.985C166.33 167.726 161.674 167.875 159.838 165.024Z"
            fill="#FF4DA7" />
        <path
            d="M244.828 166.55C249.936 165.866 255.159 165.929 260.271 166.593C259.288 167.23 258.072 167.14 256.96 167.258C253.822 167.435 250.668 167.478 247.534 167.246C246.606 167.14 245.579 167.191 244.828 166.55Z"
            fill="#798FC8" />
        <path
            d="M224.062 172.429C224.809 171.874 225.768 171.839 226.661 171.835C233.322 171.855 239.984 172.098 246.645 172.118C246.661 172.248 246.685 172.511 246.697 172.641C240.291 172.712 233.889 172.885 227.483 172.881C226.354 172.905 224.931 172.739 224.235 173.856C223.11 175.095 224.262 177.309 225.894 177.246C234.282 177.289 242.678 177.187 251.065 177.266C253.48 177.258 255.399 179.892 254.652 182.193C254.31 183.715 252.902 184.627 251.49 185.032C251.47 184.788 251.427 184.301 251.408 184.057C252.123 183.471 253.134 183.097 253.425 182.13C254.219 180.364 252.536 178.28 250.66 178.52C242.528 178.5 234.396 178.551 226.264 178.489C225.155 178.548 224.03 178.111 223.362 177.207C222.155 175.807 222.52 173.432 224.062 172.429Z"
            fill="#768BC6" />
        <path
            d="M251.109 172.055C252.426 171.788 254.097 171.517 255.151 172.57C253.818 172.877 252.422 173.054 251.089 172.684C251.093 172.527 251.105 172.213 251.109 172.055Z"
            fill="#7E9AC5" />
        <path
            d="M185.788 178.103C185.729 177.974 185.607 177.718 185.548 177.588C194.754 179.303 202.795 185.779 206.822 194.187C210.483 201.54 214.183 208.874 217.86 216.22C219.378 219.244 219.815 222.779 219.115 226.086C218.666 224.1 218.749 222.056 218.651 220.038C218.136 220.239 217.616 220.435 217.105 220.644C217.074 220.514 217.011 220.255 216.979 220.121C216.331 217.832 215.135 215.764 214.085 213.648C211.407 208.316 208.737 202.983 206.055 197.655C204.962 195.504 203.955 193.29 202.563 191.308C198.202 184.934 191.093 180.423 183.413 179.44C179.307 179.252 175.194 179.267 171.085 179.2C170.967 179.684 170.856 180.176 170.746 180.667C170.801 180.018 170.829 179.373 170.923 178.732C173.503 178.394 176.11 178.697 178.705 178.65C180.798 178.697 182.956 178.312 184.982 179.012C186.028 179.429 187.129 179.173 188.167 178.874C187.369 178.626 186.566 178.394 185.788 178.103Z"
            fill="#070673" />
        <path
            d="M140.05 180.133C144.179 179.079 148.477 179.366 152.696 179.216C152.905 180.148 153.113 181.084 153.408 182C149.381 182.083 145.307 181.745 141.328 182.523C132.901 184.053 125.213 189.48 121.253 197.117C117.934 203.601 114.784 210.172 111.465 216.653C111.3 216.657 110.974 216.668 110.809 216.672C113.986 210.353 117.104 204.01 120.266 197.683C121.465 195.253 122.614 192.775 124.257 190.604C128.044 185.37 133.789 181.654 140.05 180.133Z"
            fill="#A1C5FF" />
        <path
            d="M171.085 179.2C175.194 179.267 179.307 179.252 183.413 179.44C191.093 180.423 198.202 184.934 202.563 191.308C203.955 193.29 204.962 195.504 206.055 197.655C208.737 202.984 211.407 208.316 214.085 213.648C215.135 215.764 216.331 217.832 216.979 220.121C216.508 219.555 216.051 218.969 215.701 218.324C212.178 211.242 208.647 204.159 205.072 197.105C200.609 188.52 191.462 182.81 181.871 182.091C178.068 181.871 174.254 182.047 170.448 181.882C170.558 181.477 170.656 181.072 170.746 180.667C170.856 180.176 170.967 179.684 171.085 179.2Z"
            fill="#A0C4FF" />
        <path
            d="M170.447 181.882C174.254 182.047 178.068 181.871 181.871 182.091C191.462 182.81 200.609 188.52 205.072 197.105C208.647 204.159 212.178 211.242 215.701 218.324C216.051 218.969 216.507 219.555 216.979 220.121C217.333 222.382 215.933 224.285 214.408 225.768C211.981 228.292 208.556 229.806 205.068 229.983C202.304 230.066 199.539 229.932 196.779 230.086C197.038 227.777 197.255 225.469 197.565 223.172C199.354 222.653 200.868 221.529 201.702 219.838C202.74 219.645 203.244 218.28 202.19 217.71C200.868 217.486 199.524 217.6 198.198 217.596C198.938 210.498 199.873 203.424 200.585 196.33C200.861 194.588 199.52 192.885 197.766 192.748C192.74 192.523 187.691 192.724 182.654 192.657C163.692 192.692 144.73 192.586 125.772 192.712C124.643 193.113 123.562 193.931 123.341 195.178C123.133 196.731 123.518 198.28 123.664 199.826C124.757 209.523 125.913 219.212 126.979 228.91C126.955 229.154 126.908 229.633 126.884 229.873C125.677 229.932 124.474 229.905 123.267 229.881C122.854 227.895 121.501 226.287 119.661 225.461C119.48 223.267 118.347 221.371 116.916 219.763C119.665 220.73 121.737 222.811 123.538 225.021C122.232 219.739 116.751 216.358 111.466 216.652C114.785 210.172 117.934 203.601 121.253 197.116C125.213 189.48 132.901 184.053 141.328 182.523C145.308 181.745 149.382 182.083 153.408 182C154.824 185.264 158.167 187.663 161.773 187.612C165.508 187.777 169.075 185.327 170.447 181.882Z"
            fill="#4189FF" />
        <path
            d="M237.844 185.111C239.001 183.81 240.872 184.112 242.426 184.049C245.418 184.101 248.423 183.786 251.407 184.057C251.427 184.301 251.47 184.789 251.49 185.033C247.55 184.993 243.597 184.789 239.657 184.883C237.538 185.103 237.585 187.53 237.07 189.071C236.861 187.726 236.779 186.138 237.844 185.111Z"
            fill="#7A94BE" />
        <path
            d="M75.0203 188.654C75.7635 188.261 76.723 188.025 77.3915 188.693C77.8634 189.61 77.7139 190.691 77.5881 191.674C76.7387 191.607 75.8854 191.548 75.0478 191.403C75.8421 191.328 76.6443 191.269 77.4426 191.202C77.364 190.569 77.3128 189.936 77.1713 189.319C76.7977 188.516 75.7281 188.831 75.0203 188.654Z"
            fill="#C92255" />
        <path
            d="M79.2985 187.844C80.1479 190.058 79.5974 192.48 79.7507 194.788C79.8766 198.379 79.4873 202.004 79.9395 205.567C80.3406 203.951 80.4153 202.272 80.8321 200.659C80.8518 201.957 81.0641 203.282 80.7889 204.568C80.6906 205.351 79.8451 205.575 79.3024 205.976C79.2474 205.775 79.1451 205.374 79.0901 205.174C79.153 199.68 79.1412 194.183 79.1058 188.689C79.153 188.477 79.2513 188.056 79.2985 187.844Z"
            fill="#121956" />
        <path
            d="M74.7682 188.63C74.8312 188.634 74.957 188.646 75.0199 188.654C75.7277 188.831 76.7974 188.516 77.1709 189.318C77.3125 189.936 77.3636 190.569 77.4423 191.202C76.644 191.269 75.8418 191.328 75.0474 191.402C75.885 191.548 76.7384 191.607 77.5878 191.674L77.6428 191.705C76.6007 191.662 75.5587 191.686 74.5205 191.776C74.6031 190.726 74.6857 189.676 74.7682 188.63Z"
            fill="#FB102A" />
        <path
            d="M78.7717 191.23C78.7795 190.373 78.9132 189.523 79.1059 188.689C79.1413 194.183 79.1531 199.68 79.0902 205.174C78.9014 204.458 78.7206 203.735 78.7009 202.999C78.6852 199.075 78.7599 195.154 78.7717 191.23Z"
            fill="#1D1F7A" />
        <path
            d="M85.6023 189.712C85.3625 188.906 86.8607 189.086 86.4557 189.814C86.2433 189.786 85.8147 189.735 85.6023 189.712Z"
            fill="#1B0729" />
        <path
            d="M61.7993 190.797C63.8678 190.392 65.9283 189.94 67.9889 189.476C69.3888 195.119 70.4073 200.848 71.705 206.515C69.5461 206.491 67.3794 206.629 65.2284 206.46C65.1183 206.275 64.898 205.901 64.7879 205.717C65.6767 205.315 67.9102 205.658 67.4266 204.152C66.5025 204.03 65.6098 204.387 64.7132 204.549C64.3829 203.22 64.0958 201.883 63.8913 200.53C64.7604 200.357 65.6295 200.172 66.4907 199.967C66.4159 199.661 66.3294 199.362 66.2233 199.067C65.3621 198.839 64.4969 199.342 63.6515 199.452C63.3015 198.123 63.0419 196.774 62.7667 195.429C63.6436 195.229 64.6228 195.233 65.3896 194.706C65.2952 193.204 63.4273 194.289 62.5111 194.336C62.2673 193.157 62.0274 191.977 61.7993 190.797Z"
            fill="#D5E4FE" />
        <path
            d="M84.4737 191.277C84.5012 190.589 84.9455 189.932 85.6022 189.712C85.8146 189.736 86.2432 189.787 86.4556 189.814C86.6247 189.83 86.9629 189.865 87.128 189.885C87.2774 190.306 87.4269 190.73 87.5842 191.151C87.4465 191.843 87.3404 192.539 87.2381 193.239L87.1595 193.212C86.2511 193.062 85.3427 192.905 84.4343 192.763C84.4461 192.264 84.4619 191.769 84.4737 191.277Z"
            fill="#FCD000" />
        <path
            d="M84.2298 190.777L84.4736 191.277C84.4618 191.768 84.4461 192.264 84.4343 192.763C85.3427 192.905 86.2511 193.062 87.1595 193.211C86.1292 193.558 85.0556 193.329 84.0332 193.105C84.0765 192.323 84.1315 191.548 84.2298 190.777Z"
            fill="#4B373F" />
        <path
            d="M125.771 192.712C144.73 192.586 163.691 192.692 182.653 192.657C187.691 192.724 192.74 192.523 197.766 192.747L198.32 193.329C176.963 193.412 155.61 193.333 134.254 193.369C131.56 193.318 128.858 193.432 126.169 193.31L125.771 192.712Z"
            fill="#000161" />
        <path
            d="M125.894 193.294L126.169 193.31C128.859 193.432 131.56 193.318 134.254 193.369C155.611 193.334 176.963 193.412 198.32 193.33L198.403 193.381C174.309 193.479 150.215 193.334 126.122 193.456C126.385 193.707 126.649 193.955 126.916 194.207C131.985 194.022 137.058 194.167 142.126 194.124C154.974 194.12 167.821 194.132 180.668 194.124C186.334 194.171 192.009 194.014 197.671 194.195L197.758 194.325C191.8 194.069 185.823 194.289 179.862 194.219C166.629 194.23 153.397 194.219 140.164 194.222C135.477 194.242 130.785 194.14 126.098 194.305C126.031 193.967 125.964 193.629 125.894 193.294Z"
            fill="#2D60D5" />
        <path
            d="M216.98 220.121C217.011 220.255 217.074 220.515 217.105 220.644C217.361 223.204 217.243 225.906 216.099 228.257C214.498 231.832 211.171 234.565 207.357 235.438C203.79 236.095 200.137 235.69 196.535 235.776C196.095 233.873 196.221 231.942 196.779 230.086C199.539 229.933 202.304 230.066 205.068 229.984C208.556 229.807 211.982 228.293 214.408 225.768C215.934 224.286 217.334 222.382 216.98 220.121Z"
            fill="#2D60D5" />
        <path
            d="M74.5327 193.735C75.5984 193.7 76.6719 193.641 77.7376 193.77C77.6236 198.084 77.6354 202.398 77.7376 206.712C76.6798 206.881 75.6023 206.814 74.5366 206.779L74.5563 206.389C74.6114 202.315 74.6114 198.238 74.5524 194.168L74.5327 193.735ZM74.9967 194.254C75.1422 198.273 75.0321 202.292 75.0636 206.315C75.8186 206.382 76.5736 206.448 77.3326 206.519C77.4191 202.343 77.4112 198.163 77.3247 193.987C76.55 194.073 75.7753 194.164 74.9967 194.254Z"
            fill="#C9A83C" />
        <path
            d="M73.7068 200.68C73.7815 198.32 73.1996 195.835 74.0843 193.578C74.1315 198.025 74.1669 202.477 74.0804 206.924C73.3175 204.927 73.8799 202.756 73.7068 200.68Z"
            fill="#14128E" />
        <path
            d="M74.084 193.578L74.552 194.167C74.6109 198.238 74.611 202.315 74.5559 206.389L74.0801 206.924C74.1666 202.477 74.1312 198.025 74.084 193.578Z"
            fill="#160B46" />
        <path
            d="M74.9966 194.254C75.7752 194.164 76.5499 194.073 77.3246 193.987C77.4111 198.163 77.4189 202.343 77.3324 206.519C76.5735 206.448 75.8185 206.381 75.0634 206.315C75.032 202.292 75.1421 198.273 74.9966 194.254Z"
            fill="#FFCD00" />
        <path
            d="M77.7377 193.77C78.127 195.913 77.8556 198.096 77.9107 200.255C77.8517 202.406 78.1034 204.576 77.7377 206.712C77.6354 202.398 77.6236 198.084 77.7377 193.77Z"
            fill="#2C264D" />
        <path
            d="M126.098 194.305C130.786 194.14 135.477 194.242 140.164 194.222C153.397 194.219 166.629 194.23 179.862 194.219C185.823 194.289 191.8 194.069 197.758 194.325L198.124 194.938C175.8 194.765 153.468 194.911 131.139 194.863C129.456 194.698 127.565 195.265 126.027 194.513L126.098 194.305Z"
            fill="#06075A" />
        <path
            d="M83.8367 194.918C84.8394 195.064 85.8422 195.233 86.8449 195.402C86.2079 199.102 85.5787 202.807 84.9653 206.511C83.9664 206.519 82.9637 206.527 81.9648 206.531C82.5036 202.645 83.3372 198.807 83.8367 194.918Z"
            fill="#418AFE" />
        <path
            d="M126.027 194.513C127.565 195.265 129.456 194.698 131.139 194.863C153.468 194.911 175.8 194.765 198.124 194.938C198.242 195.65 198.285 196.37 198.305 197.093C197.703 197.073 197.105 197.054 196.507 197.05C172.85 197.093 149.197 196.995 125.54 197.089C125.367 196.185 125.689 195.331 126.027 194.513Z"
            fill="#D5DDE3" />
        <path
            d="M125.54 197.089C149.197 196.995 172.85 197.093 196.508 197.05C195.462 206.645 194.357 216.236 193.24 225.819C193.259 227.294 191.694 227.628 190.519 227.545C170.035 227.471 149.543 227.6 129.055 227.478C127.872 217.353 126.771 207.211 125.54 197.089ZM157.601 213.986C157.691 215.862 159.229 217.191 160.857 217.864C160.68 217.923 160.326 218.041 160.153 218.1C161.065 218.426 162.013 218.721 162.996 218.705C164.699 218.8 166.209 217.541 166.964 216.106C167.494 214.608 167.408 212.779 166.362 211.517L166.405 212.189C165.686 210.479 164.148 208.981 162.194 209.004C159.535 208.78 157.18 211.36 157.601 213.986Z"
            fill="#AEBAC6" />
        <path
            d="M196.507 197.05C197.105 197.053 197.703 197.073 198.305 197.093C196.968 208.481 195.748 219.885 194.349 231.265C172.74 231.301 151.132 231.297 129.523 231.269C129.35 230.007 129.201 228.741 129.055 227.478C149.543 227.6 170.035 227.471 190.518 227.545C191.694 227.628 193.259 227.294 193.24 225.819C194.356 216.236 195.461 206.645 196.507 197.05Z"
            fill="#7A82AD" />
        <path
            d="M230.125 197.545C230.786 197.262 231.459 196.94 232.202 196.971C236.256 196.956 240.314 196.971 244.369 196.963C245.938 196.979 247.581 196.767 249.052 197.463L248.505 197.573C242.729 197.518 236.944 197.408 231.171 197.652C230.912 197.624 230.389 197.573 230.125 197.545Z"
            fill="#070A55" />
        <path
            d="M231.171 197.651C236.944 197.407 242.729 197.518 248.505 197.573C245.348 198.367 242.072 197.903 238.859 198.017C236.295 197.985 233.7 198.202 231.171 197.651Z"
            fill="#1A1B81" />
        <path
            d="M231.628 199.086C232.418 198.729 233.28 198.599 234.145 198.618C237.817 198.622 241.494 198.666 245.171 198.618C246.017 198.587 246.878 198.701 247.641 199.094C242.304 199.059 236.964 199.086 231.628 199.086Z"
            fill="#18344C" />
        <path
            d="M230.691 199.704C230.923 199.551 231.395 199.24 231.627 199.087C236.964 199.087 242.304 199.059 247.64 199.095C247.88 199.248 248.36 199.547 248.599 199.7C242.63 199.74 236.661 199.755 230.691 199.704Z"
            fill="#9ADB95" />
        <path
            d="M226.975 203.31C227.915 203.149 228.875 203.2 229.826 203.2C237.333 203.275 244.844 203.118 252.347 203.279C252.473 204.156 252.555 205.04 252.591 205.929C252.441 206.102 252.296 206.279 252.15 206.456C251.777 206.409 251.026 206.318 250.652 206.271C242.756 206.216 234.852 206.358 226.959 206.204C226.889 205.249 226.696 204.246 226.975 203.31ZM227.077 204.223C226.928 204.679 227.042 205.095 227.416 205.481L227.498 205.674C227.943 206.027 228.458 206.181 229.044 206.13C236.511 206.102 243.975 206.122 251.442 206.118C251.521 205.949 251.675 205.603 251.753 205.43L252.083 205.339C252.162 205.04 252.319 204.451 252.398 204.156C250.778 203.939 249.146 204.034 247.518 204.034C241.36 204.03 235.198 204.034 229.036 204.034C228.391 204.097 227.663 203.88 227.077 204.223Z"
            fill="#9ADB95" />
        <path
            d="M230.598 199.7L230.692 199.704C236.661 199.755 242.631 199.74 248.6 199.7L248.655 199.696C248.899 200.082 249.147 200.467 249.398 200.856C247.884 201.332 246.292 201.128 244.742 201.155C240.558 201.159 236.374 201.136 232.19 201.171C231.404 201.187 230.629 201.045 229.866 200.88C230.11 200.483 230.354 200.09 230.598 199.7Z"
            fill="#26BE00" />
        <path
            d="M87.2576 204.565C87.0217 203.924 87.002 203.188 87.5172 202.677C87.9222 203.204 87.7138 204.116 87.2576 204.565Z"
            fill="#000949" />
        <path
            d="M227.078 204.222C227.664 203.88 228.391 204.096 229.036 204.033C235.198 204.033 241.36 204.029 247.518 204.033C249.146 204.033 250.778 203.939 252.398 204.155C252.32 204.45 252.163 205.04 252.084 205.339L251.754 205.429L251.431 205.398C245.67 205.249 239.901 205.382 234.136 205.343C231.895 205.37 229.65 205.233 227.416 205.481C227.042 205.095 226.928 204.678 227.078 204.222Z"
            fill="#1BBD09" />
        <path
            d="M227.416 205.481C229.65 205.233 231.895 205.37 234.136 205.343C239.901 205.382 245.67 205.248 251.431 205.398L251.754 205.429C251.675 205.602 251.522 205.948 251.443 206.118C243.975 206.121 236.512 206.102 229.044 206.129C228.458 206.18 227.943 206.027 227.499 205.673L227.416 205.481Z"
            fill="#168E0C" />
        <path
            d="M230.271 208.159C235.631 208.068 240.991 208.202 246.351 208.108C247.294 208.112 248.301 208.025 249.154 208.525C242.898 208.709 236.634 208.426 230.377 208.654L230.271 208.159Z"
            fill="#040455" />
        <path
            d="M62.5505 210.486C62.4876 209.362 63.5258 208.418 64.6386 208.603C70.6749 208.611 76.7111 208.599 82.7473 208.611C84.2416 208.607 85.7477 208.54 87.2341 208.776L86.7898 208.902C84.9416 209.173 83.0658 208.996 81.2058 209.035C75.5707 209.063 69.9316 208.972 64.2965 209.063C63.51 208.988 63.2544 209.865 62.8966 210.388C62.9398 211.359 63.0106 212.327 63.1365 213.29C62.2202 212.665 62.5623 211.422 62.5505 210.486Z"
            fill="#1E0257" />
        <path
            d="M230.377 208.654C236.634 208.426 242.898 208.709 249.154 208.524C249.08 209.735 249.044 210.954 248.934 212.17C248.797 210.982 248.407 209.853 247.975 208.752C241.994 208.756 236.008 208.898 230.031 208.678L230.377 208.654Z"
            fill="#7B7BB9" />
        <path
            d="M62.8967 210.388C63.2546 209.865 63.5102 208.988 64.2967 209.063C69.9318 208.972 75.5708 209.063 81.2059 209.035C83.0659 208.996 84.9417 209.173 86.7899 208.902C88.3196 209.995 87.9539 212.248 87.2815 213.754C87.6196 212.696 87.9657 211.556 87.5882 210.463C85.6181 210.046 83.5889 210.333 81.5952 210.266C75.3624 210.325 69.1256 210.113 62.8967 210.388Z"
            fill="#FC919C" />
        <path
            d="M230.031 208.678C236.008 208.898 241.994 208.756 247.975 208.752C248.407 209.854 248.797 210.982 248.934 212.17C248.954 212.303 248.989 212.579 249.009 212.716C248.738 212.744 248.199 212.791 247.928 212.819C247.983 211.985 248.038 211.151 248.097 210.321C242.163 210.105 236.221 210.392 230.287 210.188C230.224 209.81 230.094 209.055 230.031 208.678Z"
            fill="#B5B5D2" />
        <path
            d="M62.8967 210.388C69.1256 210.113 75.3624 210.325 81.5952 210.266C83.589 210.333 85.6181 210.046 87.5882 210.463C87.9657 211.556 87.6197 212.696 87.2815 213.754C80.2779 214.006 73.2546 213.786 66.2471 213.876C65.2011 213.805 63.9703 214.092 63.1366 213.29C63.0108 212.327 62.94 211.359 62.8967 210.388Z"
            fill="#FA1128" />
        <path
            d="M230.287 210.188C236.221 210.392 242.162 210.105 248.096 210.321C248.037 211.151 247.982 211.985 247.927 212.819C242.076 212.795 236.228 212.838 230.377 212.791C230.342 211.922 230.306 211.053 230.287 210.188Z"
            fill="#FFFEFF" />
        <path
            d="M166.362 211.517C167.408 212.779 167.494 214.608 166.963 216.106C166.208 217.541 164.698 218.8 162.996 218.705C162.013 218.721 161.065 218.426 160.153 218.1C160.326 218.041 160.68 217.923 160.856 217.864C162.3 218.013 163.888 217.879 164.989 216.818C166.354 215.709 166.676 213.841 166.405 212.189L166.362 211.517Z"
            fill="#D8E1EC" />
        <path
            d="M230.436 213.424C236.496 213.31 242.564 213.416 248.623 213.361C248.627 213.499 248.635 213.774 248.639 213.916C243.413 213.935 238.191 213.861 232.968 213.959C232.115 213.88 231.073 214.152 230.436 213.424Z"
            fill="#0B0A86" />
        <path
            d="M230.452 214.639C232.709 214.191 235.017 214.387 237.302 214.352C241.053 214.383 244.813 214.262 248.556 214.608C248.474 218.709 248.061 222.799 247.687 226.884C242.312 226.892 236.94 226.94 231.565 226.869C231.529 226.358 231.494 225.854 231.462 225.351C234.317 225.315 237.18 225.378 240.035 225.335C242.221 225.363 244.384 224.155 245.517 222.295C246.665 220.156 246.641 217.643 246.677 215.288L246.665 214.895C241.647 214.749 236.622 214.788 231.608 214.914C231.403 214.867 230.998 214.773 230.794 214.726C230.707 214.706 230.538 214.663 230.452 214.639Z"
            fill="#1D8328" />
        <path
            d="M230.794 214.726C230.998 214.773 231.403 214.867 231.608 214.914C233.594 215.437 235.658 215.276 237.691 215.264C240.688 215.213 243.68 215.308 246.677 215.288C246.641 217.643 246.665 220.156 245.517 222.295C244.384 224.155 242.221 225.363 240.035 225.335C237.18 225.378 234.317 225.315 231.462 225.351C231.081 221.827 230.751 218.273 230.794 214.726ZM238.883 216.743L239.099 217.211C238.942 217.297 238.623 217.478 238.462 217.569C238.265 217.659 237.864 217.836 237.664 217.927C237.168 219.063 236.342 220.223 236.578 221.529C236.972 222.339 237.558 223.027 238.073 223.762C238.399 223.562 238.722 223.357 239.052 223.153C239.948 222.929 240.566 222.177 241.097 221.474C242.347 220.632 242.072 219.008 241.95 217.726C241.753 217.636 241.364 217.459 241.167 217.372C240.696 216.515 239.693 216.656 238.883 216.743Z"
            fill="#26BB02" />
        <path
            d="M231.608 214.915C236.622 214.789 241.647 214.749 246.665 214.895L246.677 215.288C243.68 215.308 240.688 215.213 237.691 215.265C235.658 215.276 233.594 215.438 231.608 214.915Z"
            fill="#38BD27" />
        <path
            d="M61.7211 215.272C62.3031 216.035 62.2441 217.034 62.2677 217.947C62.2677 224.223 62.3227 230.499 62.193 236.775C60.1756 236.94 58.1544 236.838 56.1567 236.519C58.0443 236.287 59.9476 236.334 61.843 236.307C61.7918 229.295 62.0081 222.276 61.7211 215.272Z"
            fill="#000857" />
        <path
            d="M64.4027 216.621C64.4105 216.519 64.4223 216.318 64.4302 216.22C71.6029 216.299 78.7795 216.177 85.9522 216.287C86.0741 216.397 86.3218 216.617 86.4476 216.727C86.5499 222.842 86.4319 228.965 86.4909 235.084C81.1822 235.166 75.8734 235.17 70.5687 235.182C68.4806 234.93 66.3925 235.622 64.324 235.154V235.009C64.2611 228.882 64.1156 222.744 64.4027 216.621ZM64.5796 218.284C64.5285 223.066 64.5285 227.844 64.5757 232.626C68.9328 232.681 73.2899 232.642 77.643 232.646C80.1322 232.752 82.4287 231.234 83.7736 229.224C85.4409 226.499 85.1185 222.559 82.6843 220.38C81.2923 218.898 79.275 218.155 77.2576 218.277C73.0303 218.3 68.8069 218.253 64.5796 218.284Z"
            fill="#B00C3C" />
        <path
            d="M63.9507 219.543C63.9704 218.556 63.817 217.482 64.4029 216.621C64.1159 222.744 64.2614 228.882 64.3243 235.009C64.0608 234.34 63.9586 233.625 63.9743 232.917C63.9979 228.458 63.9822 223.998 63.9507 219.543Z"
            fill="#1B0053" />
        <path
            d="M238.883 216.743C239.693 216.657 240.696 216.515 241.168 217.372C241.364 217.459 241.754 217.636 241.95 217.726C242.072 219.008 242.347 220.632 241.097 221.474C241.447 220.341 242.233 218.8 241.25 217.805C239.194 218.611 240.334 221.608 238.415 222.681C238.513 222.162 238.612 221.643 238.71 221.128C238.981 219.83 239.036 218.355 240.153 217.447C239.953 217.298 239.756 217.152 239.555 217.011L239.099 217.211L238.883 216.743Z"
            fill="#4FA545" />
        <path
            d="M239.099 217.211L239.555 217.011C239.756 217.152 239.952 217.298 240.153 217.447C239.036 218.356 238.981 219.83 238.71 221.128C238.206 221.533 237.66 221.883 237.129 222.253C236.74 220.55 237.341 218.855 238.462 217.569C238.623 217.479 238.942 217.298 239.099 217.211Z"
            fill="#FFFBFF" />
        <path
            d="M237.663 217.927C237.864 217.836 238.265 217.66 238.462 217.569C237.341 218.855 236.739 220.55 237.129 222.253C237.66 221.883 238.206 221.533 238.709 221.128C238.611 221.643 238.513 222.162 238.415 222.681C238.312 222.791 238.112 223.008 238.009 223.118C238.269 223.126 238.792 223.145 239.052 223.153C238.721 223.358 238.399 223.562 238.072 223.763C237.557 223.027 236.971 222.339 236.578 221.529C236.342 220.223 237.168 219.063 237.663 217.927Z"
            fill="#71C866" />
        <path
            d="M238.415 222.681C240.334 221.608 239.193 218.611 241.25 217.805C242.233 218.8 241.447 220.341 241.097 221.474C240.566 222.178 239.948 222.929 239.052 223.153C238.792 223.145 238.269 223.125 238.01 223.118C238.112 223.007 238.313 222.791 238.415 222.681Z"
            fill="#FFFDFF" />
        <path
            d="M64.5796 218.284C68.8069 218.253 73.0303 218.3 77.2576 218.277C79.2749 218.155 81.2923 218.898 82.6843 220.38C85.1185 222.559 85.4409 226.499 83.7736 229.224C82.4287 231.234 80.1322 232.752 77.643 232.646C73.2899 232.642 68.9328 232.681 64.5757 232.626C64.5285 227.844 64.5285 223.066 64.5796 218.284Z"
            fill="#F91227" />
        <path
            d="M99.2595 220.821C102.712 218.874 106.924 218.45 110.762 219.319C112.437 219.716 114.069 220.447 115.367 221.599C115.504 221.8 115.783 222.193 115.921 222.39C111.922 219.971 106.932 219.897 102.547 221.206C98.6893 222.441 95.2327 225.418 94.0766 229.386C94.0216 229.547 93.9075 229.865 93.8485 230.027L93.7896 229.181C93.8328 228.56 93.8879 227.938 93.9704 227.325C94.8002 224.572 96.7664 222.225 99.2595 220.821Z"
            fill="#FFE9D7" />
        <path
            d="M197.565 223.172C197.683 222.044 197.778 220.915 197.888 219.787C199.158 219.775 200.428 219.806 201.702 219.838C200.869 221.529 199.355 222.653 197.565 223.172Z"
            fill="#85B4FF" />
        <path
            d="M115.366 221.599C116.798 222.72 117.682 224.647 117.195 226.456C116.605 227.848 114.914 228.045 113.612 228.3C113.487 227.223 113.294 226.149 112.908 225.139C114.175 224.659 115.378 224.018 116.467 223.212C116.33 223.007 116.058 222.598 115.921 222.39C115.783 222.193 115.504 221.8 115.366 221.599Z"
            fill="#CEA6A4" />
        <path
            d="M110.923 224.828C111.112 226.016 111.206 227.223 111.391 228.418C110.298 228.658 109.193 228.847 108.08 228.973C107.667 227.919 107.195 226.893 106.684 225.89C108.115 225.611 109.531 225.265 110.923 224.828Z"
            fill="#CDA7A2" />
        <path
            d="M98.6458 225.846C99.3536 226.475 100.046 227.128 100.659 227.86C100.742 227.962 100.903 228.17 100.986 228.272C100.698 228.434 100.132 228.752 99.8491 228.91C100.258 229.842 100.942 230.821 100.533 231.875C99.9238 230.534 99.4165 229.145 99.0193 227.726C98.8856 227.101 98.7637 226.471 98.6458 225.846Z"
            fill="#1C135C" />
        <path
            d="M100.659 227.86C102.039 227.235 103.459 226.696 104.902 226.228C105.166 227.353 105.465 228.469 105.818 229.574C104.761 229.96 103.703 230.349 102.665 230.79C102.13 229.932 101.599 229.071 100.986 228.273C100.903 228.171 100.742 227.962 100.659 227.86Z"
            fill="#CFA6A2" />
        <path
            d="M93.7892 229.181C92.9281 229.126 93.1129 227.27 93.9701 227.325C93.8876 227.938 93.8325 228.56 93.7892 229.181Z"
            fill="#090947" />
        <path
            d="M99.0198 227.726C99.417 229.146 99.9243 230.534 100.534 231.875C99.0119 232.362 97.3564 233.102 95.7559 232.508C94.7178 232.158 93.7858 231.167 93.8487 230.027C93.9077 229.865 94.0217 229.547 94.0768 229.386C95.7677 229.448 97.5098 229.409 99.0709 228.678C99.0591 228.442 99.0316 227.966 99.0198 227.726Z"
            fill="#CEA6A1" />
        <path
            d="M116.609 229.897C117.612 229.362 118.402 228.556 119.224 227.793C119.621 228.029 120.007 228.285 120.388 228.556C120.203 229.256 120.074 229.979 119.783 230.652C119.201 231.281 118.284 231.43 117.537 231.784C117.23 231.151 116.916 230.522 116.609 229.897Z"
            fill="#FDD1AC" />
        <path
            d="M231.545 228.108C233.228 227.364 235.108 227.828 236.885 227.738C240.464 227.84 244.081 227.435 247.628 228.021C247.479 228.045 247.184 228.096 247.039 228.123C244.986 228.371 242.921 228.17 240.865 228.21C237.758 228.174 234.648 228.285 231.545 228.108Z"
            fill="#1E1D82" />
        <path
            d="M231.545 228.108C234.648 228.285 237.758 228.175 240.865 228.21C242.921 228.171 244.986 228.371 247.039 228.123L247.078 228.701C246.873 228.698 246.464 228.69 246.26 228.69C241.38 228.658 236.5 228.69 231.62 228.674L231.545 228.108Z"
            fill="#060546" />
        <path
            d="M120.388 228.556C120.872 229.653 121.391 230.88 120.88 232.075C120.541 233.361 119.322 234.242 117.985 234.073C117.84 233.306 117.683 232.543 117.537 231.784C118.284 231.43 119.201 231.281 119.783 230.652C120.074 229.979 120.203 229.256 120.388 228.556Z"
            fill="#CFA5A5" />
        <path
            d="M231.62 228.674C236.5 228.69 241.38 228.658 246.26 228.69C245.293 230.514 243.657 232.075 241.537 232.358C238.352 232.775 235.135 232.299 231.938 232.567C231.899 231.261 231.808 229.964 231.62 228.674Z"
            fill="white" />
        <path
            d="M246.26 228.69C246.464 228.69 246.873 228.698 247.078 228.701C247.215 228.705 247.487 228.709 247.624 228.713C247.396 231.202 247.239 233.696 247.027 236.189C242.103 236.224 237.184 236.22 232.264 236.193C232.142 234.981 232.025 233.774 231.938 232.567C235.135 232.3 238.352 232.775 241.537 232.359C243.656 232.075 245.292 230.514 246.26 228.69Z"
            fill="#B2B3D4" />
        <path
            d="M126.979 228.91C127.105 230.243 127.384 231.552 127.761 232.838C127.6 233.802 127.455 234.773 127.321 235.744C125.245 235.748 123.168 235.74 121.092 235.729C122.571 234.152 123.573 232.095 123.267 229.881C124.474 229.905 125.677 229.932 126.884 229.873C126.908 229.633 126.955 229.154 126.979 228.91Z"
            fill="#2C61D6" />
        <path
            d="M108.288 231.266C110.258 230.802 112.275 230.577 114.285 230.353C115.229 231.903 116.125 233.755 115.72 235.603C113.27 235.981 110.757 235.662 108.284 235.756C108.256 234.258 108.26 232.76 108.288 231.266Z"
            fill="#ADBBC6" />
        <path
            d="M98.8816 234.848C101.324 233.92 103.597 232.591 106.105 231.832C106.105 233.141 106.105 234.451 106.094 235.76C104.206 235.752 102.318 235.788 100.435 235.764C99.7231 235.882 99.1569 235.481 98.8816 234.848Z"
            fill="#ADBBC4" />
        <path
            d="M129.602 235.099C129.578 234.227 130.156 233.295 131.135 233.491C149.209 233.491 167.286 233.491 185.363 233.491C188.1 233.562 190.857 233.346 193.586 233.593C193.818 233.849 194.282 234.356 194.514 234.612C192.178 235.304 189.724 234.966 187.329 235.029C168.088 235.084 148.843 234.946 129.602 235.099Z"
            fill="#AEBCC9" />
        <path
            d="M129.787 235.272C135.996 234.978 142.221 235.21 148.434 235.123C160.483 235.154 172.536 235.131 184.584 235.127C187.829 235.084 191.081 235.28 194.317 234.942C193.924 235.866 192.882 235.799 192.072 235.831C171.883 235.811 151.694 235.827 131.505 235.823C130.868 235.843 130.294 235.662 129.787 235.272Z"
            fill="#7A80B8" />
        <path
            d="M88.9958 237.046C91.6935 236.806 94.4107 236.885 97.1123 237.011C94.4304 237.345 91.6856 237.345 88.9958 237.046Z"
            fill="#1B1A80" />
        <path
            d="M48.1028 238.014C48.0988 237.844 48.087 237.506 48.0831 237.337C48.7673 238.23 49.9588 238.104 50.9537 238.261C62.1728 239.315 73.4549 238.737 84.7054 238.843C138.847 238.867 192.992 238.812 247.137 238.871C252.257 238.957 257.408 238.89 262.469 237.986C265.536 238.269 268.619 238.627 271.6 239.441C272.154 239.665 273.181 239.818 272.972 240.644C270.943 241.659 268.643 241.899 266.429 242.249C255.198 243.657 243.881 244.089 232.587 244.663C228.391 244.923 224.183 244.765 219.995 245.131C211.088 245.442 202.174 245.65 193.259 245.682C181.989 246.055 170.707 246.028 159.433 246.016C149.204 246.016 138.976 246.036 128.748 245.925C124.167 245.851 119.59 245.615 115.004 245.65C108.3 245.658 101.607 245.332 94.9021 245.292C78.9641 244.545 62.9829 244.333 47.1118 242.544C44.4338 242.202 41.7166 241.934 39.1212 241.144C38.6454 240.912 37.7448 240.821 38.0516 240.082C38.901 239.402 40.0256 239.264 41.052 239.028C43.376 238.529 45.7433 238.285 48.1028 238.014Z"
            fill="#A5BFE4" />
        <path
            d="M50.7615 237.321C52.7749 237.034 54.863 237.113 56.7859 237.836C54.7725 238.084 52.6569 238.155 50.7615 237.321Z"
            fill="#131577" />
    </g>
    <defs>
        <clipPath id="clip0_83_12106">
            <rect x="20" y="20" width="271" height="271" rx="20" fill="white" />
        </clipPath>
    </defs>
</svg>
