<svg width="311" height="311" viewBox="0 0 311 311" fill="none" xmlns="http://www.w3.org/2000/svg">
    <rect width="311" height="311" rx="30" fill="#7C66FF" />
    <g clip-path="url(#clip0_83_12107)">
        <path
            d="M20 20H291V291H20V20ZM137.098 81.4877C131.824 81.1728 126.265 82.0407 121.907 85.2121C120.025 85.4062 118.355 86.3694 116.568 86.9077C105.142 91.284 94.525 97.7514 85.3623 105.856C71.8379 117.758 61.5216 133.278 55.8379 150.377C52.3369 160.861 50.4838 171.906 50.59 182.97C50.4729 189.338 51.176 195.685 52.282 201.947C53.593 208.92 55.5156 215.816 58.3721 222.316C60.65 222.272 62.9315 222.4 65.2057 222.239L65.246 221.767C65.3559 221.987 65.4767 222.206 65.6012 222.422L65.5939 222.437C60.0567 222.441 54.5086 222.349 48.9787 222.54C48.151 222.88 47.3014 223.265 46.7448 223.997C45.4813 225.385 45.6461 227.414 45.9061 229.131C44.2179 231.168 44.0384 234.215 45.1481 236.566C45.8695 238.122 47.338 239.21 48.964 239.686C50.883 240.001 52.8386 239.766 54.7759 239.84C117.282 239.854 179.784 239.843 242.286 239.847C247.519 239.774 252.763 239.993 257.989 239.733C259.883 239.202 261.534 237.778 262.186 235.899C262.779 234.028 262.688 231.937 261.864 230.15C261.432 229.52 260.963 228.919 260.447 228.362C260.425 227.223 260.608 226 260.062 224.949C259.37 223.32 257.583 222.349 255.847 222.426C253.653 222.433 251.46 222.426 249.262 222.441C249.325 221.155 249.662 219.91 249.782 218.636C250.171 218.398 250.438 218.068 250.581 217.647C253.13 210.202 255.008 202.511 255.858 194.681C256.034 192.272 256.301 189.869 256.502 187.467C262.662 177.37 266.017 165.673 266.54 153.878C262.303 156.196 258.132 158.723 254.543 161.982C253.924 160.631 253.756 159.144 253.346 157.73C248.849 139.676 239.228 122.958 225.997 109.891C215.922 99.8864 203.753 92.0018 190.499 86.9077C190.265 86.8564 189.796 86.7576 189.562 86.7099C182.867 78.0526 172.47 72.2957 161.565 71.3106C159.726 71.0725 157.855 71.1128 156.009 71.2593C148.619 71.5669 141.258 75.2657 137.098 81.4877Z"
            fill="white" />
        <path
            d="M78.375 132.699C78.8438 132.172 79.5579 132.586 80.0559 132.839C85.5052 136.406 90.9692 139.962 96.4514 143.485C97.334 144.114 98.5718 144.572 98.7183 145.799C95.2979 145.967 91.9104 146.48 88.4936 146.7C86.8712 146.96 85.1866 146.751 83.6082 147.271C83.1981 146.85 82.971 146.308 82.7952 145.762C81.356 141.397 79.8399 137.057 78.375 132.699Z"
            fill="white" />
        <path
            d="M70.6255 143.221C72.8045 140.016 74.7747 136.662 77.0233 133.505C78.4369 136.915 79.3744 140.496 80.6891 143.946C79.0118 144.118 77.3382 143.774 75.6646 143.697C73.9764 143.62 72.2918 143.485 70.6255 143.221Z"
            fill="white" />
        <path
            d="M70.4829 144.839C73.5445 144.905 76.6244 145.367 79.7042 145.433C80.2316 145.499 80.8981 145.352 81.2753 145.839C81.6488 146.769 81.9015 147.747 82.2275 148.699C83.2492 148.754 84.2746 148.67 85.2671 148.41C86.1863 149.153 86.5159 150.362 87.1238 151.343C88.2297 153.544 89.636 155.606 90.5662 157.891C90.0205 157.884 89.5262 157.73 89.083 157.434C83.2382 153.643 77.4081 149.835 71.5632 146.052C71.0689 145.777 70.7136 145.345 70.4829 144.839Z"
            fill="white" />
        <path
            d="M87.3179 148.286C91.002 148.059 94.6715 147.359 98.3629 147.41C96.3854 150.574 94.2833 153.658 92.3021 156.815C92.1885 156.84 91.9652 156.895 91.8553 156.925C90.46 154.5 89.2112 151.995 87.8123 149.575C87.5632 149.179 87.4167 148.736 87.3179 148.286Z"
            fill="white" />
        <path
            d="M73.9108 184.936C76.6758 184.504 79.492 184.852 82.2789 184.724C83.3372 184.783 84.7801 184.563 85.388 185.665C86.2194 186.669 85.5931 188.415 84.315 188.665C81.2095 189.302 78.0381 188.525 74.9143 188.895C72.8195 189.031 70.6662 188.445 68.6153 189.082C68.2894 189.463 68.4725 190.217 69.0731 190.118C72.2482 190.239 75.4343 190.107 78.613 190.159C79.3894 190.155 80.0926 190.664 80.5247 191.283C81.2022 192.451 80.3745 194.213 78.9829 194.249C77.0566 194.257 75.123 194.337 73.204 194.172C72.8488 193.773 72.8634 193.389 73.248 193.019C75.145 192.85 77.053 193.099 78.9463 192.913C79.7447 192.861 79.5432 191.627 78.8621 191.587C75.5954 191.47 72.3251 191.605 69.0585 191.521C68.1136 191.539 67.4508 190.737 67.0919 189.954C66.9967 188.815 67.7694 187.467 69.0438 187.529C74.0793 187.449 79.1221 187.526 84.1612 187.478C84.2454 187.086 84.6593 186.398 84.1026 186.171C80.8433 185.984 77.562 186.204 74.299 186.075C73.9145 185.83 74.0097 185.314 73.9108 184.936Z"
            fill="white" />
        <path
            d="M137.097 81.4877C141.258 75.2657 148.619 71.5669 156.009 71.2593C157.789 71.8965 159.748 71.7207 161.564 71.3105C172.47 72.2957 182.867 78.0526 189.562 86.7099C192.953 91.1961 195.308 96.5172 196.022 102.113C195.414 103.871 195.945 105.717 195.802 107.526C195.703 108.921 195.608 110.327 195.908 111.708C195.568 114.685 194.502 117.501 193.645 120.351C194.073 122.665 194.476 125.034 194.015 127.386C193.48 130.627 191.642 133.545 189.192 135.688C189.379 141.32 191.221 146.982 194.773 151.398C197.948 155.603 200.706 160.415 201.178 165.765C201.508 169.076 200.87 172.394 199.819 175.528C201.387 176.433 202.463 178.169 202.123 180.025C200.995 189.529 199.786 199.028 198.647 208.532C198.45 209.77 198.289 211.011 198.19 212.264C200.57 212.249 202.95 212.289 205.327 212.238C205.481 212.421 205.785 212.784 205.935 212.967C205.825 214.179 205.719 215.402 205.444 216.592C205.276 216.581 204.939 216.552 204.771 216.537C204.375 217.629 203.661 218.551 202.716 219.225L202.581 218.793C203.104 217.358 203.492 215.882 203.694 214.366C201.764 214.369 199.838 214.369 197.908 214.369C197.541 216.695 197.684 219.185 196.556 221.32C197.985 221.324 199.417 221.342 200.845 221.313C201.896 221.888 202.522 223.323 203.862 223.232C209.22 223.272 214.582 223.151 219.943 223.239C220.822 223.224 221.767 223.331 222.572 222.884C222.631 222.854 222.748 222.803 222.807 222.778L222.752 222.459C221.858 217.248 221.386 211.971 220.65 206.737C220.679 205.573 219.064 205.573 218.811 204.522C218.43 203.035 218.416 201.369 218.87 199.896C220.331 197.736 223.261 198.878 225.422 198.571C220.1 187.181 218.789 174.192 220.628 161.825C223.876 164.637 226.919 167.721 229.274 171.335C229.919 165.142 231.351 159.008 233.896 153.31C235.163 150.41 236.705 147.641 238.334 144.931C242.582 154.365 244.252 164.762 244.23 175.06C246.94 170.182 250.335 165.67 254.543 161.982C258.132 158.723 262.303 156.196 266.54 153.878C266.017 165.673 262.662 177.37 256.502 187.467C254.14 191.462 251.324 195.18 248.156 198.571C249.632 198.688 251.46 198.179 252.598 199.402C253.715 200.552 253.346 202.313 253.324 203.76C253.247 204.895 252.247 205.58 251.339 206.067C250.826 210.257 250.192 214.435 249.782 218.636C249.661 219.91 249.324 221.155 249.262 222.441C251.46 222.426 253.653 222.433 255.847 222.426C257.583 222.349 259.37 223.32 260.062 224.949C260.608 226 260.424 227.223 260.446 228.362C260.963 228.919 261.432 229.52 261.864 230.15C261.776 230.659 261.692 231.171 261.611 231.688C260.703 229.952 259.721 228.267 259.007 226.447C258.831 226.297 258.484 225.997 258.311 225.846C257.846 225.458 257.41 225.044 257.022 224.583C256.912 224.429 256.689 224.122 256.576 223.964C256.4 223.906 256.045 223.788 255.865 223.73C237.547 223.495 219.218 223.799 200.9 223.646C199.805 223.803 199.197 222.88 199.16 221.91C198.713 221.899 198.267 221.888 197.823 221.877C197.109 221.869 196.428 221.661 195.769 221.423C195.992 220.65 196.19 219.873 196.355 219.09C195.425 219.932 195.051 221.331 193.832 221.844C193.66 221.719 193.319 221.474 193.147 221.349C194.172 220.855 195.077 219.983 195.234 218.808C196.846 205.891 198.398 192.96 200.002 180.04C200.229 179.059 199.801 177.748 198.706 177.532C196.809 177.341 194.901 177.601 193 177.469C185.672 177.44 178.337 177.37 171.005 177.436C150.446 177.436 129.887 177.44 109.324 177.44C108.06 177.242 106.742 178.334 107.009 179.656C108.111 188.859 109.298 198.054 110.364 207.265C110.173 208.147 109.994 209.052 110.159 209.96C110.305 210.077 110.602 210.312 110.748 210.429C111.049 212.414 111.254 214.413 111.506 216.405C111.071 216.204 110.635 216.014 110.195 215.83C110.052 215.926 109.767 216.109 109.628 216.2C109.646 215.391 109.994 214.659 110.173 213.886C110.177 212.996 110.027 212.117 109.935 211.234C109.829 211.557 109.723 211.879 109.62 212.205C109.466 211.89 109.313 211.579 109.163 211.267C109.067 211.601 108.968 211.938 108.866 212.275C107.537 201.53 106.236 190.778 104.9 180.033C104.596 178.209 105.632 176.162 107.419 175.55C108.463 175.243 109.569 175.364 110.638 175.349C108.972 171.43 107.91 167.032 108.954 162.802C109.58 159.821 111.169 157.166 113.011 154.782C116.381 149.754 116.439 143.411 116.234 137.581C116.058 135.959 116.289 134.124 115.26 132.743C112.312 128.576 111.829 122.515 114.766 118.212C112.257 111.082 112.264 103.113 114.575 95.9313C115.894 91.7308 118.446 87.9441 121.907 85.2121C126.265 82.0407 131.824 81.1727 137.097 81.4877ZM150.387 74.3904C145.466 75.8406 141.089 79.1256 138.394 83.4982C138.394 82.828 137.105 83.2712 137.354 83.7949C133.611 83.2895 129.689 83.7143 126.214 85.2231C121.965 87.0725 118.834 90.8738 117.161 95.1219C114.736 100.732 114.934 106.991 115.403 112.953L115.458 112.865C115.729 114.132 116.007 115.414 116.52 116.611C118.234 115.403 120.475 115.015 122.489 115.586C123.104 115.982 123.185 116.765 123.438 117.392C124.251 116.941 125.13 116.582 125.818 115.938C126.276 115.831 126.752 115.74 127.166 115.498C130.557 113.678 133.86 111.543 136.427 108.639C138.196 106.493 139.822 104.032 140.331 101.263C139.071 99.6227 137.614 97.9528 137.259 95.8397C143.078 102.41 151.091 106.779 159.561 108.866C162.344 109.525 165.186 110.214 168.057 110.199C167.805 109.888 167.523 109.609 167.215 109.36C164.776 107.559 162.498 105.427 161.022 102.747C160.795 102.329 160.781 101.842 160.678 101.392C164.619 105.065 169.083 108.152 173.693 110.924C174.038 111.122 174.386 111.356 174.796 111.408C175.547 112.133 176.528 112.525 177.451 112.982C178.773 113.587 180.084 114.29 181.541 114.52C183.911 116.256 187.064 114.568 189.532 116.015C190.583 116.37 191.169 117.479 192.257 117.739C193.154 114.894 193.857 111.972 194.136 108.994C194.278 106.921 194.081 104.841 194.18 102.765C194.04 103.226 193.901 103.688 193.758 104.149C193.777 103.959 193.813 103.582 193.832 103.395C193.949 100.751 193.147 98.1615 192.125 95.7518C190.774 91.9871 188.529 88.5703 185.819 85.6406C185.314 85.0327 184.742 84.4797 184.061 84.0768C183.614 83.3224 182.889 82.7951 182.245 82.2238C178.857 79.36 174.939 77.148 170.793 75.588C164.329 73.1929 157.064 72.336 150.387 74.3904ZM139.13 108.767C138.214 110.045 137.054 111.111 136.043 112.308C132.586 114.967 128.836 117.238 124.877 119.076L124.881 119.142C124.35 119.391 123.822 119.651 123.302 119.918L123.035 119.56C122.562 121.233 122.837 123.009 122.994 124.712C123.276 126.422 123.093 128.169 123.353 129.88L123.895 129.975C124.456 134.944 125.36 139.936 127.309 144.568C129.224 149.219 132.362 153.493 136.654 156.192C143.016 160.385 151.072 161.019 158.477 160.261C158.543 160.905 160.173 160.799 160.1 160.067C164.494 159.261 168.9 157.716 172.327 154.771C175.155 152.545 177.345 149.589 178.934 146.378C181.93 140.185 182.937 133.274 183.46 126.481L183.904 126.507C184.153 124.218 184.054 121.918 184.164 119.622C184.204 118.856 184.16 118.087 183.969 117.348L183.823 117.641C180.066 116.553 176.455 114.989 173.071 113.03C172.199 112.481 171.119 112.799 170.156 112.66C160.257 111.979 150.113 109.265 142.228 103.007C141.382 105.017 140.481 107.035 139.13 108.767ZM116.417 119.706C115.125 121.438 114.78 123.698 114.949 125.807C115.201 129.283 117.15 132.527 119.962 134.545C120.691 135.08 121.563 135.34 122.46 135.413C122.405 134.681 122.295 133.959 122.108 133.252C121.878 130.989 121.716 128.711 121.416 126.466C122.05 126.122 121.793 125.32 121.856 124.749C121.691 122.284 121.896 119.809 121.68 117.348L121.31 117.582C119.424 117.132 117.479 118.175 116.417 119.706ZM185.881 117.446L185.885 117.761C185.636 119.589 185.841 121.438 185.709 123.273C185.705 125.683 185.376 128.07 185.255 130.469C185.108 132.128 184.79 133.758 184.559 135.406C185.328 135.31 186.119 135.179 186.782 134.739C191.078 132.015 193.227 126.269 191.558 121.427C190.77 119.058 188.452 117.194 185.881 117.446ZM116.366 142.32C116.296 143.301 116.326 144.286 116.512 145.257C116.853 143.444 116.626 141.598 116.707 139.771C116.765 138.412 116.765 137.043 116.516 135.702C116.077 137.889 116.527 140.115 116.366 142.32ZM118.193 135.849L118.215 136.145L117.791 135.948C117.611 138.196 118.095 140.441 117.813 142.69C117.878 143.539 117.45 144.7 118.175 145.337C117.736 149.348 116.718 153.464 114.22 156.716C112.513 158.924 111.184 161.495 110.789 164.278C110.206 167.82 111.21 171.397 112.623 174.62C112.748 175.158 113.195 175.499 113.762 175.393C115.172 175.349 116.582 175.404 117.992 175.375C120.145 171.214 123.079 167.387 126.917 164.652C127.854 163.912 128.957 163.396 129.857 162.616C132.388 161.455 134.933 160.305 137.596 159.473C136.83 158.748 135.86 158.316 134.999 157.727C133.659 156.833 132.542 155.661 131.231 154.731C130.883 154.152 130.447 153.64 130.004 153.138C127.682 150.501 126.096 147.304 124.84 144.045C124.69 143.627 124.452 143.257 124.174 142.92C124.093 141.049 123.203 139.313 122.969 137.453C121.661 137.515 120.427 137.076 119.168 136.827L119.142 136.563C118.823 136.321 118.512 136.083 118.193 135.849ZM187.5 136.955C187.265 137.508 187.331 138.149 187.364 138.738C187.258 138.149 187.203 137.548 187.141 136.955C186.398 137.105 185.705 137.427 184.962 137.577C184.995 137.768 185.061 138.149 185.094 138.343C184.815 138.13 184.61 137.259 184.186 137.691C183.775 138.295 183.742 139.079 183.53 139.767C181.878 146.436 178.506 152.977 172.873 157.115C171.785 158.009 170.463 158.558 169.39 159.47C175.103 161.143 180.531 164.121 184.504 168.614C186.291 170.548 187.61 172.844 188.928 175.104C191.016 175.7 193.293 175.206 195.454 175.371C196.172 175.36 196.912 175.466 197.618 175.29C198.223 173.91 198.574 172.43 198.889 170.958L199.27 171.218C199.655 169.552 199.468 167.838 199.523 166.142C199.493 165.476 199.684 164.531 198.875 164.238C197.882 158.953 194.528 154.625 191.47 150.366C189.294 146.942 187.972 143.005 187.408 138.998C188.126 138.815 187.895 137.343 187.5 136.955ZM230.849 174.166C234.024 180.443 235.295 187.5 235.591 194.48C235.478 195.89 235.624 197.307 235.47 198.717C236.067 198.681 236.661 198.6 237.261 198.519C237.21 196.868 237.844 195.286 237.737 193.638C237.847 193.964 237.961 194.29 238.078 194.619C238.019 193.909 238.034 193.191 238.217 192.502C238.95 189.408 239.737 186.321 240.792 183.321C240.964 182.849 241.114 182.366 241.118 181.86C242.315 180.465 242.487 178.491 242.447 176.726C242.432 173.5 242.648 170.226 242.062 167.039C242.249 165.04 241.403 163.062 241.791 161.055C241.667 161.513 241.542 161.967 241.418 162.425C241.59 160.708 240.795 159.074 240.997 157.36C240.861 157.95 240.726 158.543 240.601 159.137C240.909 157.642 240.414 156.174 240.026 154.746C239.503 153.138 239.228 151.413 238.338 149.952C238.272 149.688 238.137 149.157 238.071 148.893C233.552 156.514 231.219 165.34 230.849 174.166ZM264.134 157.023V157.203C256.502 161.627 249.866 167.992 245.801 175.876C241.993 182.908 240.154 190.789 238.737 198.6C239.451 198.611 240.165 198.618 240.887 198.629C242.341 198.585 243.798 198.659 245.256 198.596C245.725 198.659 246.018 198.27 246.321 197.988C254.184 189.8 259.769 179.502 262.622 168.53C263.512 164.765 264.449 160.953 264.515 157.071C264.42 157.06 264.229 157.034 264.134 157.023ZM120.995 174.331L120.816 174.415C120.731 174.642 120.563 175.093 120.479 175.32C140.881 175.309 161.282 175.32 181.681 175.309C183.259 175.29 184.837 175.32 186.416 175.279C185.694 173.335 184.295 171.723 182.981 170.152C179.168 165.761 173.873 162.868 168.295 161.396C167.153 161.158 165.78 160.349 164.78 161.341C164.677 161.337 164.465 161.326 164.359 161.319C164.6 163.593 164.249 166.058 162.623 167.787C158.118 172.723 149.402 172.785 144.704 168.098C142.898 166.347 142.386 163.729 142.649 161.308C142.221 161.143 141.796 160.99 141.371 160.839L141.554 160.803C133.216 162.085 125.258 166.941 120.995 174.331ZM144.759 161.806C144.678 163.418 144.88 165.172 146.073 166.369C148.849 169.475 153.592 170.031 157.386 168.706C160.33 167.863 162.806 165.022 162.308 161.814C161.121 162.026 159.935 162.227 158.741 162.381C158.561 162.4 158.199 162.429 158.016 162.443L158.272 162.118C156.251 161.975 154.229 162.282 152.208 162.15C151.05 162.088 149.889 162.063 148.736 162.136L148.967 162.436C147.553 162.304 146.15 162.085 144.759 161.806ZM221.715 167.618C220.961 178.191 222.679 189.053 227.351 198.615C229.095 198.629 230.842 198.6 232.588 198.644C233.072 198.604 233.555 198.541 234.042 198.483C234.02 195.743 233.742 193.019 233.665 190.283C233.614 188.317 232.83 186.445 232.911 184.468C232.797 184.797 232.684 185.131 232.577 185.467C232.808 183.937 232.197 182.475 231.794 181.033C230.318 176.085 227.729 171.463 224.217 167.677C223.656 167.091 223.184 166.347 222.371 166.102C222.316 165.915 222.206 165.542 222.151 165.351C221.748 166.036 221.8 166.856 221.715 167.618ZM220.562 199.863L220.88 200.285C219.749 201.171 220.316 202.892 220.441 204.119C220.609 204.152 220.939 204.218 221.104 204.251C221.02 204.386 220.847 204.657 220.763 204.793C230.831 204.708 240.905 204.785 250.972 204.752C251.016 204.584 251.104 204.247 251.148 204.082C252.042 203.456 251.416 202.02 251.599 201.076C251.405 200.834 251.214 200.596 251.027 200.358L251.042 199.944C240.883 199.772 230.721 199.896 220.562 199.863ZM222.316 205.987C222.408 207.4 222.657 208.799 222.796 210.213C222.4 212.003 222.642 213.868 223.067 215.633C223.191 214.878 223.323 214.109 223.213 213.348C223.422 216.017 224.132 218.621 224.22 221.294L224.283 221.298C224.506 221.935 225.308 221.602 225.81 221.712C233.145 221.683 240.488 221.818 247.823 221.657L247.559 221.353C247.878 219.793 247.991 218.2 248.123 216.614L248.292 216.281C248.599 213.597 249.116 210.934 249.237 208.235C249.383 207.536 249.467 206.825 249.519 206.118C240.458 205.877 231.384 206.027 222.316 205.987ZM249.222 223.056C251.815 223.298 254.481 223.371 257.059 223.023C254.455 222.829 251.826 222.887 249.222 223.056Z"
            fill="#57065F" />
        <path
            d="M156.009 71.2592C157.855 71.1127 159.726 71.0724 161.564 71.3105C159.748 71.7206 157.789 71.8964 156.009 71.2592Z"
            fill="#2C0737" />
        <path
            d="M150.388 74.3904C157.064 72.3359 164.33 73.1928 170.793 75.5879C165.388 74.0718 159.587 73.4236 154.065 74.72C147.978 75.9431 142.375 79.7078 139.218 85.0949C135.966 84.9997 132.641 84.7396 129.466 85.6405C124.672 86.7575 120.578 90.1413 118.263 94.448C116.736 97.2496 115.773 100.344 115.323 103.497C115.052 106.621 115.374 109.752 115.458 112.865L115.403 112.953C114.934 106.991 114.737 100.732 117.161 95.1219C118.835 90.8738 121.966 87.0724 126.214 85.2231C129.689 83.7142 133.611 83.2894 137.354 83.7948C137.578 83.7802 138.028 83.7472 138.251 83.7289L138.394 83.4982C141.09 79.1256 145.466 75.8406 150.388 74.3904Z"
            fill="#FDFEFD" />
        <path
            d="M154.064 74.7201C159.587 73.4236 165.388 74.0719 170.793 75.588C174.939 77.1481 178.857 79.36 182.245 82.2238C182.889 82.7951 183.614 83.3225 184.061 84.0769C184.929 86.2083 186.17 88.1675 187.009 90.3135C188.375 93.6534 189.616 97.0739 190.228 100.641C190.422 102.091 190.598 103.549 190.686 105.013C190.675 107.09 190.437 109.17 189.781 111.148C188.474 110.65 187.112 110.027 185.676 110.258C184.511 110.342 183.501 110.946 182.475 111.43C181.82 111.818 181.128 111.32 180.498 111.137C175.686 109.17 170.815 107.192 166.53 104.2C163.754 102.351 161.326 100.055 158.752 97.9528C158.367 99.9853 158.957 102.007 159.246 104.01C150.3 101.974 142.118 97.4291 134.805 91.9835C134.743 95.5468 135.479 99.2053 137.288 102.311C137.826 103.073 137.211 103.9 136.841 104.578C135.014 107.438 132.82 110.086 130.183 112.232C128.737 113.48 127.096 114.502 125.818 115.938C125.129 116.582 124.251 116.941 123.438 117.392C123.185 116.765 123.104 115.982 122.489 115.586C120.475 115.015 118.234 115.403 116.52 116.612C116.007 115.414 115.729 114.132 115.458 112.865C115.373 109.752 115.051 106.621 115.322 103.497C115.773 100.344 116.736 97.2497 118.263 94.4481C120.577 90.1414 124.672 86.7576 129.465 85.6406C132.641 84.7397 135.966 84.9997 139.218 85.095C142.375 79.7079 147.978 75.9432 154.064 74.7201Z"
            fill="#D77F28" />
        <path
            d="M137.354 83.7949C137.105 83.2713 138.394 82.8281 138.394 83.4983L138.251 83.729C138.028 83.7473 137.578 83.7803 137.354 83.7949Z"
            fill="#2F0632" />
        <path
            d="M184.062 84.0769C184.743 84.4797 185.314 85.0327 185.819 85.6406C188.529 88.5704 190.774 91.9872 192.126 95.7519C192.06 96.2023 191.99 96.6491 191.913 97.0959C191.364 97.5097 190.716 97.8466 190.324 98.4289C190.108 99.0661 190.921 99.198 191.302 99.4616C191.313 99.7986 191.327 100.135 191.346 100.472C191.067 100.516 190.507 100.597 190.229 100.641C189.617 97.0739 188.376 93.6535 187.01 90.3136C186.171 88.1675 184.929 86.2083 184.062 84.0769Z"
            fill="#9E6124" />
        <path
            d="M137.288 102.311C135.479 99.2052 134.743 95.5467 134.805 91.9834C142.119 97.429 150.3 101.974 159.247 104.01C158.957 102.007 158.368 99.9852 158.752 97.9527C161.327 100.055 163.755 102.351 166.531 104.2C170.815 107.192 175.686 109.17 180.498 111.137C181.128 111.32 181.82 111.818 182.476 111.429C183.501 110.946 184.512 110.342 185.676 110.258C187.112 110.027 188.474 110.649 189.782 111.147C190.437 109.17 190.675 107.09 190.686 105.013C191.312 104.977 191.939 104.936 192.569 104.885C192.334 104.442 192.001 104.069 191.649 103.721C192.155 103.131 192.591 102.49 192.96 101.805C193.253 102.333 193.543 102.86 193.832 103.395C193.814 103.581 193.777 103.959 193.759 104.149C193.902 103.688 194.041 103.226 194.18 102.765C194.081 104.841 194.279 106.921 194.136 108.994C193.858 111.971 193.155 114.894 192.257 117.739C191.17 117.479 190.584 116.37 189.533 116.015C187.064 114.568 183.911 116.256 181.542 114.52C181.029 114.044 180.509 113.576 179.996 113.099C179.795 112.191 179.246 111.448 178.597 110.807C178.092 111.173 177.601 111.569 177.045 111.858C176.29 111.733 175.554 111.517 174.796 111.408C174.386 111.356 174.038 111.122 173.694 110.924C169.083 108.152 164.619 105.065 160.678 101.391C160.781 101.842 160.796 102.329 161.023 102.746C162.499 105.427 164.776 107.559 167.215 109.36C167.523 109.609 167.805 109.888 168.058 110.199C165.187 110.214 162.345 109.525 159.562 108.866C151.091 106.779 143.078 102.41 137.259 95.8397C137.614 97.9527 139.072 99.6227 140.331 101.263C139.822 104.032 138.196 106.493 136.428 108.639C133.86 111.543 130.557 113.678 127.166 115.498C126.752 115.74 126.276 115.831 125.818 115.938C127.096 114.502 128.737 113.48 130.184 112.231C132.82 110.085 135.014 107.438 136.841 104.578C137.211 103.9 137.827 103.072 137.288 102.311Z"
            fill="#9E6124" />
        <path
            d="M116.567 86.9077C118.355 86.3694 120.024 85.4063 121.907 85.2122C118.446 87.9441 115.894 91.7308 114.575 95.9313C112.264 103.113 112.257 111.082 114.766 118.212C111.829 122.515 112.312 128.576 115.26 132.743C116.289 134.124 116.058 135.959 116.234 137.581C116.439 143.411 116.381 149.754 113.011 154.782C111.169 157.166 109.58 159.821 108.954 162.802C107.91 167.032 108.972 171.43 110.638 175.349C109.569 175.364 108.463 175.243 107.419 175.55C105.632 176.162 104.596 178.209 104.9 180.033C106.236 190.778 107.536 201.53 108.866 212.275C106.376 212.311 103.823 211.956 101.373 212.469C100.864 213.714 101.358 215.065 101.542 216.329C101.933 218.551 102.86 220.643 104.171 222.474C97.8757 222.448 91.5731 222.397 85.2779 222.496C85.7979 220.683 85.6514 218.775 85.8601 216.918C87.8194 216.852 90.0863 217.295 91.6866 215.86C93.3896 214.45 93.3822 212.077 93.3017 210.059C93.1772 207.84 93.6129 205.547 92.9025 203.397C92.2286 202.204 91.1556 201.204 89.797 200.882C88.8888 200.753 87.9732 200.75 87.0613 200.746C87.065 199.351 87.7279 197.798 86.8636 196.538C86.3582 196.216 85.7832 196.04 85.1863 196.084C78.7116 196.102 72.2369 196.051 65.7622 196.069C65.1616 196.058 64.5537 196.146 64.019 196.443C63.5649 196.967 63.3452 197.637 63.4807 198.333C63.8506 201.603 64.1325 204.881 64.3596 208.166L64.3926 208.524C64.6489 212.941 64.9675 217.354 65.2458 221.767L65.2056 222.239C62.9313 222.4 60.6498 222.272 58.372 222.316C55.5155 215.816 53.5928 208.92 52.2818 201.947C51.1758 195.685 50.4727 189.338 50.5899 182.97C50.4837 171.907 52.3367 160.861 55.8377 150.377C61.5214 133.278 71.8377 117.758 85.3621 105.856C94.5248 97.7514 105.141 91.284 116.567 86.9077ZM83.0879 124.145C82.458 124.489 81.4875 124.463 81.114 125.119C81.8867 125.525 82.8279 125.481 83.5676 125.943C83.8679 126.873 84.1243 127.829 84.5784 128.7C84.9007 127.84 85.1204 126.946 85.4317 126.082C86.1495 125.309 87.4642 125.694 88.149 124.881C87.2078 124.591 86.2703 124.276 85.3621 123.892C85.1863 123.094 85.0142 122.292 84.7102 121.53C83.5823 121.764 84.3623 123.932 83.0879 124.145ZM78.3747 132.699C79.8396 137.057 81.3557 141.397 82.7949 145.762C82.9707 146.308 83.1978 146.85 83.6079 147.271C85.1863 146.751 86.8709 146.96 88.4932 146.7C91.91 146.48 95.2975 145.967 98.718 145.799C98.5715 144.572 97.3337 144.114 96.4511 143.484C90.9689 139.961 85.5049 136.406 80.0556 132.839C79.5576 132.586 78.8434 132.172 78.3747 132.699ZM70.6256 143.221C72.2918 143.484 73.9764 143.62 75.6647 143.697C77.3383 143.774 79.0119 144.118 80.6892 143.946C79.3745 140.496 78.4369 136.915 77.0234 133.505C74.7748 136.662 72.8045 140.016 70.6256 143.221ZM70.4827 144.839C70.7134 145.345 71.0687 145.777 71.5631 146.052C77.4079 149.835 83.238 153.643 89.0829 157.434C89.526 157.73 90.0204 157.884 90.566 157.891C89.6358 155.606 88.2296 153.544 87.1236 151.343C86.5157 150.362 86.1861 149.154 85.2669 148.41C84.2744 148.67 83.249 148.754 82.2273 148.699C81.9014 147.747 81.6487 146.769 81.2751 145.839C80.8979 145.352 80.2314 145.499 79.7041 145.433C76.6242 145.367 73.5443 144.905 70.4827 144.839ZM87.3177 148.286C87.4166 148.736 87.5631 149.179 87.8121 149.575C89.211 151.995 90.4598 154.5 91.8551 156.925C91.965 156.895 92.1884 156.84 92.3019 156.815C94.2831 153.658 96.3852 150.574 98.3628 147.41C94.6713 147.359 91.0018 148.059 87.3177 148.286ZM95.5612 167.706C94.6969 168.028 93.7961 168.237 92.9281 168.552C93.8107 168.977 94.7592 169.226 95.6711 169.577C96.1032 170.339 96.2241 171.229 96.4987 172.057C97.2385 171.438 97.2751 170.343 97.6779 169.511C98.6448 169.266 99.5933 168.948 100.52 168.574C99.5456 168.277 98.5862 167.955 97.612 167.662C97.33 166.769 97.0517 165.879 96.7478 164.992C95.8871 165.608 96.3706 167.014 95.5612 167.706ZM67.6519 184.49C68.4722 185.208 68.8201 184.003 69.1827 183.468C71.2847 182.889 73.5992 183.853 75.6574 183.032C75.5438 182.787 75.3131 182.296 75.1959 182.051C73.2696 181.926 71.336 181.996 69.4061 182.014C68.2305 181.999 67.2344 183.369 67.6519 184.49ZM73.9105 184.937C74.0094 185.314 73.9142 185.83 74.2987 186.075C77.5617 186.204 80.843 185.984 84.1023 186.171C84.659 186.398 84.2451 187.086 84.1609 187.478C79.1218 187.526 74.079 187.449 69.0435 187.529C67.7691 187.467 66.9963 188.815 67.0916 189.954C67.4505 190.737 68.1133 191.539 69.0581 191.521C72.3248 191.605 75.5951 191.47 78.8618 191.587C79.5429 191.627 79.7443 192.861 78.946 192.913C77.0527 193.099 75.1447 192.85 73.2477 193.019C72.8631 193.389 72.8485 193.773 73.2037 194.172C75.1227 194.337 77.0563 194.257 78.9826 194.249C80.3742 194.213 81.2019 192.451 80.5244 191.283C80.0922 190.664 79.3891 190.155 78.6127 190.159C75.434 190.107 72.2479 190.239 69.0728 190.118C68.4722 190.217 68.2891 189.463 68.615 189.082C70.6658 188.445 72.8192 189.031 74.9139 188.895C78.0378 188.525 81.2092 189.302 84.3147 188.665C85.5928 188.416 86.219 186.669 85.3877 185.665C84.7798 184.563 83.3369 184.783 82.2786 184.724C79.4916 184.852 76.6754 184.504 73.9105 184.937Z"
            fill="#7DD2F5" />
        <path
            d="M189.562 86.71C189.796 86.7576 190.265 86.8564 190.499 86.9077C203.753 92.0018 215.922 99.8864 225.997 109.891C239.228 122.958 248.849 139.676 253.346 157.73C253.756 159.144 253.924 160.631 254.543 161.982C250.335 165.67 246.941 170.182 244.231 175.06C244.252 164.762 242.583 154.365 238.334 144.931C236.705 147.641 235.163 150.41 233.896 153.31C231.351 159.008 229.919 165.142 229.274 171.335C226.919 167.721 223.876 164.637 220.628 161.825C218.789 174.192 220.101 187.181 225.422 198.571C223.261 198.878 220.331 197.736 218.87 199.896C218.416 201.369 218.431 203.035 218.811 204.522C219.064 205.573 220.679 205.573 220.65 206.737C221.386 211.971 221.858 217.248 222.752 222.459C216.167 222.474 209.586 222.411 203.006 222.488C202.962 222.47 202.877 222.437 202.833 222.419C204.24 220.763 204.998 218.691 205.445 216.592C205.719 215.402 205.825 214.179 205.935 212.967C205.785 212.784 205.481 212.421 205.327 212.238C203.229 211.527 200.922 212.373 198.779 211.798C198.461 210.758 198.699 209.612 198.648 208.532C199.787 199.028 200.995 189.529 202.123 180.026C202.464 178.169 201.387 176.433 199.819 175.528C200.871 172.394 201.508 169.076 201.178 165.765C200.706 160.415 197.948 155.603 194.773 151.398C191.221 146.982 189.379 141.32 189.192 135.688C191.642 133.545 193.48 130.627 194.015 127.386C194.476 125.034 194.074 122.665 193.645 120.351C194.502 117.501 195.568 114.685 195.908 111.708C196.432 108.544 196.443 105.288 196.022 102.113C195.308 96.5172 192.953 91.1961 189.562 86.71ZM215.259 110.386C214.952 111.228 214.845 112.151 214.421 112.946C213.597 113.407 212.666 113.616 211.784 113.923C212.491 114.744 213.864 114.315 214.505 115.194C214.834 116.044 214.985 116.956 215.362 117.794C215.614 117.11 215.834 116.41 216.083 115.722C216.42 114.301 218.196 114.616 219.233 114.015C218.251 113.704 217.27 113.385 216.31 113.015C216.01 112.122 215.827 111.162 215.259 110.386ZM203.277 126.437C202.346 127.005 202.083 128.147 201.775 129.118C200.281 134.552 198.362 139.885 197.106 145.378C198.618 144.532 199.9 143.356 201.273 142.313C204.837 143.122 208.25 144.488 211.791 145.403C214.135 146.114 216.468 146.861 218.83 147.502C220.064 147.912 221.283 146.996 221.558 145.803C222.624 142.177 223.715 138.559 224.887 134.966C225.037 134.318 225.048 133.622 224.865 132.985C224.089 131.853 222.631 131.663 221.415 131.286C216.05 129.667 210.681 128.067 205.324 126.422C204.665 126.21 203.921 126.133 203.277 126.437ZM210.125 160.982C209.832 161.825 209.737 162.747 209.304 163.535C208.4 164.011 207.389 164.22 206.43 164.553C207.254 164.882 208.125 165.069 208.968 165.355C209.828 165.923 209.737 167.138 210.088 168.014C210.956 167.486 210.81 166.307 211.297 165.516C212.062 165.003 213.183 165.186 213.791 164.432C212.93 164.124 212.025 163.923 211.209 163.509C210.857 162.663 210.828 161.641 210.125 160.982Z"
            fill="#7DD2F5" />
        <path
            d="M192.126 95.7517C193.147 98.1614 193.949 100.751 193.832 103.395C193.543 102.86 193.253 102.333 192.96 101.805C192.591 102.49 192.155 103.131 191.649 103.721C192.001 104.068 192.334 104.442 192.569 104.885C191.939 104.936 191.313 104.977 190.686 105.013C190.598 103.548 190.423 102.091 190.229 100.641C190.507 100.597 191.067 100.516 191.345 100.472C191.327 100.135 191.313 99.7984 191.302 99.4615C190.921 99.1978 190.108 99.066 190.324 98.4287C190.716 97.8465 191.364 97.5095 191.913 97.0957C191.99 96.6489 192.06 96.2022 192.126 95.7517Z"
            fill="#A46B30" />
        <path
            d="M196.022 102.113C196.443 105.288 196.432 108.544 195.908 111.708C195.608 110.327 195.703 108.921 195.802 107.526C195.945 105.717 195.414 103.871 196.022 102.113Z"
            fill="#2F1C55" />
        <path
            d="M139.13 108.767C140.482 107.035 141.382 105.017 142.228 103.007C150.113 109.265 160.257 111.979 170.156 112.66C171.119 112.799 172.2 112.481 173.071 113.03C176.455 114.989 180.066 116.553 183.823 117.641C183.516 120.578 183.754 123.544 183.461 126.481C182.937 133.274 181.93 140.185 178.934 146.378C177.345 149.589 175.155 152.545 172.328 154.771C175.668 149.611 177.436 143.605 178.205 137.548C179.07 131.777 179.187 125.924 179.209 120.098C176.199 119.256 173.54 117.571 170.954 115.868C170.401 115.476 169.746 115.286 169.076 115.257C163.289 114.883 157.474 113.718 152.23 111.181C150.996 110.576 149.553 110.8 148.286 110.302C146.418 109.694 144.894 108.423 143.422 107.174C141.1 109.064 138.834 111.129 136.043 112.308C137.054 111.111 138.215 110.045 139.13 108.767Z"
            fill="#DDBE86" />
        <path
            d="M136.043 112.308C138.833 111.129 141.1 109.064 143.422 107.174C144.894 108.423 146.418 109.694 148.285 110.302C149.553 110.8 150.995 110.576 152.23 111.18C157.474 113.718 163.289 114.883 169.076 115.256C169.746 115.286 170.401 115.476 170.954 115.868C173.54 117.571 176.198 119.256 179.209 120.098C179.187 125.924 179.07 131.776 178.205 137.548C177.436 143.605 175.667 149.611 172.328 154.771C168.9 157.716 164.494 159.261 160.1 160.067C159.558 160.125 159.012 160.177 158.477 160.261C151.072 161.019 143.016 160.385 136.654 156.192C135.97 155.368 135.267 154.559 134.486 153.826C131.879 151.303 130.341 147.941 128.993 144.634C125.858 136.523 125.17 127.752 124.881 119.142L124.877 119.076C128.836 117.238 132.586 114.967 136.043 112.308ZM136.852 120.006C135.691 120.559 134.944 121.695 134.692 122.932C138.068 119.885 143.572 119.567 147.308 122.145C147.136 120.988 146.367 119.999 145.286 119.541C142.598 118.435 139.419 118.681 136.852 120.006ZM162.183 119.373C160.949 119.779 159.807 120.819 159.814 122.207C163.443 119.453 169.028 119.951 172.372 122.943C172.082 121.863 171.57 120.772 170.544 120.215C168.065 118.75 164.908 118.439 162.183 119.373ZM136.632 127.14C134.516 130.345 136.061 135.658 140.057 136.416C140.628 136.68 141.415 136.698 141.954 136.343C142.862 136.354 143.682 135.768 144.334 135.179C147.22 132.546 146.795 127.133 143.327 125.185C141.049 123.819 137.867 124.833 136.632 127.14ZM165.216 124.635C164.242 124.822 163.322 125.302 162.634 126.02C159.858 128.623 160.275 133.842 163.568 135.838C165.263 136.907 167.57 136.731 169.112 135.468C171.991 133.194 172.097 128.356 169.405 125.891C168.303 124.84 166.717 124.368 165.216 124.635ZM146.209 146.623L146.293 147.084C146.476 147.549 146.659 148.018 146.835 148.491C148.095 150.831 150.596 152.468 153.281 152.468C156.489 152.673 159.66 150.497 160.609 147.425C160.678 147.234 160.817 146.854 160.891 146.66C155.998 146.59 151.102 146.663 146.209 146.623Z"
            fill="#FFE9C1" />
        <path
            d="M66.5791 210.11C72.4898 210.128 78.4006 210.052 84.3076 210.231L84.2747 210.561C82.8098 210.191 81.2937 210.312 79.7995 210.301C75.5624 210.224 71.3216 210.37 67.0881 210.205C67.0186 210.41 66.8831 210.821 66.8171 211.026L66.5864 211.67V211.502C66.5864 211.037 66.5864 210.572 66.5791 210.11Z"
            fill="#FFE9C1" />
        <path
            d="M215.259 110.386C215.827 111.162 216.01 112.122 216.31 113.015C217.27 113.385 218.251 113.704 219.233 114.015C218.196 114.616 216.42 114.301 216.083 115.722C215.834 116.41 215.614 117.109 215.362 117.794C214.984 116.956 214.834 116.044 214.505 115.194C213.864 114.315 212.49 114.744 211.784 113.923C212.666 113.616 213.596 113.407 214.42 112.946C214.845 112.151 214.951 111.228 215.259 110.386Z"
            fill="#FDFFFC" />
        <path
            d="M177.044 111.858C177.601 111.569 178.092 111.173 178.597 110.807C179.245 111.448 179.795 112.191 179.996 113.099C180.509 113.575 181.029 114.044 181.542 114.52C180.084 114.29 178.773 113.586 177.451 112.982C176.528 112.524 175.547 112.133 174.796 111.407C175.554 111.517 176.29 111.733 177.044 111.858Z"
            fill="#A46934" />
        <path
            d="M116.417 119.706C117.479 118.175 119.424 117.132 121.31 117.582C121.219 120.541 121.259 123.508 121.416 126.467C120.633 124.551 121.281 122.467 120.808 120.501C119.86 120.922 118.834 121.369 118.292 122.314C116.066 126.053 117.827 131.916 122.108 133.253C122.295 133.959 122.405 134.681 122.46 135.413C121.563 135.34 120.691 135.08 119.962 134.545C117.15 132.527 115.202 129.283 114.949 125.807C114.78 123.698 115.125 121.438 116.417 119.706Z"
            fill="#FEEAC1" />
        <path
            d="M185.882 117.447C188.452 117.194 190.771 119.058 191.558 121.427C193.228 126.269 191.078 132.015 186.783 134.739C186.12 135.179 185.329 135.311 184.56 135.406C184.79 133.758 185.109 132.128 185.255 130.469C185.27 131.429 185.336 132.388 185.42 133.344C189.361 131.634 191.14 126.313 189.156 122.548C188.548 121.314 187.218 120.808 185.959 120.552C185.889 119.622 185.885 118.692 185.885 117.762L185.882 117.447Z"
            fill="#FEEAC1" />
        <path
            d="M144.759 161.806C146.15 162.085 147.553 162.304 148.967 162.436C151.973 162.685 155.009 162.682 158.016 162.444C158.199 162.429 158.561 162.4 158.741 162.381C158.796 163.703 159.056 165.084 158.609 166.366C158.137 167.263 157.313 167.897 156.624 168.618C156.815 168.64 157.195 168.684 157.386 168.706C153.592 170.032 148.849 169.475 146.073 166.369C144.88 165.172 144.678 163.418 144.759 161.806Z"
            fill="#FEEAC1" />
        <path
            d="M121.31 117.582L121.68 117.348C121.896 119.809 121.691 122.284 121.856 124.749C121.793 125.32 122.05 126.122 121.416 126.466C121.259 123.507 121.218 120.541 121.31 117.582Z"
            fill="#3D0536" />
        <path
            d="M183.823 117.641L183.969 117.348C184.16 118.087 184.204 118.856 184.164 119.622C184.054 121.918 184.153 124.218 183.904 126.507L183.46 126.481C183.753 123.544 183.515 120.578 183.823 117.641Z"
            fill="#420D32" />
        <path
            d="M185.709 123.273C185.841 121.438 185.636 119.589 185.885 117.761C185.885 118.692 185.888 119.622 185.958 120.552C187.218 120.808 188.547 121.314 189.155 122.548C191.14 126.313 189.36 131.634 185.42 133.344C185.335 132.388 185.27 131.429 185.255 130.469C185.376 128.07 185.705 125.683 185.709 123.273Z"
            fill="#DDBD86" />
        <path
            d="M118.292 122.314C118.834 121.369 119.86 120.922 120.808 120.501C121.281 122.467 120.632 124.551 121.416 126.466C121.716 128.711 121.878 130.989 122.108 133.252C117.827 131.916 116.066 126.053 118.292 122.314Z"
            fill="#DDBD86" />
        <path
            d="M136.852 120.006C139.419 118.681 142.598 118.435 145.286 119.541C146.366 119.999 147.135 120.988 147.308 122.145C143.572 119.567 138.068 119.885 134.691 122.932C134.944 121.695 135.691 120.559 136.852 120.006Z"
            fill="#540F60" />
        <path
            d="M162.183 119.373C164.908 118.439 168.065 118.75 170.544 120.215C171.57 120.772 172.082 121.863 172.372 122.943C169.028 119.951 163.443 119.453 159.814 122.207C159.807 120.819 160.949 119.779 162.183 119.373Z"
            fill="#581064" />
        <path
            d="M123.302 119.918C123.822 119.651 124.35 119.391 124.881 119.142C125.17 127.752 125.858 136.523 128.993 144.634C130.341 147.941 131.879 151.303 134.486 153.826C135.267 154.559 135.97 155.368 136.654 156.192C132.362 153.493 129.224 149.219 127.309 144.568C125.36 139.936 124.456 134.944 123.896 129.975C123.559 126.631 123.434 123.273 123.302 119.918Z"
            fill="#FFFEFF" />
        <path
            d="M120.995 174.331C125.258 166.941 133.216 162.084 141.555 160.803L141.371 160.839C139.581 161.125 137.947 161.964 136.277 162.623C130.385 165.091 125.1 169.054 121.273 174.192C121.204 174.225 121.065 174.294 120.995 174.331Z"
            fill="#FFFEFF" />
        <path
            d="M123.035 119.56L123.302 119.918C123.434 123.273 123.559 126.631 123.896 129.975L123.354 129.88C123.094 128.169 123.277 126.422 122.995 124.712C122.837 123.009 122.563 121.233 123.035 119.56Z"
            fill="#3C1442" />
        <path
            d="M83.0882 124.145C84.3626 123.932 83.5826 121.764 84.7105 121.53C85.0145 122.292 85.1866 123.094 85.3624 123.892C86.2706 124.276 87.2081 124.591 88.1493 124.881C87.4644 125.694 86.1497 125.309 85.4319 126.082C85.1207 126.946 84.9009 127.84 84.5787 128.7C84.1246 127.829 83.8682 126.873 83.5679 125.943C82.8281 125.481 81.887 125.525 81.1143 125.119C81.4878 124.463 82.4583 124.489 83.0882 124.145Z"
            fill="#FDFFFD" />
        <path
            d="M136.633 127.14C137.867 124.833 141.049 123.819 143.327 125.185C146.795 127.133 147.22 132.546 144.334 135.179C143.682 135.768 142.862 136.354 141.954 136.343C141.35 136.058 140.592 135.893 140.057 136.416C136.061 135.658 134.516 130.345 136.633 127.14ZM141.507 127.946C140.877 129.44 143.195 130.982 144.232 129.572C145.411 128.565 144.36 126.866 143.045 126.697C142.445 126.986 141.701 127.221 141.507 127.946Z"
            fill="#56015D" />
        <path
            d="M165.216 124.635C166.717 124.368 168.303 124.84 169.405 125.891C172.097 128.356 171.991 133.194 169.112 135.468C167.57 136.731 165.263 136.907 163.568 135.838C160.275 133.842 159.858 128.623 162.634 126.02C163.322 125.302 164.241 124.822 165.216 124.635ZM167.394 126.737C166.618 127.213 165.963 128.264 166.603 129.114C166.805 129.707 167.497 129.792 167.966 130.085C168.739 129.828 169.68 129.337 169.691 128.4C169.771 127.605 169.057 127.085 168.526 126.635C168.691 125.913 167.102 126.023 167.394 126.737Z"
            fill="#56025F" />
        <path
            d="M167.395 126.737C167.102 126.023 168.691 125.913 168.526 126.635C168.149 126.693 167.772 126.726 167.395 126.737Z"
            fill="#2A0534" />
        <path
            d="M203.277 126.437C203.921 126.133 204.665 126.21 205.324 126.422C210.682 128.067 216.05 129.667 221.415 131.286C222.631 131.663 224.089 131.853 224.865 132.985C225.048 133.622 225.037 134.318 224.887 134.966C223.715 138.559 222.624 142.177 221.558 145.803C221.284 146.996 220.064 147.912 218.83 147.502C216.468 146.861 214.135 146.114 211.791 145.403C208.25 144.488 204.837 143.122 201.273 142.312C199.9 143.356 198.618 144.532 197.106 145.378C198.362 139.884 200.281 134.552 201.775 129.118C202.083 128.147 202.347 127.005 203.277 126.437ZM204.914 129.901C204.855 130.092 204.738 130.476 204.679 130.67C207.455 131.89 210.491 132.428 213.355 133.435C214.106 133.608 215.329 134.285 215.523 133.073C213.406 132.168 211.139 131.725 208.971 130.963C207.613 130.638 206.32 129.997 204.914 129.901ZM203.877 133.692C208.107 134.893 212.293 136.233 216.512 137.467C217.607 137.823 218.702 138.218 219.87 138.233C219.87 138.009 219.874 137.563 219.877 137.339C214.611 135.772 209.338 134.237 204.101 132.575C203.958 132.93 203.881 133.304 203.877 133.692ZM203.108 135.625C203.123 135.819 203.152 136.204 203.167 136.394C207.129 137.753 211.202 138.811 215.19 140.108C215.823 140.456 216.717 140.276 216.358 139.375C213.036 138.218 209.62 137.343 206.272 136.263C205.236 136.043 204.159 135.296 203.108 135.625ZM202.489 138.02C202.42 138.288 202.277 138.819 202.207 139.082C207.752 140.686 213.256 142.411 218.79 144.045C218.903 143.733 219.024 143.426 219.141 143.114C213.633 141.291 208.041 139.716 202.489 138.02Z"
            fill="#FFFFFE" />
        <path
            d="M167.395 126.737C167.772 126.726 168.149 126.693 168.526 126.635C169.057 127.085 169.771 127.605 169.691 128.4C169.68 129.337 168.739 129.828 167.966 130.085C167.497 129.792 166.805 129.707 166.604 129.114C165.963 128.264 166.618 127.213 167.395 126.737Z"
            fill="#FCFDFC" />
        <path
            d="M141.507 127.946C141.701 127.221 142.444 126.986 143.045 126.697C144.36 126.865 145.411 128.565 144.231 129.572C143.195 130.982 140.877 129.44 141.507 127.946Z"
            fill="#FDFDFE" />
        <path
            d="M204.914 129.901C206.32 129.997 207.613 130.637 208.971 130.963C211.139 131.725 213.406 132.168 215.523 133.073C215.329 134.285 214.106 133.607 213.355 133.435C210.491 132.428 207.455 131.89 204.679 130.67C204.738 130.476 204.855 130.092 204.914 129.901Z"
            fill="#7CD0F1" />
        <path
            d="M203.877 133.692C203.881 133.304 203.958 132.93 204.1 132.575C209.337 134.238 214.611 135.772 219.877 137.339C219.873 137.563 219.87 138.01 219.87 138.233C218.701 138.218 217.606 137.823 216.511 137.468C212.293 136.233 208.107 134.893 203.877 133.692Z"
            fill="#7DD0F2" />
        <path
            d="M116.366 142.32C116.527 140.115 116.077 137.889 116.516 135.702C116.765 137.043 116.765 138.412 116.707 139.771C116.626 141.598 116.853 143.444 116.512 145.257C116.326 144.286 116.296 143.301 116.366 142.32Z"
            fill="#2B1552" />
        <path
            d="M118.194 135.849C118.512 136.083 118.823 136.321 119.142 136.563L119.168 136.827C119.567 140.624 119.31 144.459 118.695 148.216C118.069 151.376 116.992 154.526 114.974 157.082C112.429 160.323 110.99 164.579 111.697 168.702C111.99 171.035 112.902 173.221 113.762 175.393C113.195 175.499 112.748 175.159 112.623 174.62C111.21 171.397 110.206 167.82 110.789 164.278C111.184 161.495 112.513 158.924 114.22 156.716C116.718 153.464 117.736 149.348 118.175 145.338C118.457 142.28 118.421 139.203 118.215 136.146L118.194 135.849Z"
            fill="#FFFDFC" />
        <path
            d="M203.108 135.625C204.159 135.296 205.236 136.043 206.272 136.263C209.619 137.343 213.036 138.218 216.358 139.375C216.717 140.276 215.823 140.456 215.189 140.108C211.201 138.812 207.129 137.753 203.167 136.394C203.152 136.204 203.123 135.82 203.108 135.625Z"
            fill="#7ECFEF" />
        <path
            d="M117.791 135.948L118.215 136.146C118.421 139.203 118.457 142.28 118.175 145.338C117.45 144.7 117.879 143.539 117.813 142.69C118.095 140.441 117.611 138.196 117.791 135.948Z"
            fill="#360742" />
        <path
            d="M140.057 136.417C140.591 135.893 141.349 136.058 141.954 136.343C141.415 136.699 140.628 136.68 140.057 136.417Z"
            fill="#3D083C" />
        <path
            d="M119.168 136.827C120.428 137.076 121.662 137.515 122.969 137.453C123.204 139.313 124.094 141.049 124.174 142.92C123.804 144.909 123.698 146.934 123.354 148.93C122.768 152.087 121.684 155.225 119.71 157.796C118.036 160.026 116.615 162.561 116.344 165.388C115.788 168.801 116.842 172.196 117.992 175.375C116.582 175.404 115.173 175.349 113.763 175.393C112.902 173.221 111.99 171.035 111.697 168.702C110.99 164.579 112.43 160.323 114.975 157.082C116.993 154.526 118.069 151.376 118.696 148.216C119.311 144.459 119.567 140.624 119.168 136.827Z"
            fill="#D77F26" />
        <path
            d="M246.607 200.735C248.153 200.702 249.698 200.607 251.24 200.794C251.339 201.815 251.394 202.841 251.24 203.863C249.695 203.961 248.145 203.991 246.6 203.91C246.56 202.848 246.556 201.79 246.607 200.735Z"
            fill="#D77F26" />
        <path
            d="M187.5 136.955C187.895 137.343 188.126 138.815 187.408 138.998L187.364 138.738C187.331 138.149 187.266 137.508 187.5 136.955Z"
            fill="#480430" />
        <path
            d="M184.962 137.577C185.705 137.427 186.397 137.105 187.141 136.955C187.203 137.548 187.258 138.149 187.364 138.738L187.408 138.998C187.972 143.005 189.294 146.942 191.47 150.366C194.527 154.625 197.882 158.953 198.874 164.238C199.248 166.465 199.248 168.735 198.889 170.958C198.574 172.43 198.223 173.91 197.618 175.29C196.912 175.466 196.172 175.36 195.454 175.371C196.882 171.643 197.483 167.486 196.472 163.579C195.461 159.415 193.121 155.734 190.539 152.373C187.43 148.337 185.683 143.371 185.094 138.343C185.061 138.149 184.995 137.768 184.962 137.577Z"
            fill="#FFAD59" />
        <path
            d="M66.8171 211.026C67.2456 212.381 66.9746 213.813 67.1504 215.204C67.3005 216.424 67.491 217.636 67.5313 218.866C67.4507 218.94 67.2932 219.09 67.2163 219.163L67.1101 219.255L67.1028 218.998C67.0662 217.515 66.9636 216.035 66.8062 214.567C66.7329 213.6 66.6011 212.637 66.5864 211.67L66.8171 211.026Z"
            fill="#FFAD59" />
        <path
            d="M184.186 137.691C184.611 137.259 184.816 138.13 185.094 138.343C185.684 143.371 187.43 148.337 190.54 152.373C193.121 155.734 195.462 159.415 196.472 163.579C197.483 167.486 196.882 171.643 195.454 175.371C193.294 175.206 191.016 175.7 188.928 175.104C187.61 172.844 186.292 170.548 184.504 168.614C180.531 164.121 175.104 161.143 169.391 159.47C170.464 158.558 171.786 158.009 172.873 157.115C178.506 152.977 181.879 146.436 183.53 139.767C183.743 139.079 183.776 138.295 184.186 137.691Z"
            fill="#9E6126" />
        <path
            d="M124.174 142.92C124.452 143.257 124.69 143.627 124.84 144.045C126.096 147.304 127.682 150.501 130.004 153.138C130.447 153.64 130.883 154.152 131.231 154.731C131.553 155.43 132.3 156.071 132.285 156.855C131.348 157.357 130.209 156.815 129.22 157.225C129.524 157.855 130.055 158.437 130.103 159.151C129.784 159.851 129.433 160.535 129.088 161.224C129.671 161.279 130.257 161.334 130.846 161.392C130.524 161.806 130.198 162.216 129.857 162.616C128.957 163.396 127.854 163.912 126.917 164.652C123.079 167.387 120.145 171.214 117.992 175.374C116.842 172.196 115.787 168.801 116.344 165.388C116.615 162.561 118.036 160.026 119.71 157.796C121.684 155.225 122.768 152.087 123.353 148.93C123.698 146.934 123.804 144.909 124.174 142.92Z"
            fill="#9E6126" />
        <path
            d="M202.489 138.021C208.041 139.716 213.633 141.291 219.141 143.115C219.024 143.426 218.903 143.733 218.789 144.045C213.256 142.411 207.752 140.687 202.207 139.083C202.277 138.819 202.419 138.288 202.489 138.021Z"
            fill="#80D2F4" />
        <path
            d="M146.209 146.623C151.102 146.663 155.998 146.59 160.891 146.659C160.817 146.854 160.678 147.234 160.609 147.425L160.356 147.194C157.657 146.916 154.929 147.154 152.219 147.081C150.241 147.121 148.267 146.927 146.293 147.084L146.209 146.623Z"
            fill="#380A37" />
        <path
            d="M146.293 147.084C148.267 146.927 150.241 147.121 152.219 147.081C154.929 147.154 157.657 146.916 160.356 147.194C160.217 147.403 159.935 147.817 159.792 148.026C158.968 147.139 157.679 147.476 156.602 147.41C153.797 147.484 150.981 147.282 148.183 147.487C147.542 147.48 147.235 148.106 146.835 148.491C146.66 148.018 146.477 147.549 146.293 147.084Z"
            fill="#5E2069" />
        <path
            d="M146.835 148.491C147.235 148.106 147.542 147.48 148.183 147.487C150.981 147.282 153.797 147.484 156.602 147.41C157.679 147.476 158.968 147.139 159.792 148.026C159.935 147.817 160.217 147.403 160.356 147.194L160.609 147.425C159.66 150.498 156.489 152.673 153.281 152.468C150.596 152.468 148.095 150.831 146.835 148.491Z"
            fill="#56005D" />
        <path
            d="M230.849 174.166C231.219 165.34 233.551 156.515 238.07 148.894C238.136 149.157 238.272 149.688 238.338 149.952C238.272 150.574 238.173 151.193 238.14 151.82C238.246 166.618 238.118 181.472 236.294 196.179C236.199 196.989 236.28 197.882 235.716 198.541C235.705 197.186 235.727 195.828 235.591 194.48C235.295 187.5 234.024 180.443 230.849 174.166Z"
            fill="#A4DC6E" />
        <path
            d="M221.715 167.618C221.8 166.856 221.748 166.036 222.151 165.351C222.206 165.542 222.316 165.915 222.371 166.102C226.077 176.843 230.19 187.507 232.588 198.644C230.842 198.6 229.095 198.629 227.352 198.615C222.679 189.053 220.961 178.191 221.715 167.618Z"
            fill="#A4DC6E" />
        <path
            d="M238.338 149.952C239.228 151.413 239.503 153.138 240.026 154.746C240.415 156.174 240.909 157.642 240.601 159.137C240.726 158.543 240.861 157.95 240.997 157.36C240.795 159.074 241.59 160.708 241.418 162.425C241.543 161.967 241.667 161.513 241.792 161.056C241.403 163.062 242.249 165.04 242.063 167.04C241.876 167.944 241.726 168.863 241.843 169.79C242.198 173.28 242.081 176.84 241.305 180.271C241.187 180.791 241.136 181.322 241.118 181.86C241.114 182.366 240.964 182.849 240.792 183.322C239.737 186.321 238.95 189.408 238.217 192.503C238.034 193.191 238.02 193.909 238.078 194.619C237.961 194.29 237.847 193.964 237.738 193.638C237.844 195.286 237.21 196.868 237.262 198.52C236.661 198.6 236.068 198.681 235.471 198.717C235.625 197.307 235.478 195.89 235.592 194.48C235.727 195.828 235.705 197.186 235.716 198.541C236.28 197.882 236.199 196.989 236.295 196.179C238.118 181.472 238.247 166.618 238.14 151.82C238.173 151.193 238.272 150.574 238.338 149.952Z"
            fill="#609A29" />
        <path
            d="M131.231 154.731C132.542 155.661 133.659 156.833 134.999 157.727C135.86 158.316 136.83 158.748 137.596 159.473C134.933 160.305 132.388 161.455 129.857 162.616C130.198 162.216 130.524 161.806 130.846 161.392C130.257 161.334 129.671 161.279 129.088 161.224C129.433 160.535 129.784 159.851 130.103 159.151C130.055 158.437 129.524 157.855 129.22 157.225C130.209 156.815 131.348 157.357 132.285 156.855C132.3 156.071 131.553 155.43 131.231 154.731Z"
            fill="#A46933" />
        <path
            d="M264.134 157.023C264.229 157.034 264.42 157.06 264.515 157.071C264.449 160.953 263.512 164.765 262.622 168.53C259.769 179.502 254.184 189.8 246.321 197.988C246.017 198.27 245.724 198.659 245.256 198.596C243.798 198.659 242.341 198.585 240.887 198.629C243.567 191.796 247.145 185.361 250.782 179C253.986 173.371 257.553 167.962 260.952 162.447C261.864 161.037 262.764 159.624 263.735 158.25C263.925 157.928 264.218 157.613 264.134 157.203V157.023Z"
            fill="#5F9A29" />
        <path
            d="M245.802 175.876C249.867 167.992 256.502 161.627 264.134 157.203C264.219 157.613 263.926 157.928 263.735 158.25C262.765 159.624 261.864 161.037 260.952 162.447C257.554 167.962 253.987 173.371 250.782 179C247.146 185.361 243.568 191.796 240.887 198.629C240.166 198.618 239.451 198.611 238.737 198.6C240.155 190.789 241.993 182.908 245.802 175.876Z"
            fill="#A4DC70" />
        <path
            d="M158.478 160.261C159.012 160.177 159.558 160.125 160.1 160.067C160.173 160.799 158.543 160.905 158.478 160.261Z"
            fill="#320432" />
        <path
            d="M136.277 162.623C137.947 161.964 139.58 161.125 141.371 160.839C141.796 160.99 142.221 161.143 142.649 161.308C142.386 163.729 142.898 166.347 144.704 168.098C149.402 172.785 158.118 172.723 162.623 167.786C164.249 166.058 164.6 163.593 164.359 161.319C164.465 161.326 164.677 161.337 164.78 161.341C167.709 162.63 170.698 163.905 173.217 165.919C176.627 168.446 179.575 171.613 181.681 175.309C161.282 175.32 140.88 175.309 120.479 175.32C120.563 175.092 120.731 174.642 120.815 174.415L120.995 174.331C121.064 174.294 121.204 174.225 121.273 174.192C125.1 169.054 130.385 165.091 136.277 162.623Z"
            fill="#E85B9F" />
        <path
            d="M164.78 161.341C165.78 160.349 167.153 161.158 168.295 161.396C173.873 162.868 179.168 165.761 182.981 170.152C184.295 171.723 185.694 173.335 186.416 175.279C184.837 175.32 183.259 175.29 181.681 175.309C179.575 171.614 176.627 168.446 173.217 165.919C170.698 163.905 167.71 162.63 164.78 161.341Z"
            fill="#CD1489" />
        <path
            d="M210.125 160.982C210.828 161.641 210.857 162.663 211.209 163.509C212.025 163.923 212.93 164.124 213.791 164.432C213.183 165.186 212.062 165.003 211.297 165.516C210.81 166.307 210.956 167.486 210.088 168.014C209.737 167.138 209.828 165.922 208.968 165.355C208.125 165.069 207.254 164.882 206.43 164.553C207.389 164.22 208.4 164.011 209.304 163.535C209.737 162.747 209.832 161.824 210.125 160.982Z"
            fill="#FFFFFD" />
        <path
            d="M148.736 162.136C149.889 162.063 151.05 162.088 152.208 162.151C154.229 162.282 156.251 161.975 158.272 162.118L158.016 162.444C155.009 162.682 151.973 162.685 148.967 162.436L148.736 162.136Z"
            fill="#360531" />
        <path
            d="M158.741 162.381C159.935 162.227 161.122 162.026 162.308 161.813C162.806 165.022 160.331 167.863 157.386 168.706C157.196 168.684 156.815 168.64 156.625 168.618C157.313 167.896 158.137 167.263 158.609 166.366C159.056 165.084 158.796 163.703 158.741 162.381Z"
            fill="#DEBE85" />
        <path
            d="M198.875 164.238C199.684 164.531 199.493 165.476 199.523 166.142C199.468 167.838 199.655 169.552 199.27 171.218L198.889 170.958C199.248 168.735 199.248 166.464 198.875 164.238Z"
            fill="#641D31" />
        <path
            d="M95.5613 167.706C96.3707 167.014 95.8873 165.608 96.7479 164.992C97.0518 165.879 97.3301 166.769 97.6121 167.662C98.5863 167.955 99.5457 168.277 100.52 168.574C99.5934 168.948 98.6449 169.266 97.678 169.512C97.2752 170.343 97.2386 171.438 96.4988 172.057C96.2242 171.229 96.1033 170.339 95.6712 169.577C94.7593 169.226 93.8108 168.977 92.9282 168.552C93.7962 168.237 94.697 168.028 95.5613 167.706Z"
            fill="#FFFEFC" />
        <path
            d="M222.371 166.102C223.184 166.347 223.657 167.091 224.217 167.677C227.729 171.463 230.318 176.085 231.794 181.033C232.197 182.476 232.808 183.937 232.578 185.468C232.684 185.131 232.797 184.797 232.911 184.468C232.83 186.445 233.614 188.317 233.665 190.283C233.742 193.019 234.02 195.744 234.042 198.483C233.555 198.541 233.072 198.604 232.589 198.644C230.19 187.507 226.077 176.843 222.371 166.102Z"
            fill="#609A2A" />
        <path
            d="M242.063 167.04C242.648 170.226 242.432 173.5 242.447 176.726C242.487 178.491 242.315 180.465 241.118 181.86C241.136 181.322 241.187 180.791 241.304 180.271C242.081 176.839 242.198 173.28 241.843 169.79C241.726 168.863 241.876 167.944 242.063 167.04Z"
            fill="#749252" />
        <path
            d="M107.009 179.656C106.742 178.334 108.061 177.242 109.324 177.44C129.887 177.44 150.446 177.436 171.006 177.436C167.076 177.883 163.099 177.535 159.151 177.696C156.577 177.572 154.043 178.154 151.475 178.048C146.718 178.074 141.957 178.11 137.208 178.352C128.213 178.392 119.219 178.612 110.229 178.766C108.983 178.718 108.299 180.018 108.496 181.124C109.947 193.015 111.43 204.906 112.858 216.797C113.052 218.178 113.345 219.559 113.195 220.957C111.657 219.947 111.708 218.024 111.507 216.405C111.254 214.413 111.049 212.414 110.749 210.429C110.624 209.374 110.496 208.316 110.364 207.265C109.298 198.054 108.112 188.859 107.009 179.656Z"
            fill="#FCFFFA" />
        <path
            d="M171.006 177.436C178.337 177.371 185.673 177.44 193 177.469C191.993 180 190.426 182.245 188.884 184.475C187.46 186.464 186.075 188.492 184.413 190.291C182.585 192.477 180.743 194.671 178.528 196.48C173.543 201.299 167.776 205.232 161.733 208.598C155.273 212.033 148.502 214.908 141.452 216.904C134.776 218.947 127.88 220.09 121.021 221.305C118.6 221.36 116.183 221.368 113.766 221.309C113.568 221.192 113.378 221.075 113.195 220.958C113.345 219.559 113.052 218.178 112.858 216.797C111.429 204.906 109.946 193.015 108.496 181.124C108.298 180.018 108.983 178.718 110.228 178.766C119.219 178.612 128.213 178.392 137.207 178.352C141.957 178.11 146.718 178.074 151.475 178.048C154.042 178.154 156.577 177.572 159.151 177.696C163.099 177.535 167.076 177.883 171.006 177.436ZM152.372 196.033C149.999 196.721 149.139 200.094 150.933 201.812C152.596 203.782 156.229 202.995 156.892 200.482C157.913 197.831 155.013 194.996 152.372 196.033Z"
            fill="#D8CADB" />
        <path
            d="M48.0483 228.582C48.1289 228.637 48.2864 228.747 48.3633 228.806C48.876 229.201 49.2678 229.875 50.0222 229.747C117.285 229.714 184.548 229.765 251.807 229.736C253.624 229.721 255.451 229.846 257.26 229.586C257.169 229.652 256.993 229.791 256.905 229.86C199.79 229.776 142.679 229.871 85.5635 229.824C73.526 229.871 61.4848 229.736 49.4509 229.89C48.8613 229.608 48.4072 229.113 48.0483 228.582Z"
            fill="#D8CADB" />
        <path
            d="M193 177.469C194.901 177.601 196.809 177.341 198.706 177.532C199.801 177.748 200.229 179.059 200.002 180.04C198.398 192.96 196.846 205.891 195.234 218.808C195.077 219.983 194.172 220.855 193.147 221.349C181.699 221.32 170.251 221.346 158.799 221.335C151.039 221.39 143.272 221.228 135.512 221.419L135.31 221.382C134.732 221.236 134.135 221.294 133.556 221.368C133.428 221.375 133.172 221.39 133.043 221.397C129.037 221.272 125.027 221.375 121.021 221.305C127.88 220.09 134.776 218.947 141.452 216.903C148.501 214.908 155.273 212.033 161.733 208.598C167.775 205.232 173.543 201.299 178.527 196.48C180.743 194.67 182.585 192.477 184.413 190.291C186.075 188.492 187.459 186.464 188.884 184.475C190.426 182.245 191.993 180 193 177.469Z"
            fill="#C0AFC5" />
        <path
            d="M196.556 221.32C197.684 219.185 197.541 216.695 197.907 214.369C199.837 214.369 201.764 214.369 203.694 214.365C203.492 215.882 203.104 217.357 202.58 218.793C202.163 219.731 201.577 220.588 200.845 221.313C199.416 221.342 197.984 221.324 196.556 221.32Z"
            fill="#C0AFC5" />
        <path
            d="M67.6521 184.49C67.2346 183.369 68.2307 181.999 69.4062 182.014C71.3362 181.996 73.2698 181.926 75.1961 182.051C75.3133 182.296 75.544 182.787 75.6576 183.032C73.5994 183.852 71.2849 182.889 69.1829 183.468C68.8203 184.003 68.4724 185.207 67.6521 184.49Z"
            fill="#FFFEFD" />
        <path
            d="M248.156 198.571C251.324 195.18 254.14 191.462 256.502 187.467C256.301 189.869 256.034 192.272 255.858 194.681C255.008 202.511 253.129 210.202 250.581 217.647C250.438 218.068 250.17 218.398 249.782 218.636C250.192 214.435 250.826 210.257 251.339 206.067C252.247 205.58 253.247 204.895 253.324 203.76C253.346 202.313 253.715 200.552 252.598 199.402C251.46 198.179 249.632 198.688 248.156 198.571Z"
            fill="#7BD3F5" />
        <path
            d="M152.373 196.033C155.013 194.996 157.914 197.831 156.892 200.482C156.229 202.995 152.596 203.782 150.933 201.812C149.139 200.094 150 196.721 152.373 196.033Z"
            fill="#57015E" />
        <path
            d="M64.019 196.443C64.5537 196.146 65.1616 196.058 65.7622 196.069C72.2369 196.051 78.7116 196.102 85.1863 196.084C85.7833 196.04 86.3582 196.216 86.8636 196.538L86.4754 196.633C85.4317 196.546 84.3917 196.45 83.3443 196.48C77.0527 196.593 70.7538 196.37 64.4622 196.6L64.019 196.443Z"
            fill="#29104C" />
        <path
            d="M63.4808 198.333C63.3453 197.637 63.565 196.967 64.0191 196.443L64.4622 196.6C65.5646 197.113 66.795 196.871 67.9633 196.882C73.4638 196.842 78.9644 196.871 84.465 196.915C85.1461 196.941 85.82 196.82 86.4755 196.633L86.8637 196.538C87.728 197.798 87.0651 199.351 87.0614 200.746C87.9733 200.75 88.8889 200.753 89.7971 200.881C88.9694 201.244 88.0612 201.281 87.1896 201.453C86.6513 201.892 86.2558 202.471 85.8126 203.002C85.4684 202.852 85.1278 202.698 84.7836 202.559C85.1535 201.112 85.0656 199.614 85.0985 198.142C78.5762 198.149 72.0539 198.069 65.5353 198.131C65.6158 199.596 65.6854 201.068 65.8246 202.533C65.8905 202.588 66.0187 202.694 66.0846 202.749C66.5716 203.258 67.3114 203.115 67.9486 203.145C73.072 203.02 78.1953 203.17 83.3187 203.123C83.5091 203.276 83.8864 203.58 84.0768 203.734C83.0807 204.657 81.6378 204.251 80.411 204.313C75.6831 204.276 70.9479 204.196 66.2237 204.328L66.2018 204.668C66.1322 205.774 66.264 206.876 66.3556 207.982C70.4352 207.927 74.5149 208.004 78.5945 207.949C80.5062 207.744 82.4288 207.755 84.3478 207.766C84.3844 207.539 84.4576 207.078 84.4943 206.851C84.7286 207.045 85.1974 207.44 85.4318 207.638C85.494 208.587 85.5893 209.531 85.7028 210.476C85.7504 209.436 85.9005 208.411 86.0727 207.389C86.2118 208.286 86.3253 209.195 86.329 210.106C86.2118 211.666 86.0617 213.223 86.0397 214.787C87.6401 214.662 89.8593 215.31 90.8042 213.574C91.4487 212 91.0202 210.238 91.1338 208.587C91.0569 206.671 91.7051 204.126 89.6689 202.987L89.4785 202.658C89.4162 202.577 89.2917 202.416 89.2294 202.335C88.8852 202.086 88.53 201.856 88.1747 201.625C89.1599 201.738 90.2512 201.691 91.0898 202.313C91.6391 202.782 91.9321 203.467 92.3057 204.071C92.5034 203.844 92.7012 203.621 92.9026 203.397C93.6131 205.547 93.1773 207.84 93.3018 210.059C93.3823 212.077 93.3897 214.45 91.6868 215.86C90.0864 217.295 87.8195 216.852 85.8603 216.918C85.6515 218.775 85.798 220.683 85.278 222.495C85.3256 222.605 85.4171 222.825 85.4611 222.935C86.0653 223.18 86.7245 223.243 87.3727 223.246C92.1335 223.257 96.898 223.184 101.659 223.261C102.443 223.279 103.241 223.243 103.966 222.917L104.204 222.832L104.171 222.474C102.86 220.642 101.933 218.551 101.542 216.328C101.359 215.065 100.864 213.714 101.373 212.468C103.171 212.794 105.002 212.663 106.819 212.688C107.518 212.681 108.273 212.721 108.866 212.274C108.969 211.937 109.067 211.601 109.163 211.267C109.313 211.579 109.467 211.89 109.62 212.205C109.723 211.879 109.829 211.557 109.935 211.234C110.027 212.117 110.177 212.996 110.173 213.886C109.994 214.658 109.646 215.391 109.628 216.2C109.767 216.109 110.052 215.926 110.195 215.83C110.635 216.013 111.071 216.204 111.506 216.405C111.708 218.024 111.657 219.947 113.195 220.957C113.378 221.075 113.568 221.192 113.766 221.309C113.619 221.448 113.33 221.73 113.187 221.873C113.605 222.041 114.037 222.155 114.484 222.214C120.134 222.301 125.796 222.038 131.44 222.276C131.806 222.774 132.245 223.217 132.743 223.594C122.753 223.741 112.759 223.605 102.768 223.682C93.3713 223.759 83.9779 223.634 74.5808 223.678C66.8903 223.579 59.1997 223.836 51.5092 223.7C50.8903 223.693 50.2494 223.675 49.6708 223.924C49.5463 224.081 49.3009 224.4 49.1764 224.561C47.88 225.425 47.3966 227.168 48.0484 228.582C48.4073 229.113 48.8614 229.607 49.451 229.889C50.6522 230.457 52.0182 230.182 53.3 230.23C73.9289 230.219 94.5579 230.23 115.187 230.223C119.548 230.226 123.906 230.186 128.268 230.296C129.044 230.376 129.821 230.49 130.608 230.527C171.13 230.472 211.659 230.545 252.185 230.508C253.576 230.49 254.975 230.658 256.367 230.479L256.645 230.149L256.905 229.86C256.993 229.791 257.169 229.651 257.26 229.585C257.608 229.314 257.96 229.043 258.286 228.747C259 228.201 258.842 227.223 259.007 226.447C259.721 228.267 260.703 229.952 261.611 231.688C261.692 231.171 261.776 230.658 261.864 230.149C262.688 231.937 262.779 234.028 262.186 235.899C261.534 237.778 259.883 239.202 257.989 239.733L257.7 239.415C256.982 238.591 255.704 239.081 254.748 238.95C216.534 238.961 178.319 238.968 140.108 238.983C134.241 238.909 128.371 239.111 122.511 238.891C122.189 237.13 121.515 235.134 119.841 234.236C119.592 234.676 119.347 235.123 119.105 235.569C118.322 235.536 117.542 235.489 116.758 235.456C116.835 236.338 117.077 237.239 116.919 238.126C116.615 238.43 116.278 238.693 115.945 238.972C96.9053 238.972 77.8694 238.95 58.8298 238.972C55.7902 239.001 52.725 238.616 49.7001 239.048C49.5939 239.122 49.3888 239.268 49.2826 239.341L48.964 239.686C47.338 239.21 45.8694 238.122 45.148 236.566C44.0384 234.214 44.2178 231.167 45.9061 229.131C45.6461 227.414 45.4813 225.385 46.7447 223.997C47.3014 223.265 48.151 222.88 48.9786 222.539L49.2789 222.865C49.6048 223.371 50.275 223.206 50.7767 223.279C55.5961 223.279 60.4156 223.276 65.2276 223.147L65.3961 222.825L65.5939 222.437L65.6012 222.422C65.4767 222.206 65.3558 221.986 65.2459 221.767C64.9676 217.354 64.649 212.941 64.3927 208.524C64.8028 207.217 64.8028 205.851 64.4989 204.522C64.3524 205.73 64.2681 206.95 64.3597 208.165C64.1326 204.88 63.8507 201.603 63.4808 198.333ZM65.7001 197.45C72.0686 197.538 78.448 197.596 84.8092 197.417C80.2938 197.296 75.7747 197.278 71.2592 197.318C69.4062 197.358 67.5348 197.139 65.7001 197.45ZM66.264 209.784C65.9088 210.963 66.0992 212.187 66.3226 213.369C66.4215 212.747 66.524 212.124 66.5863 211.502V211.67C66.6009 212.637 66.7328 213.6 66.806 214.567C66.4654 215.471 66.4508 216.449 66.5167 217.405C66.6119 217.947 66.4545 218.731 67.1027 218.998L67.11 219.254C66.6486 219.628 66.5204 220.833 67.2272 220.935C69.7797 221.247 72.3579 221.001 74.925 221.075C77.7925 220.998 80.682 221.243 83.5348 220.932L83.5714 220.976C83.4652 219.152 83.7985 217.35 83.8973 215.534L84.2269 215.343C84.4357 213.717 84.6151 212.066 84.5932 210.425C84.6115 209.564 83.5787 209.671 83.0001 209.619C78.7264 209.623 74.449 209.583 70.1716 209.605C68.8678 209.63 67.5421 209.447 66.264 209.784ZM103.354 214.362C103.761 216.852 104.285 219.635 106.291 221.371L106.042 221.675C107.017 221.778 107.998 221.814 108.979 221.774C109.485 221.661 110.225 221.913 110.536 221.364C109.294 219.251 109.576 216.676 109.111 214.344C107.192 214.376 105.273 214.358 103.354 214.362Z"
            fill="#520063" />
        <path
            d="M64.4624 196.6C70.754 196.37 77.0529 196.593 83.3445 196.48C84.3919 196.45 85.4319 196.545 86.4757 196.633C85.8201 196.82 85.1463 196.941 84.4651 196.915C78.9646 196.871 73.464 196.842 67.9634 196.882C66.7952 196.871 65.5647 197.113 64.4624 196.6Z"
            fill="#5C1866" />
        <path
            d="M65.7002 197.45C67.5349 197.139 69.4063 197.359 71.2594 197.318C75.7748 197.278 80.2939 197.296 84.8094 197.417C78.4482 197.597 72.0687 197.538 65.7002 197.45Z"
            fill="#561176" />
        <path
            d="M65.5352 198.131C72.0538 198.069 78.5761 198.15 85.0984 198.142C85.0655 199.614 85.1534 201.112 84.7835 202.559C84.6993 201.647 84.6553 200.735 84.6333 199.823C84.615 200.599 84.5931 201.38 84.5747 202.163C83.1685 202.273 81.7476 202.398 80.3449 202.167C79.5503 201.218 80.063 199.849 79.8725 198.713L79.7736 198.325C75.0861 198.263 70.3948 198.322 65.7073 198.285C65.7732 199.699 65.8281 201.116 65.8245 202.533C65.6853 201.068 65.6157 199.596 65.5352 198.131Z"
            fill="#C8A302" />
        <path
            d="M65.7075 198.285C70.3951 198.322 75.0863 198.263 79.7739 198.325L79.8728 198.713C75.3244 198.754 70.776 198.743 66.2275 198.75C66.2349 199.838 66.2459 200.929 66.2752 202.02C70.3731 202.277 74.4857 202.053 78.591 202.119C79.166 202.127 79.7153 202.321 80.2683 202.456C75.4562 202.632 70.6405 202.493 65.8247 202.533C65.8284 201.116 65.7734 199.699 65.7075 198.285Z"
            fill="#FBD345" />
        <path
            d="M66.2275 198.75C70.7759 198.743 75.3244 198.754 79.8728 198.714C80.0632 199.849 79.5505 201.219 80.3452 202.167C81.7478 202.398 83.1687 202.273 84.575 202.163C84.5933 201.38 84.6153 200.6 84.6336 199.823C84.6555 200.735 84.6995 201.647 84.7837 202.559C83.2859 202.398 81.7734 202.519 80.2683 202.456C79.7153 202.321 79.166 202.127 78.591 202.119C74.4857 202.054 70.3731 202.277 66.2751 202.021C66.2458 200.929 66.2349 199.838 66.2275 198.75Z"
            fill="#FFD619" />
        <path
            d="M220.562 199.863C230.721 199.896 240.883 199.772 251.042 199.944L251.028 200.358C241.136 200.241 231.241 200.306 221.346 200.288C221.232 200.288 220.998 200.285 220.881 200.285L220.562 199.863Z"
            fill="#3E0237" />
        <path
            d="M220.88 200.285C220.998 200.285 221.232 200.288 221.346 200.288C221.104 201.552 221.115 202.845 221.214 204.123C229.615 204.214 238.016 204.115 246.417 204.174C237.983 204.364 229.541 204.218 221.104 204.251C220.939 204.218 220.609 204.152 220.441 204.119C220.316 202.892 219.749 201.171 220.88 200.285Z"
            fill="#FFFDE7" />
        <path
            d="M221.346 200.288C231.241 200.307 241.136 200.241 251.028 200.358C251.214 200.596 251.405 200.834 251.599 201.076C251.416 202.02 252.042 203.456 251.148 204.082C249.57 204.166 247.992 204.097 246.417 204.174C238.016 204.115 229.615 204.214 221.214 204.122C221.115 202.844 221.104 201.552 221.346 200.288ZM246.607 200.735C246.556 201.79 246.56 202.848 246.6 203.91C248.145 203.991 249.695 203.961 251.24 203.862C251.394 202.841 251.339 201.815 251.24 200.794C249.698 200.607 248.153 200.702 246.607 200.735Z"
            fill="#FEAD5B" />
        <path
            d="M89.7972 200.882C91.1559 201.204 92.2289 202.204 92.9027 203.397C92.7013 203.621 92.5036 203.844 92.3058 204.071C91.9323 203.467 91.6393 202.782 91.09 202.313C90.2513 201.691 89.16 201.739 88.1749 201.625C88.5301 201.856 88.8853 202.086 89.2296 202.335C88.5118 202.178 87.7611 202.27 87.0799 202.526C87.7977 203.006 88.6839 202.753 89.4786 202.658L89.669 202.987C88.7279 202.881 87.783 202.859 86.8382 202.848C86.7283 205.273 86.4061 207.679 86.3292 210.107C86.3255 209.195 86.212 208.286 86.0728 207.389C85.9007 208.411 85.7505 209.436 85.7029 210.476C85.5894 209.532 85.4942 208.587 85.4319 207.638C85.1975 207.441 84.7288 207.045 84.4944 206.851C84.575 206.162 84.6043 205.474 84.6409 204.785C82.6267 204.848 80.6125 204.793 78.602 204.676C74.4711 204.65 70.3365 204.687 66.2019 204.668L66.2239 204.328C70.9481 204.196 75.6833 204.276 80.4111 204.313C81.6379 204.251 83.0808 204.657 84.0769 203.734C83.8865 203.581 83.5093 203.277 83.3189 203.123C83.5203 203.05 83.9231 202.903 84.1282 202.83C78.1186 202.614 72.098 202.801 66.0847 202.749C66.0188 202.694 65.8906 202.588 65.8247 202.533C70.6405 202.493 75.4562 202.632 80.2683 202.456C81.7734 202.519 83.2859 202.398 84.7837 202.559C85.128 202.698 85.4685 202.852 85.8128 203.002C86.2559 202.471 86.6514 201.892 87.1898 201.453C88.0614 201.281 88.9696 201.244 89.7972 200.882Z"
            fill="#5F1866" />
        <path
            d="M87.0796 202.526C87.7608 202.269 88.5115 202.178 89.2293 202.335C89.2915 202.416 89.4161 202.577 89.4783 202.658C88.6836 202.753 87.7974 203.006 87.0796 202.526Z"
            fill="#330F49" />
        <path
            d="M66.0845 202.749C72.0977 202.8 78.1183 202.614 84.1279 202.83C83.9229 202.903 83.52 203.049 83.3186 203.123C78.1952 203.17 73.0719 203.02 67.9485 203.145C67.3113 203.115 66.5715 203.258 66.0845 202.749Z"
            fill="#3F0240" />
        <path
            d="M86.8379 202.848C87.7827 202.859 88.7276 202.881 89.6688 202.987C91.7049 204.126 91.0567 206.671 91.1336 208.587C91.0201 210.238 91.4486 212 90.804 213.575C89.8592 215.31 87.6399 214.662 86.0396 214.787C86.0615 213.223 86.2117 211.667 86.3289 210.107C86.4058 207.679 86.728 205.272 86.8379 202.848Z"
            fill="#7DD3F6" />
        <path
            d="M221.104 204.251C229.541 204.218 237.983 204.364 246.417 204.174C247.991 204.097 249.57 204.167 251.148 204.082C251.104 204.247 251.016 204.584 250.972 204.752C240.905 204.785 230.83 204.709 220.763 204.793C220.847 204.657 221.02 204.386 221.104 204.251Z"
            fill="#6F2643" />
        <path
            d="M64.499 204.522C64.803 205.851 64.803 207.217 64.3928 208.524L64.3599 208.166C64.2683 206.95 64.3525 205.73 64.499 204.522Z"
            fill="#2C104F" />
        <path
            d="M66.2016 204.668C70.3362 204.686 74.4708 204.65 78.6017 204.675C80.6123 204.793 82.6264 204.848 84.6406 204.785C84.604 205.474 84.5747 206.162 84.4941 206.851C84.4575 207.078 84.3843 207.539 84.3477 207.766C82.4287 207.755 80.5061 207.744 78.5944 207.949C74.5148 208.004 70.4351 207.927 66.3555 207.982C66.2639 206.876 66.1321 205.774 66.2016 204.668ZM80.0226 204.943C79.8798 205.822 79.9055 206.708 79.9787 207.594C81.4106 207.645 82.8462 207.645 84.2817 207.587C84.4136 206.723 84.4209 205.847 84.3806 204.976C82.9267 204.954 81.4729 204.976 80.0226 204.943Z"
            fill="#A7DC71" />
        <path
            d="M80.0231 204.943C81.4733 204.976 82.9272 204.954 84.381 204.976C84.4213 205.847 84.414 206.723 84.2822 207.587C82.8466 207.646 81.411 207.646 79.9791 207.594C79.9059 206.708 79.8802 205.822 80.0231 204.943Z"
            fill="#5E9B2B" />
        <path
            d="M222.316 205.987C231.384 206.027 240.459 205.877 249.519 206.118C249.468 206.825 249.383 207.536 249.237 208.235C249.233 207.598 249.204 206.961 249.182 206.331C248.307 206.283 247.435 206.221 246.567 206.25C245.952 208.854 246.087 211.656 244.894 214.109C244.132 215.651 242.389 216.263 240.858 216.746C235.504 218.277 229.882 218.024 224.375 218.138C224.382 219.097 224.4 220.057 224.429 221.02C226.953 221.32 229.502 221.159 232.039 221.177C237.196 221.13 242.356 221.258 247.512 221.133C247.739 219.635 247.421 218.006 248.124 216.614C247.992 218.2 247.878 219.793 247.56 221.353C239.803 221.261 232.039 221.386 224.283 221.298L224.221 221.294C224.133 218.621 223.422 216.017 223.214 213.348C223.089 212.3 222.924 211.256 222.796 210.213C222.657 208.799 222.408 207.4 222.316 205.987Z"
            fill="#FEAC5B" />
        <path
            d="M49.1766 224.561C58.6066 224.444 68.044 224.543 77.4778 224.51C118.618 224.502 159.759 224.528 200.9 224.495C219.606 224.561 238.32 224.4 257.023 224.583C257.411 225.044 257.847 225.458 258.312 225.846C258.37 226.81 258.348 227.78 258.286 228.747C257.96 229.044 257.609 229.315 257.261 229.586C255.452 229.846 253.624 229.721 251.808 229.736C184.548 229.765 117.285 229.714 50.0225 229.747C49.2681 229.875 48.8763 229.201 48.3636 228.805C48.2867 228.747 48.1292 228.637 48.0486 228.582C47.3968 227.168 47.8802 225.425 49.1766 224.561Z"
            fill="#FEAC5B" />
        <path
            d="M246.567 206.25C247.435 206.221 248.307 206.283 249.182 206.331C249.204 206.961 249.233 207.598 249.237 208.235C249.116 210.934 248.6 213.597 248.292 216.281L248.124 216.614C247.42 218.006 247.739 219.635 247.512 221.133C242.356 221.258 237.196 221.13 232.039 221.177C229.502 221.159 226.953 221.32 224.429 221.02C224.4 220.057 224.382 219.097 224.375 218.138C229.882 218.024 235.504 218.277 240.858 216.746C242.389 216.263 244.132 215.651 244.894 214.109C246.087 211.656 245.952 208.854 246.567 206.25Z"
            fill="#D77F27" />
        <path
            d="M110.159 209.96C109.994 209.052 110.173 208.147 110.364 207.265C110.495 208.316 110.624 209.374 110.748 210.429C110.602 210.312 110.305 210.077 110.159 209.96Z"
            fill="#300736" />
        <path
            d="M198.19 212.263C198.289 211.011 198.45 209.77 198.648 208.532C198.699 209.612 198.461 210.758 198.78 211.798C200.922 212.373 203.229 211.527 205.327 212.238C202.951 212.289 200.57 212.249 198.19 212.263Z"
            fill="#8CADDB" />
        <path
            d="M66.2641 209.784C67.5422 209.447 68.8679 209.63 70.1716 209.605C74.449 209.583 78.7264 209.623 83.0002 209.619C83.5788 209.671 84.6115 209.564 84.5932 210.425C84.6152 212.066 84.4357 213.717 84.227 215.343L83.8974 215.534C83.9523 213.871 84.1061 212.212 84.2746 210.56L84.3075 210.231C78.4005 210.051 72.4897 210.128 66.579 210.11C66.5863 210.571 66.5863 211.037 66.5863 211.502C66.5241 212.124 66.4215 212.747 66.3227 213.369C66.0993 212.186 65.9088 210.963 66.2641 209.784Z"
            fill="#4F1218" />
        <path
            d="M66.8169 211.026C66.8828 210.821 67.0183 210.41 67.0879 210.205C71.3214 210.37 75.5621 210.224 79.7993 210.301C79.7993 212.102 79.8176 213.922 79.4623 215.695C79.2646 216.914 77.8986 217.262 76.8952 217.574C73.8336 218.332 70.6841 218.778 67.531 218.866C67.4907 217.636 67.3003 216.424 67.1502 215.204C66.9744 213.813 67.2454 212.381 66.8169 211.026Z"
            fill="#FFD617" />
        <path
            d="M79.7995 210.3C81.2937 210.311 82.8098 210.191 84.2747 210.56C84.1062 212.212 83.9524 213.871 83.8975 215.534C83.7986 217.35 83.4653 219.152 83.5715 220.976L83.5349 220.932C83.4543 220.833 83.2969 220.635 83.2163 220.536C78.0526 220.712 72.8817 220.54 67.718 220.628C67.6521 220.038 67.5862 219.452 67.5312 218.866C70.6844 218.778 73.8338 218.332 76.8954 217.574C77.8988 217.262 79.2648 216.914 79.4626 215.695C79.8178 213.922 79.7995 212.102 79.7995 210.3Z"
            fill="#C9A302" />
        <path
            d="M222.796 210.213C222.924 211.256 223.089 212.3 223.213 213.347C223.323 214.109 223.191 214.878 223.067 215.633C222.642 213.867 222.4 212.003 222.796 210.213Z"
            fill="#500A3B" />
        <path
            d="M101.373 212.469C103.823 211.956 106.376 212.311 108.866 212.274C108.273 212.721 107.518 212.681 106.819 212.688C105.002 212.663 103.171 212.795 101.373 212.469Z"
            fill="#211954" />
        <path
            d="M103.354 214.362C105.273 214.358 107.192 214.376 109.111 214.344C109.577 216.676 109.295 219.251 110.536 221.364C109.119 221.338 107.701 221.272 106.292 221.371C104.285 219.635 103.761 216.852 103.354 214.362Z"
            fill="#C2AFC5" />
        <path
            d="M66.8062 214.567C66.9637 216.035 67.0662 217.515 67.1028 218.998C66.4546 218.731 66.6121 217.947 66.5169 217.405C66.451 216.449 66.4656 215.471 66.8062 214.567Z"
            fill="#460B30" />
        <path
            d="M204.771 216.537C204.939 216.552 205.276 216.581 205.444 216.592C204.998 218.69 204.24 220.763 202.833 222.419C202.877 222.437 202.961 222.47 203.005 222.488C204.152 223.122 205.503 222.876 206.759 222.928C212.029 222.814 217.302 222.968 222.572 222.884C221.767 223.33 220.822 223.224 219.943 223.239C214.581 223.151 209.22 223.272 203.862 223.232C202.522 223.323 201.896 221.888 200.845 221.313C201.577 220.587 202.163 219.731 202.581 218.793L202.716 219.225C203.661 218.551 204.375 217.628 204.771 216.537Z"
            fill="#611666" />
        <path
            d="M67.2163 219.163C67.2932 219.09 67.4507 218.94 67.5313 218.866C67.5862 219.452 67.6521 220.038 67.718 220.628C72.8817 220.54 78.0526 220.712 83.2163 220.536C83.2969 220.635 83.4543 220.833 83.5349 220.932C80.6821 221.243 77.7926 220.998 74.9252 221.075C72.358 221.001 69.7798 221.247 67.2273 220.936C67.2896 220.342 67.2493 219.749 67.2163 219.163Z"
            fill="#BC8753" />
        <path
            d="M67.11 219.255L67.2162 219.163C67.2491 219.749 67.2894 220.342 67.2272 220.936C66.5204 220.833 66.6485 219.628 67.11 219.255Z"
            fill="#4F0B1D" />
        <path
            d="M193.832 221.844C195.051 221.331 195.425 219.932 196.355 219.09C196.19 219.874 195.992 220.65 195.769 221.423C196.428 221.661 197.109 221.869 197.823 221.877C198.069 222.151 198.318 222.43 198.567 222.712C197.772 222.858 196.981 223.012 196.194 223.162C195.882 222.994 195.571 222.825 195.267 222.66C195.124 222.946 194.985 223.235 194.85 223.528C189.305 223.737 183.75 223.558 178.198 223.613C165.139 223.561 152.076 223.635 139.016 223.613C138.317 223.7 137.786 223.364 137.584 222.701C137.068 222.558 136.559 222.422 136.046 222.287C142.155 222.012 148.278 222.258 154.39 222.159C166.113 222.247 177.832 222.122 189.551 222.177C190.979 222.144 192.466 222.382 193.832 221.844Z"
            fill="#57005D" />
        <path
            d="M106.292 221.371C107.701 221.272 109.119 221.338 110.536 221.364C110.225 221.913 109.485 221.661 108.98 221.774C107.998 221.814 107.017 221.778 106.042 221.675L106.292 221.371Z"
            fill="#3F0146" />
        <path
            d="M113.188 221.873C113.33 221.73 113.62 221.448 113.766 221.309C116.183 221.368 118.6 221.36 121.021 221.305C125.027 221.375 129.037 221.272 133.044 221.397C131.96 222.049 130.678 221.749 129.488 221.771C124.053 221.727 118.622 221.924 113.188 221.873Z"
            fill="#3B0343" />
        <path
            d="M133.044 221.397C133.172 221.39 133.428 221.375 133.556 221.368C134.007 221.935 134.908 222.104 135.311 221.382L135.512 221.419C136.058 221.573 136.596 221.818 137.175 221.829C156.06 221.847 174.946 221.807 193.832 221.844C192.466 222.382 190.979 222.144 189.551 222.177C177.832 222.122 166.113 222.247 154.39 222.159C148.278 222.258 142.155 222.012 136.047 222.287C136.559 222.422 137.068 222.558 137.585 222.701C137.786 223.364 138.317 223.7 139.017 223.613C152.076 223.635 165.139 223.561 178.198 223.613C183.75 223.558 189.305 223.737 194.85 223.528C194.986 223.235 195.125 222.946 195.267 222.66C195.571 222.825 195.883 222.994 196.194 223.162C196.981 223.012 197.772 222.858 198.567 222.712C198.318 222.43 198.069 222.151 197.824 221.877C198.267 221.888 198.714 221.899 199.16 221.91C199.197 222.88 199.805 223.803 200.9 223.646C219.218 223.799 237.547 223.495 255.865 223.73C256.045 223.788 256.4 223.906 256.576 223.964C251.808 224.129 247.039 223.906 242.271 223.975C226.656 224.03 211.04 223.895 195.432 224.063C176.265 223.99 157.097 224.085 137.933 224.015C134.754 224.202 131.579 223.873 128.4 224.004C107.767 224.023 87.1312 223.986 66.4985 224.026C60.8881 223.891 55.2777 224.217 49.6709 223.924C50.2495 223.675 50.8904 223.693 51.5093 223.7C59.1998 223.836 66.8904 223.58 74.5809 223.678C83.978 223.635 93.3715 223.759 102.769 223.682C112.759 223.605 122.753 223.741 132.743 223.594C132.245 223.217 131.806 222.774 131.44 222.276C125.796 222.038 120.135 222.302 114.484 222.214C114.037 222.155 113.605 222.042 113.187 221.873C118.622 221.924 124.053 221.727 129.488 221.771C130.678 221.749 131.96 222.049 133.044 221.397Z"
            fill="#62116C" />
        <path
            d="M133.556 221.368C134.135 221.294 134.732 221.236 135.31 221.382C134.907 222.104 134.007 221.935 133.556 221.368Z"
            fill="#420849" />
        <path
            d="M135.512 221.419C143.272 221.228 151.039 221.39 158.799 221.335C170.251 221.346 181.699 221.32 193.147 221.349C193.319 221.474 193.66 221.719 193.832 221.844C174.946 221.807 156.06 221.847 137.174 221.829C136.596 221.818 136.057 221.573 135.512 221.419Z"
            fill="#3D0345" />
        <path
            d="M224.283 221.298C232.039 221.386 239.803 221.261 247.559 221.353L247.823 221.657C240.488 221.818 233.145 221.683 225.81 221.712C225.308 221.602 224.506 221.935 224.283 221.298Z"
            fill="#5B043F" />
        <path
            d="M48.9785 222.54C54.5084 222.349 60.0566 222.441 65.5937 222.437L65.396 222.825C60.0236 222.88 54.6512 222.898 49.2788 222.866L48.9785 222.54Z"
            fill="#2B0D3E" />
        <path
            d="M85.2778 222.496C91.5731 222.397 97.8757 222.448 104.171 222.474L104.204 222.832L103.966 222.917C97.7988 222.832 91.628 222.829 85.4609 222.935C85.417 222.825 85.3254 222.605 85.2778 222.496Z"
            fill="#240F4B" />
        <path
            d="M203.005 222.488C209.586 222.411 216.167 222.474 222.752 222.459L222.807 222.778C222.748 222.803 222.631 222.855 222.572 222.884C217.302 222.968 212.029 222.814 206.759 222.928C205.503 222.876 204.152 223.122 203.005 222.488Z"
            fill="#25114C" />
        <path
            d="M49.2788 222.865C54.6512 222.898 60.0236 222.88 65.396 222.825L65.2275 223.147C60.4154 223.276 55.596 223.279 50.7766 223.279C50.2749 223.206 49.6047 223.371 49.2788 222.865Z"
            fill="#5C1C63" />
        <path
            d="M85.4609 222.935C91.628 222.829 97.7988 222.833 103.966 222.917C103.241 223.243 102.442 223.279 101.659 223.261C96.8979 223.184 92.1334 223.257 87.3726 223.246C86.7244 223.243 86.0652 223.181 85.4609 222.935Z"
            fill="#5D1B68" />
        <path
            d="M249.222 223.056C251.826 222.887 254.455 222.829 257.059 223.023C254.481 223.371 251.815 223.298 249.222 223.056Z"
            fill="#5E1E62" />
        <path
            d="M49.1763 224.561C49.3008 224.4 49.5461 224.081 49.6707 223.924C55.2774 224.217 60.8879 223.891 66.4983 224.026C87.1309 223.986 107.767 224.023 128.4 224.004C131.579 223.873 134.754 224.202 137.932 224.015C157.097 224.085 176.264 223.99 195.432 224.063C211.04 223.895 226.656 224.03 242.271 223.975C247.039 223.906 251.807 224.129 256.576 223.964C256.689 224.122 256.912 224.429 257.022 224.583C238.32 224.4 219.606 224.561 200.9 224.495C159.759 224.528 118.618 224.502 77.4775 224.51C68.0437 224.543 58.6063 224.444 49.1763 224.561Z"
            fill="#43053D" />
        <path
            d="M258.311 225.846C258.483 225.997 258.831 226.297 259.007 226.447C258.842 227.223 259 228.201 258.286 228.747C258.348 227.78 258.37 226.81 258.311 225.846Z"
            fill="#4D0530" />
        <path
            d="M49.4512 229.889C61.485 229.736 73.5262 229.871 85.5638 229.824C142.679 229.871 199.79 229.776 256.905 229.86L256.645 230.149C219.152 230.274 181.655 230.157 144.162 230.201C138.863 230.23 133.564 230.102 128.268 230.296C123.907 230.186 119.549 230.226 115.187 230.223C94.558 230.23 73.9291 230.219 53.3001 230.23C52.0183 230.182 50.6524 230.457 49.4512 229.889Z"
            fill="#934B44" />
        <path
            d="M128.268 230.296C133.564 230.102 138.863 230.23 144.162 230.201C181.655 230.157 219.152 230.274 256.645 230.149L256.367 230.479C254.975 230.658 253.576 230.49 252.185 230.508C211.659 230.545 171.13 230.472 130.608 230.527C129.821 230.49 129.044 230.376 128.268 230.296Z"
            fill="#4B0244" />
        <path
            d="M119.841 234.237C121.515 235.134 122.189 237.13 122.511 238.891C120.321 238.701 118.135 238.994 115.945 238.972C116.278 238.693 116.615 238.43 116.919 238.126C117.076 237.24 116.835 236.339 116.758 235.456C117.542 235.489 118.322 235.537 119.105 235.57C119.347 235.123 119.592 234.676 119.841 234.237Z"
            fill="#5F106E" />
        <path
            d="M49.7002 239.049C52.7251 238.616 55.7904 239.001 58.83 238.972C77.8696 238.95 96.9055 238.972 115.945 238.972C118.135 238.994 120.321 238.701 122.511 238.891C128.371 239.111 134.241 238.909 140.108 238.983C178.319 238.968 216.534 238.961 254.748 238.95C255.704 239.082 256.982 238.591 257.7 239.415C239.265 239.294 220.826 239.4 202.39 239.363C176.019 239.378 149.648 239.349 123.28 239.367C120.471 239.514 117.663 239.503 114.857 239.363C95.686 239.363 76.5182 239.374 57.3505 239.36C54.6588 239.506 51.9707 239.396 49.2827 239.342C49.3889 239.268 49.594 239.122 49.7002 239.049Z"
            fill="#582271" />
        <path
            d="M49.2825 239.342C51.9705 239.396 54.6585 239.506 57.3502 239.36C76.518 239.375 95.6857 239.364 114.857 239.364C117.662 239.503 120.471 239.514 123.28 239.367C149.648 239.349 176.019 239.378 202.39 239.364C220.825 239.4 239.264 239.294 257.7 239.415L257.989 239.733C252.763 239.993 247.519 239.774 242.286 239.847C179.784 239.843 117.282 239.854 54.7757 239.84C52.8384 239.766 50.8828 240.001 48.9639 239.686L49.2825 239.342Z"
            fill="#1F0133" />
    </g>
    <defs>
        <clipPath id="clip0_83_12107">
            <rect x="20" y="20" width="271" height="271" rx="20" fill="white" />
        </clipPath>
    </defs>
</svg>
