<svg width="24" height="24" viewBox="0 0 24 24" fill="none" xmlns="http://www.w3.org/2000/svg">
    <path
        d="M18.6998 14.46C18.3398 14.82 18.1398 15.51 18.2598 16L18.9498 19.01C19.2398 20.26 19.0598 21.2 18.4398 21.65C18.1898 21.83 17.8898 21.92 17.5398 21.92C17.0298 21.92 16.4298 21.73 15.7698 21.34L12.8398 19.6C12.3798 19.33 11.6198 19.33 11.1598 19.6L8.2298 21.34C7.1198 21.99 6.1698 22.1 5.5598 21.65C5.3298 21.48 5.1598 21.25 5.0498 20.95L17.2098 8.79002C17.6698 8.33002 18.3198 8.12002 18.9498 8.23002L19.9598 8.40002C21.0198 8.58002 21.7298 9.06002 21.9598 9.76002C22.1798 10.46 21.8798 11.27 21.1198 12.03L18.6998 14.46Z"
        fill="#FFC24A" />
    <path
        d="M5.73937 16C5.84937 15.51 5.64937 14.81 5.29937 14.46L2.86937 12.03C2.10937 11.27 1.80937 10.46 2.02937 9.76C2.25937 9.06 2.96937 8.58 4.02937 8.4L7.14937 7.88C7.59937 7.8 8.14937 7.4 8.35937 6.99L10.0794 3.54C10.5794 2.55 11.2594 2 11.9994 2C12.7394 2 13.4194 2.55 13.9194 3.54L15.6394 6.99C15.7694 7.25 16.0394 7.5 16.3294 7.67L5.55937 18.44C5.41937 18.58 5.17937 18.45 5.21937 18.25L5.73937 16Z"
        fill="#FFC24A" />
</svg>
