<svg width="16" height="16" viewBox="0 0 16 16" fill="none" xmlns="http://www.w3.org/2000/svg">
    <path
        d="M12.3749 9.64001C12.1366 9.88001 12.0043 10.34 12.0837 10.6667L12.5403 12.6733C12.7322 13.5067 12.6131 14.1333 12.2028 14.4333C12.0374 14.5533 11.8388 14.6133 11.6072 14.6133C11.2697 14.6133 10.8727 14.4867 10.4359 14.2267L8.49694 13.0667C8.19253 12.8867 7.68959 12.8867 7.38517 13.0667L5.44621 14.2267C4.71165 14.66 4.08297 14.7333 3.6793 14.4333C3.52709 14.32 3.41459 14.1667 3.3418 13.9667L11.3888 5.86001C11.6933 5.55335 12.1234 5.41335 12.5403 5.48668L13.2087 5.60001C13.9102 5.72001 14.38 6.04001 14.5322 6.50668C14.6778 6.97335 14.4793 7.51335 13.9763 8.02001L12.3749 9.64001Z"
        fill="#FFC24A" />
    <path
        d="M3.79811 10.6667C3.8709 10.34 3.73855 9.87337 3.50693 9.64004L1.89885 8.02004C1.39591 7.51337 1.19738 6.97337 1.34297 6.50671C1.49517 6.04004 1.96502 5.72004 2.66649 5.60004L4.7312 5.25337C5.02899 5.20004 5.39296 4.93337 5.53193 4.66004L6.67017 2.36004C7.00105 1.70004 7.45105 1.33337 7.94075 1.33337C8.43046 1.33337 8.88046 1.70004 9.21134 2.36004L10.3496 4.66004C10.4356 4.83337 10.6143 5.00004 10.8062 5.11337L3.67899 12.2934C3.58635 12.3867 3.42752 12.3 3.45399 12.1667L3.79811 10.6667Z"
        fill="#FFC24A" />
</svg>
