<svg width="12" height="12" viewBox="0 0 12 12" fill="none" xmlns="http://www.w3.org/2000/svg">
    <path
        d="M11.0001 5.4851V6.5151C11.0001 6.7901 10.7801 7.0151 10.5001 7.0251H9.52011C8.98011 7.0251 8.48511 6.6301 8.44011 6.0901C8.41011 5.7751 8.53011 5.4801 8.74011 5.2751C8.92511 5.0851 9.18011 4.9751 9.46011 4.9751H10.5001C10.7801 4.9851 11.0001 5.2101 11.0001 5.4851Z"
        fill="#7C66FF" />
    <path
        d="M10.235 7.775H9.52C8.57 7.775 7.77 7.06 7.69 6.15C7.645 5.63 7.835 5.11 8.215 4.74C8.535 4.41 8.98 4.225 9.46 4.225H10.235C10.38 4.225 10.5 4.105 10.485 3.96C10.375 2.745 9.57 1.915 8.375 1.775C8.255 1.755 8.13 1.75 8 1.75H3.5C3.36 1.75 3.225 1.76 3.095 1.78C1.82 1.94 1 2.89 1 4.25V7.75C1 9.13 2.12 10.25 3.5 10.25H8C9.4 10.25 10.365 9.375 10.485 8.04C10.5 7.895 10.38 7.775 10.235 7.775ZM6.5 4.875H3.5C3.295 4.875 3.125 4.705 3.125 4.5C3.125 4.295 3.295 4.125 3.5 4.125H6.5C6.705 4.125 6.875 4.295 6.875 4.5C6.875 4.705 6.705 4.875 6.5 4.875Z"
        fill="#7C66FF" />
</svg>
